<?xml version='1.0' encoding='UTF-8' standalone='no'?>
<svg xmlns="http://www.w3.org/2000/svg" height="463pt" xmlns:xlink="http://www.w3.org/1999/xlink" viewBox="0 0 973 463" width="973pt">
 <title>Figure 1</title>
 <desc>
Creator: GL2PS 1.4.2, (C) 1999-2020 C. Geuzaine
For: Octave
CreationDate: Tue Dec 26 16:32:16 2023
</desc>
 <defs/>
 <polygon fill="#ffffff" points="0,0 973,0 973,463 0,463"/>
 <g>
  <polygon fill="#ffffff" points="0,463 973,463 973,0 0,0" shape-rendering="crispEdges"/>
  <clipPath id="cp00973463">
   <polygon points="0,463 973,463 973,0 0,0"/>
  </clipPath>
  <g clip-path="url(#cp00973463)">
   <polygon fill="#ffffff" points="126.602,403.603 881.34,403.603 881.34,34.7695 126.602,34.7695" shape-rendering="crispEdges"/>
   <polyline fill="none" stroke-width="0.5" stroke="#262626" points="126.602,403.603 126.602,34.7695" stroke-linejoin="miter" stroke-opacity="0.15" stroke-dasharray="16,0" stroke-linecap="butt"/>
   <polyline fill="none" stroke-width="0.5" stroke="#262626" points="271.744,403.603 271.744,34.7695" stroke-linejoin="miter" stroke-opacity="0.15" stroke-dasharray="16,0" stroke-linecap="butt"/>
   <polyline fill="none" stroke-width="0.5" stroke="#262626" points="416.886,403.603 416.886,34.7695" stroke-linejoin="miter" stroke-opacity="0.15" stroke-dasharray="16,0" stroke-linecap="butt"/>
   <polyline fill="none" stroke-width="0.5" stroke="#262626" points="562.028,403.603 562.028,34.7695" stroke-linejoin="miter" stroke-opacity="0.15" stroke-dasharray="16,0" stroke-linecap="butt"/>
   <polyline fill="none" stroke-width="0.5" stroke="#262626" points="707.17,403.603 707.17,34.7695" stroke-linejoin="miter" stroke-opacity="0.15" stroke-dasharray="16,0" stroke-linecap="butt"/>
   <polyline fill="none" stroke-width="0.5" stroke="#262626" points="852.312,403.603 852.312,34.7695" stroke-linejoin="miter" stroke-opacity="0.15" stroke-dasharray="16,0" stroke-linecap="butt"/>
   <polyline fill="none" stroke-width="0.5" stroke="#262626" points="126.602,403.603 126.602,396.059" stroke-linejoin="miter" stroke-linecap="butt"/>
   <polyline fill="none" stroke-width="0.5" stroke="#262626" points="271.744,403.603 271.744,396.059" stroke-linejoin="miter" stroke-linecap="butt"/>
   <polyline fill="none" stroke-width="0.5" stroke="#262626" points="416.886,403.603 416.886,396.059" stroke-linejoin="miter" stroke-linecap="butt"/>
   <polyline fill="none" stroke-width="0.5" stroke="#262626" points="562.028,403.603 562.028,396.059" stroke-linejoin="miter" stroke-linecap="butt"/>
   <polyline fill="none" stroke-width="0.5" stroke="#262626" points="707.17,403.603 707.17,396.059" stroke-linejoin="miter" stroke-linecap="butt"/>
   <polyline fill="none" stroke-width="0.5" stroke="#262626" points="852.312,403.603 852.312,396.059" stroke-linejoin="miter" stroke-linecap="butt"/>
   <g font-size="20" font-style="normal" font-family="'CMU Serif'" font-weight="normal" transform="translate(121.601,433.596) rotate(-0,5,-15)" xml:space="preserve">
    <text fill="rgb(38,38,38)" x="0 " y="-0">0</text>
   </g>
   <g font-size="20" font-style="normal" font-family="'CMU Serif'" font-weight="normal" transform="translate(261.743,433.596) rotate(-0,10,-15)" xml:space="preserve">
    <text fill="rgb(38,38,38)" x="0 10 " y="-0">10</text>
   </g>
   <g font-size="20" font-style="normal" font-family="'CMU Serif'" font-weight="normal" transform="translate(406.886,433.596) rotate(-0,10,-15)" xml:space="preserve">
    <text fill="rgb(38,38,38)" x="0 10 " y="-0">20</text>
   </g>
   <g font-size="20" font-style="normal" font-family="'CMU Serif'" font-weight="normal" transform="translate(552.028,433.596) rotate(-0,10,-15)" xml:space="preserve">
    <text fill="rgb(38,38,38)" x="0 10 " y="-0">30</text>
   </g>
   <g font-size="20" font-style="normal" font-family="'CMU Serif'" font-weight="normal" transform="translate(697.17,433.596) rotate(-0,10,-15)" xml:space="preserve">
    <text fill="rgb(38,38,38)" x="0 10 " y="-0">40</text>
   </g>
   <g font-size="20" font-style="normal" font-family="'CMU Serif'" font-weight="normal" transform="translate(842.312,433.596) rotate(-0,10,-15)" xml:space="preserve">
    <text fill="rgb(38,38,38)" x="0 10 " y="-0">50</text>
   </g>
   <polyline fill="none" stroke-width="0.5" stroke="#262626" points="126.602,403.603 881.34,403.603" stroke-linejoin="miter" stroke-opacity="0.15" stroke-dasharray="16,0" stroke-linecap="butt"/>
   <polyline fill="none" stroke-width="0.5" stroke="#262626" points="126.602,311.395 881.34,311.395" stroke-linejoin="miter" stroke-opacity="0.15" stroke-dasharray="16,0" stroke-linecap="butt"/>
   <polyline fill="none" stroke-width="0.5" stroke="#262626" points="126.602,219.187 881.34,219.187" stroke-linejoin="miter" stroke-opacity="0.15" stroke-dasharray="16,0" stroke-linecap="butt"/>
   <polyline fill="none" stroke-width="0.5" stroke="#262626" points="126.602,126.978 881.34,126.978" stroke-linejoin="miter" stroke-opacity="0.15" stroke-dasharray="16,0" stroke-linecap="butt"/>
   <polyline fill="none" stroke-width="0.5" stroke="#262626" points="126.602,34.7695 881.34,34.7695" stroke-linejoin="miter" stroke-opacity="0.15" stroke-dasharray="16,0" stroke-linecap="butt"/>
   <polyline fill="none" stroke-width="0.5" stroke="#262626" points="126.602,403.603 134.146,403.603" stroke-linejoin="miter" stroke-linecap="butt"/>
   <polyline fill="none" stroke-width="0.5" stroke="#262626" points="126.602,311.395 134.146,311.395" stroke-linejoin="miter" stroke-linecap="butt"/>
   <polyline fill="none" stroke-width="0.5" stroke="#262626" points="126.602,219.187 134.146,219.187" stroke-linejoin="miter" stroke-linecap="butt"/>
   <polyline fill="none" stroke-width="0.5" stroke="#262626" points="126.602,126.978 134.146,126.978" stroke-linejoin="miter" stroke-linecap="butt"/>
   <polyline fill="none" stroke-width="0.5" stroke="#262626" points="126.602,34.7695 134.146,34.7695" stroke-linejoin="miter" stroke-linecap="butt"/>
   <g font-size="20" font-style="normal" font-family="'CMU Serif'" font-weight="normal" transform="translate(106.605,411.103) rotate(-0,10,-7.5)" xml:space="preserve">
    <text fill="rgb(38,38,38)" x="0 " y="-0">0</text>
   </g>
   <g font-size="20" font-style="normal" font-family="'CMU Serif'" font-weight="normal" transform="translate(86.6048,318.895) rotate(-0,30,-7.5)" xml:space="preserve">
    <text fill="rgb(38,38,38)" x="0 10 20 " y="-0">200</text>
   </g>
   <g font-size="20" font-style="normal" font-family="'CMU Serif'" font-weight="normal" transform="translate(86.6048,226.686) rotate(-0,30,-7.5)" xml:space="preserve">
    <text fill="rgb(38,38,38)" x="0 10 20 " y="-0">400</text>
   </g>
   <g font-size="20" font-style="normal" font-family="'CMU Serif'" font-weight="normal" transform="translate(86.6048,134.478) rotate(-0,30,-7.5)" xml:space="preserve">
    <text fill="rgb(38,38,38)" x="0 10 20 " y="-0">600</text>
   </g>
   <g font-size="20" font-style="normal" font-family="'CMU Serif'" font-weight="normal" transform="translate(86.6048,42.2697) rotate(-0,30,-7.5)" xml:space="preserve">
    <text fill="rgb(38,38,38)" x="0 10 20 " y="-0">800</text>
   </g>
   <polyline fill="none" stroke-width="0.5" stroke="#262626" points="126.602,403.603 881.34,403.603" stroke-linejoin="miter" stroke-dasharray="16,0" stroke-linecap="square"/>
   <polyline fill="none" stroke-width="0.5" stroke="#262626" points="126.602,403.603 126.602,34.7695" stroke-linejoin="miter" stroke-dasharray="16,0" stroke-linecap="square"/>
   <g font-size="24" font-style="normal" font-family="'CMU Serif'" font-weight="normal" transform="translate(414.471,463.596) rotate(-0,89.5,-25)" xml:space="preserve">
    <text fill="rgb(38,38,38)" x="0 12 21 30 37 50 62 69 77 86 93 113 124 132 141 161 170 " y="-6">arrival time (ms)</text>
   </g>
   <g font-size="24" font-style="normal" font-family="'CMU Serif'" font-weight="normal" transform="translate(-31.3952,219.186) rotate(-90,113,0)" xml:space="preserve">
    <text fill="rgb(38,38,38)" x="0 9 22 31 44 56 65 77 90 103 116 124 133 140 160 171 179 188 208 217 " y="-6">turnaround time (ms)</text>
   </g>
   <polygon fill="#2d88f5" points="129.602,379.629 129.028,381.392 127.528,382.482 125.674,382.482 124.174,381.392 123.602,379.629 124.174,377.866 125.674,376.776 127.528,376.776 129.028,377.866" shape-rendering="crispEdges"/>
   <polyline fill="none" stroke-width="0.5" stroke="#2d88f5" points="129.602,379.629 129.028,381.392 127.528,382.482 125.674,382.482 124.174,381.392 123.602,379.629 124.174,377.866 125.674,376.776 127.528,376.776 129.028,377.866 129.602,379.629" stroke-linejoin="round" stroke-linecap="round"/>
   <polygon fill="#2d88f5" points="144.116,358.882 143.542,360.646 142.042,361.735 140.188,361.735 138.688,360.646 138.116,358.882 138.688,357.119 140.188,356.029 142.042,356.029 143.542,357.119" shape-rendering="crispEdges"/>
   <polyline fill="none" stroke-width="0.5" stroke="#2d88f5" points="144.116,358.882 143.542,360.646 142.042,361.735 140.188,361.735 138.688,360.646 138.116,358.882 138.688,357.119 140.188,356.029 142.042,356.029 143.542,357.119 144.116,358.882" stroke-linejoin="round" stroke-linecap="round"/>
   <polygon fill="#2d88f5" points="158.63,357.499 158.057,359.262 156.557,360.352 154.703,360.352 153.203,359.262 152.63,357.499 153.203,355.735 154.703,354.646 156.557,354.646 158.057,355.735" shape-rendering="crispEdges"/>
   <polyline fill="none" stroke-width="0.5" stroke="#2d88f5" points="158.63,357.499 158.057,359.262 156.557,360.352 154.703,360.352 153.203,359.262 152.63,357.499 153.203,355.735 154.703,354.646 156.557,354.646 158.057,355.735 158.63,357.499" stroke-linejoin="round" stroke-linecap="round"/>
   <polygon fill="#2d88f5" points="158.63,363.954 158.057,365.717 156.557,366.807 154.703,366.807 153.203,365.717 152.63,363.954 153.203,362.19 154.703,361.1 156.557,361.1 158.057,362.19" shape-rendering="crispEdges"/>
   <polyline fill="none" stroke-width="0.5" stroke="#2d88f5" points="158.63,363.954 158.057,365.717 156.557,366.807 154.703,366.807 153.203,365.717 152.63,363.954 153.203,362.19 154.703,361.1 156.557,361.1 158.057,362.19 158.63,363.954" stroke-linejoin="round" stroke-linecap="round"/>
   <polygon fill="#2d88f5" points="158.63,361.648 158.057,363.412 156.557,364.501 154.703,364.501 153.203,363.412 152.63,361.648 153.203,359.885 154.703,358.795 156.557,358.795 158.057,359.885" shape-rendering="crispEdges"/>
   <polyline fill="none" stroke-width="0.5" stroke="#2d88f5" points="158.63,361.648 158.057,363.412 156.557,364.501 154.703,364.501 153.203,363.412 152.63,361.648 153.203,359.885 154.703,358.795 156.557,358.795 158.057,359.885 158.63,361.648" stroke-linejoin="round" stroke-linecap="round"/>
   <polygon fill="#2d88f5" points="187.658,357.96 187.085,359.723 185.585,360.813 183.731,360.813 182.231,359.723 181.658,357.96 182.231,356.197 183.731,355.107 185.585,355.107 187.085,356.197" shape-rendering="crispEdges"/>
   <polyline fill="none" stroke-width="0.5" stroke="#2d88f5" points="187.658,357.96 187.085,359.723 185.585,360.813 183.731,360.813 182.231,359.723 181.658,357.96 182.231,356.197 183.731,355.107 185.585,355.107 187.085,356.197 187.658,357.96" stroke-linejoin="round" stroke-linecap="round"/>
   <polygon fill="#2d88f5" points="216.687,326.148 216.114,327.911 214.614,329.001 212.76,329.001 211.26,327.911 210.687,326.148 211.26,324.385 212.76,323.295 214.614,323.295 216.114,324.385" shape-rendering="crispEdges"/>
   <polyline fill="none" stroke-width="0.5" stroke="#2d88f5" points="216.687,326.148 216.114,327.911 214.614,329.001 212.76,329.001 211.26,327.911 210.687,326.148 211.26,324.385 212.76,323.295 214.614,323.295 216.114,324.385 216.687,326.148" stroke-linejoin="round" stroke-linecap="round"/>
   <polygon fill="#2d88f5" points="260.229,326.148 259.656,327.911 258.156,329.001 256.302,329.001 254.802,327.911 254.229,326.148 254.802,324.385 256.302,323.295 258.156,323.295 259.656,324.385" shape-rendering="crispEdges"/>
   <polyline fill="none" stroke-width="0.5" stroke="#2d88f5" points="260.229,326.148 259.656,327.911 258.156,329.001 256.302,329.001 254.802,327.911 254.229,326.148 254.802,324.385 256.302,323.295 258.156,323.295 259.656,324.385 260.229,326.148" stroke-linejoin="round" stroke-linecap="round"/>
   <polygon fill="#2d88f5" points="289.258,314.622 288.685,316.385 287.185,317.475 285.331,317.475 283.831,316.385 283.258,314.622 283.831,312.858 285.331,311.769 287.185,311.769 288.685,312.858" shape-rendering="crispEdges"/>
   <polyline fill="none" stroke-width="0.5" stroke="#2d88f5" points="289.258,314.622 288.685,316.385 287.185,317.475 285.331,317.475 283.831,316.385 283.258,314.622 283.831,312.858 285.331,311.769 287.185,311.769 288.685,312.858 289.258,314.622" stroke-linejoin="round" stroke-linecap="round"/>
   <polygon fill="#2d88f5" points="303.772,292.953 303.199,294.716 301.699,295.806 299.845,295.806 298.345,294.716 297.772,292.953 298.345,291.189 299.845,290.1 301.699,290.1 303.199,291.189" shape-rendering="crispEdges"/>
   <polyline fill="none" stroke-width="0.5" stroke="#2d88f5" points="303.772,292.953 303.199,294.716 301.699,295.806 299.845,295.806 298.345,294.716 297.772,292.953 298.345,291.189 299.845,290.1 301.699,290.1 303.199,291.189 303.772,292.953" stroke-linejoin="round" stroke-linecap="round"/>
   <polygon fill="#2d88f5" points="303.772,307.707 303.199,309.47 301.699,310.56 299.845,310.56 298.345,309.47 297.772,307.707 298.345,305.943 299.845,304.853 301.699,304.853 303.199,305.943" shape-rendering="crispEdges"/>
   <polyline fill="none" stroke-width="0.5" stroke="#2d88f5" points="303.772,307.707 303.199,309.47 301.699,310.56 299.845,310.56 298.345,309.47 297.772,307.707 298.345,305.943 299.845,304.853 301.699,304.853 303.199,305.943 303.772,307.707" stroke-linejoin="round" stroke-linecap="round"/>
   <polygon fill="#2d88f5" points="347.314,308.167 346.742,309.931 345.242,311.021 343.388,311.021 341.888,309.931 341.314,308.167 341.888,306.404 343.388,305.314 345.242,305.314 346.742,306.404" shape-rendering="crispEdges"/>
   <polyline fill="none" stroke-width="0.5" stroke="#2d88f5" points="347.314,308.167 346.742,309.931 345.242,311.021 343.388,311.021 341.888,309.931 341.314,308.167 341.888,306.404 343.388,305.314 345.242,305.314 346.742,306.404 347.314,308.167" stroke-linejoin="round" stroke-linecap="round"/>
   <polygon fill="#2d88f5" points="347.314,272.206 346.742,273.97 345.242,275.06 343.388,275.06 341.888,273.97 341.314,272.206 341.888,270.443 343.388,269.353 345.242,269.353 346.742,270.443" shape-rendering="crispEdges"/>
   <polyline fill="none" stroke-width="0.5" stroke="#2d88f5" points="347.314,272.206 346.742,273.97 345.242,275.06 343.388,275.06 341.888,273.97 341.314,272.206 341.888,270.443 343.388,269.353 345.242,269.353 346.742,270.443 347.314,272.206" stroke-linejoin="round" stroke-linecap="round"/>
   <polygon fill="#2d88f5" points="361.829,284.654 361.256,286.417 359.756,287.507 357.902,287.507 356.402,286.417 355.829,284.654 356.402,282.891 357.902,281.801 359.756,281.801 361.256,282.891" shape-rendering="crispEdges"/>
   <polyline fill="none" stroke-width="0.5" stroke="#2d88f5" points="361.829,284.654 361.256,286.417 359.756,287.507 357.902,287.507 356.402,286.417 355.829,284.654 356.402,282.891 357.902,281.801 359.756,281.801 361.256,282.891 361.829,284.654" stroke-linejoin="round" stroke-linecap="round"/>
   <polygon fill="#2d88f5" points="361.829,251.92 361.256,253.684 359.756,254.773 357.902,254.773 356.402,253.684 355.829,251.92 356.402,250.157 357.902,249.067 359.756,249.067 361.256,250.157" shape-rendering="crispEdges"/>
   <polyline fill="none" stroke-width="0.5" stroke="#2d88f5" points="361.829,251.92 361.256,253.684 359.756,254.773 357.902,254.773 356.402,253.684 355.829,251.92 356.402,250.157 357.902,249.067 359.756,249.067 361.256,250.157 361.829,251.92" stroke-linejoin="round" stroke-linecap="round"/>
   <polygon fill="#2d88f5" points="376.343,268.518 375.77,270.281 374.27,271.371 372.416,271.371 370.916,270.281 370.343,268.518 370.916,266.754 372.416,265.665 374.27,265.665 375.77,266.754" shape-rendering="crispEdges"/>
   <polyline fill="none" stroke-width="0.5" stroke="#2d88f5" points="376.343,268.518 375.77,270.281 374.27,271.371 372.416,271.371 370.916,270.281 370.343,268.518 370.916,266.754 372.416,265.665 374.27,265.665 375.77,266.754 376.343,268.518" stroke-linejoin="round" stroke-linecap="round"/>
   <polygon fill="#2d88f5" points="419.886,245.005 419.312,246.768 417.812,247.858 415.958,247.858 414.458,246.768 413.886,245.005 414.458,243.241 415.958,242.151 417.812,242.151 419.312,243.241" shape-rendering="crispEdges"/>
   <polyline fill="none" stroke-width="0.5" stroke="#2d88f5" points="419.886,245.005 419.312,246.768 417.812,247.858 415.958,247.858 414.458,246.768 413.886,245.005 414.458,243.241 415.958,242.151 417.812,242.151 419.312,243.241 419.886,245.005" stroke-linejoin="round" stroke-linecap="round"/>
   <polygon fill="#2d88f5" points="434.4,226.102 433.827,227.865 432.327,228.955 430.473,228.955 428.973,227.865 428.4,226.102 428.973,224.339 430.473,223.249 432.327,223.249 433.827,224.339" shape-rendering="crispEdges"/>
   <polyline fill="none" stroke-width="0.5" stroke="#2d88f5" points="434.4,226.102 433.827,227.865 432.327,228.955 430.473,228.955 428.973,227.865 428.4,226.102 428.973,224.339 430.473,223.249 432.327,223.249 433.827,224.339 434.4,226.102" stroke-linejoin="round" stroke-linecap="round"/>
   <polygon fill="#2d88f5" points="448.914,215.959 448.341,217.723 446.841,218.812 444.987,218.812 443.487,217.723 442.914,215.959 443.487,214.196 444.987,213.106 446.841,213.106 448.341,214.196" shape-rendering="crispEdges"/>
   <polyline fill="none" stroke-width="0.5" stroke="#2d88f5" points="448.914,215.959 448.341,217.723 446.841,218.812 444.987,218.812 443.487,217.723 442.914,215.959 443.487,214.196 444.987,213.106 446.841,213.106 448.341,214.196 448.914,215.959" stroke-linejoin="round" stroke-linecap="round"/>
   <polygon fill="#2d88f5" points="463.428,209.504 462.855,211.268 461.355,212.358 459.501,212.358 458.001,211.268 457.428,209.504 458.001,207.741 459.501,206.651 461.355,206.651 462.855,207.741" shape-rendering="crispEdges"/>
   <polyline fill="none" stroke-width="0.5" stroke="#2d88f5" points="463.428,209.504 462.855,211.268 461.355,212.358 459.501,212.358 458.001,211.268 457.428,209.504 458.001,207.741 459.501,206.651 461.355,206.651 462.855,207.741 463.428,209.504" stroke-linejoin="round" stroke-linecap="round"/>
   <polygon fill="#2d88f5" points="492.457,197.518 491.884,199.281 490.384,200.371 488.53,200.371 487.03,199.281 486.457,197.518 487.03,195.754 488.53,194.664 490.384,194.664 491.884,195.754" shape-rendering="crispEdges"/>
   <polyline fill="none" stroke-width="0.5" stroke="#2d88f5" points="492.457,197.518 491.884,199.281 490.384,200.371 488.53,200.371 487.03,199.281 486.457,197.518 487.03,195.754 488.53,194.664 490.384,194.664 491.884,195.754 492.457,197.518" stroke-linejoin="round" stroke-linecap="round"/>
   <polygon fill="#2d88f5" points="492.457,204.433 491.884,206.196 490.384,207.286 488.53,207.286 487.03,206.196 486.457,204.433 487.03,202.67 488.53,201.58 490.384,201.58 491.884,202.67" shape-rendering="crispEdges"/>
   <polyline fill="none" stroke-width="0.5" stroke="#2d88f5" points="492.457,204.433 491.884,206.196 490.384,207.286 488.53,207.286 487.03,206.196 486.457,204.433 487.03,202.67 488.53,201.58 490.384,201.58 491.884,202.67 492.457,204.433" stroke-linejoin="round" stroke-linecap="round"/>
   <polygon fill="#2d88f5" points="492.457,199.362 491.884,201.125 490.384,202.215 488.53,202.215 487.03,201.125 486.457,199.362 487.03,197.598 488.53,196.508 490.384,196.508 491.884,197.598" shape-rendering="crispEdges"/>
   <polyline fill="none" stroke-width="0.5" stroke="#2d88f5" points="492.457,199.362 491.884,201.125 490.384,202.215 488.53,202.215 487.03,201.125 486.457,199.362 487.03,197.598 488.53,196.508 490.384,196.508 491.884,197.598 492.457,199.362" stroke-linejoin="round" stroke-linecap="round"/>
   <polygon fill="#2d88f5" points="492.457,199.362 491.884,201.125 490.384,202.215 488.53,202.215 487.03,201.125 486.457,199.362 487.03,197.598 488.53,196.508 490.384,196.508 491.884,197.598" shape-rendering="crispEdges"/>
   <polyline fill="none" stroke-width="0.5" stroke="#2d88f5" points="492.457,199.362 491.884,201.125 490.384,202.215 488.53,202.215 487.03,201.125 486.457,199.362 487.03,197.598 488.53,196.508 490.384,196.508 491.884,197.598 492.457,199.362" stroke-linejoin="round" stroke-linecap="round"/>
   <polygon fill="#2d88f5" points="521.485,198.439 520.912,200.203 519.412,201.292 517.558,201.292 516.058,200.203 515.485,198.439 516.058,196.676 517.558,195.586 519.412,195.586 520.912,196.676" shape-rendering="crispEdges"/>
   <polyline fill="none" stroke-width="0.5" stroke="#2d88f5" points="521.485,198.439 520.912,200.203 519.412,201.292 517.558,201.292 516.058,200.203 515.485,198.439 516.058,196.676 517.558,195.586 519.412,195.586 520.912,196.676 521.485,198.439" stroke-linejoin="round" stroke-linecap="round"/>
   <polygon fill="#2d88f5" points="550.514,196.595 549.94,198.359 548.44,199.449 546.586,199.449 545.086,198.359 544.514,196.595 545.086,194.832 546.586,193.742 548.44,193.742 549.94,194.832" shape-rendering="crispEdges"/>
   <polyline fill="none" stroke-width="0.5" stroke="#2d88f5" points="550.514,196.595 549.94,198.359 548.44,199.449 546.586,199.449 545.086,198.359 544.514,196.595 545.086,194.832 546.586,193.742 548.44,193.742 549.94,194.832 550.514,196.595" stroke-linejoin="round" stroke-linecap="round"/>
   <polygon fill="#2d88f5" points="565.028,178.154 564.455,179.917 562.955,181.007 561.101,181.007 559.601,179.917 559.028,178.154 559.601,176.39 561.101,175.3 562.955,175.3 564.455,176.39" shape-rendering="crispEdges"/>
   <polyline fill="none" stroke-width="0.5" stroke="#2d88f5" points="565.028,178.154 564.455,179.917 562.955,181.007 561.101,181.007 559.601,179.917 559.028,178.154 559.601,176.39 561.101,175.3 562.955,175.3 564.455,176.39 565.028,178.154" stroke-linejoin="round" stroke-linecap="round"/>
   <polygon fill="#2d88f5" points="565.028,181.381 564.455,183.145 562.955,184.234 561.101,184.234 559.601,183.145 559.028,181.381 559.601,179.618 561.101,178.528 562.955,178.528 564.455,179.618" shape-rendering="crispEdges"/>
   <polyline fill="none" stroke-width="0.5" stroke="#2d88f5" points="565.028,181.381 564.455,183.145 562.955,184.234 561.101,184.234 559.601,183.145 559.028,181.381 559.601,179.618 561.101,178.528 562.955,178.528 564.455,179.618 565.028,181.381" stroke-linejoin="round" stroke-linecap="round"/>
   <polygon fill="#2d88f5" points="608.57,181.842 607.997,183.605 606.497,184.695 604.643,184.695 603.143,183.605 602.57,181.842 603.143,180.079 604.643,178.989 606.497,178.989 607.997,180.079" shape-rendering="crispEdges"/>
   <polyline fill="none" stroke-width="0.5" stroke="#2d88f5" points="608.57,181.842 607.997,183.605 606.497,184.695 604.643,184.695 603.143,183.605 602.57,181.842 603.143,180.079 604.643,178.989 606.497,178.989 607.997,180.079 608.57,181.842" stroke-linejoin="round" stroke-linecap="round"/>
   <polygon fill="#2d88f5" points="652.113,158.79 651.54,160.553 650.04,161.643 648.186,161.643 646.686,160.553 646.113,158.79 646.686,157.026 648.186,155.937 650.04,155.937 651.54,157.026" shape-rendering="crispEdges"/>
   <polyline fill="none" stroke-width="0.5" stroke="#2d88f5" points="652.113,158.79 651.54,160.553 650.04,161.643 648.186,161.643 646.686,160.553 646.113,158.79 646.686,157.026 648.186,155.937 650.04,155.937 651.54,157.026 652.113,158.79" stroke-linejoin="round" stroke-linecap="round"/>
   <polygon fill="#2d88f5" points="666.627,137.582 666.054,139.345 664.554,140.435 662.7,140.435 661.2,139.345 660.627,137.582 661.2,135.819 662.7,134.729 664.554,134.729 666.054,135.819" shape-rendering="crispEdges"/>
   <polyline fill="none" stroke-width="0.5" stroke="#2d88f5" points="666.627,137.582 666.054,139.345 664.554,140.435 662.7,140.435 661.2,139.345 660.627,137.582 661.2,135.819 662.7,134.729 664.554,134.729 666.054,135.819 666.627,137.582" stroke-linejoin="round" stroke-linecap="round"/>
   <polygon fill="#2d88f5" points="666.627,122.829 666.054,124.592 664.554,125.682 662.7,125.682 661.2,124.592 660.627,122.829 661.2,121.065 662.7,119.976 664.554,119.976 666.054,121.065" shape-rendering="crispEdges"/>
   <polyline fill="none" stroke-width="0.5" stroke="#2d88f5" points="666.627,122.829 666.054,124.592 664.554,125.682 662.7,125.682 661.2,124.592 660.627,122.829 661.2,121.065 662.7,119.976 664.554,119.976 666.054,121.065 666.627,122.829" stroke-linejoin="round" stroke-linecap="round"/>
   <polygon fill="#2d88f5" points="695.656,115.913 695.083,117.676 693.583,118.766 691.729,118.766 690.229,117.676 689.656,115.913 690.229,114.15 691.729,113.06 693.583,113.06 695.083,114.15" shape-rendering="crispEdges"/>
   <polyline fill="none" stroke-width="0.5" stroke="#2d88f5" points="695.656,115.913 695.083,117.676 693.583,118.766 691.729,118.766 690.229,117.676 689.656,115.913 690.229,114.15 691.729,113.06 693.583,113.06 695.083,114.15 695.656,115.913" stroke-linejoin="round" stroke-linecap="round"/>
   <polygon fill="#2d88f5" points="724.684,124.212 724.111,125.975 722.611,127.065 720.757,127.065 719.257,125.975 718.684,124.212 719.257,122.448 720.757,121.358 722.611,121.358 724.111,122.448" shape-rendering="crispEdges"/>
   <polyline fill="none" stroke-width="0.5" stroke="#2d88f5" points="724.684,124.212 724.111,125.975 722.611,127.065 720.757,127.065 719.257,125.975 718.684,124.212 719.257,122.448 720.757,121.358 722.611,121.358 724.111,122.448 724.684,124.212" stroke-linejoin="round" stroke-linecap="round"/>
   <polygon fill="#2d88f5" points="739.198,125.134 738.625,126.897 737.125,127.987 735.271,127.987 733.771,126.897 733.198,125.134 733.771,123.371 735.271,122.281 737.125,122.281 738.625,123.371" shape-rendering="crispEdges"/>
   <polyline fill="none" stroke-width="0.5" stroke="#2d88f5" points="739.198,125.134 738.625,126.897 737.125,127.987 735.271,127.987 733.771,126.897 733.198,125.134 733.771,123.371 735.271,122.281 737.125,122.281 738.625,123.371 739.198,125.134" stroke-linejoin="round" stroke-linecap="round"/>
   <polygon fill="#2d88f5" points="753.712,121.907 753.14,123.67 751.64,124.76 749.785,124.76 748.285,123.67 747.712,121.907 748.285,120.143 749.785,119.053 751.64,119.053 753.14,120.143" shape-rendering="crispEdges"/>
   <polyline fill="none" stroke-width="0.5" stroke="#2d88f5" points="753.712,121.907 753.14,123.67 751.64,124.76 749.785,124.76 748.285,123.67 747.712,121.907 748.285,120.143 749.785,119.053 751.64,119.053 753.14,120.143 753.712,121.907" stroke-linejoin="round" stroke-linecap="round"/>
   <polygon fill="#2d88f5" points="797.255,120.062 796.682,121.826 795.182,122.916 793.328,122.916 791.828,121.826 791.255,120.062 791.828,118.299 793.328,117.209 795.182,117.209 796.682,118.299" shape-rendering="crispEdges"/>
   <polyline fill="none" stroke-width="0.5" stroke="#2d88f5" points="797.255,120.062 796.682,121.826 795.182,122.916 793.328,122.916 791.828,121.826 791.255,120.062 791.828,118.299 793.328,117.209 795.182,117.209 796.682,118.299 797.255,120.062" stroke-linejoin="round" stroke-linecap="round"/>
   <polygon fill="#2d88f5" points="826.284,118.218 825.71,119.981 824.21,121.071 822.356,121.071 820.856,119.981 820.283,118.218 820.856,116.455 822.356,115.365 824.21,115.365 825.71,116.455" shape-rendering="crispEdges"/>
   <polyline fill="none" stroke-width="0.5" stroke="#2d88f5" points="826.284,118.218 825.71,119.981 824.21,121.071 822.356,121.071 820.856,119.981 820.283,118.218 820.856,116.455 822.356,115.365 824.21,115.365 825.71,116.455 826.284,118.218" stroke-linejoin="round" stroke-linecap="round"/>
   <polygon fill="#2d88f5" points="869.826,118.679 869.253,120.443 867.753,121.532 865.899,121.532 864.399,120.443 863.826,118.679 864.399,116.916 865.899,115.826 867.753,115.826 869.253,116.916" shape-rendering="crispEdges"/>
   <polyline fill="none" stroke-width="0.5" stroke="#2d88f5" points="869.826,118.679 869.253,120.443 867.753,121.532 865.899,121.532 864.399,120.443 863.826,118.679 864.399,116.916 865.899,115.826 867.753,115.826 869.253,116.916 869.826,118.679" stroke-linejoin="round" stroke-linecap="round"/>
   <polygon fill="#2d88f5" points="884.34,100.699 883.768,102.462 882.268,103.552 880.413,103.552 878.913,102.462 878.34,100.699 878.913,98.9355 880.413,97.8457 882.268,97.8457 883.768,98.9355" shape-rendering="crispEdges"/>
   <polyline fill="none" stroke-width="0.5" stroke="#2d88f5" points="884.34,100.699 883.768,102.462 882.268,103.552 880.413,103.552 878.913,102.462 878.34,100.699 878.913,98.9355 880.413,97.8457 882.268,97.8457 883.768,98.9355 884.34,100.699" stroke-linejoin="round" stroke-linecap="round"/>
   <polygon fill="#fec834" points="129.602,286.499 129.028,288.262 127.528,289.352 125.674,289.352 124.174,288.262 123.602,286.499 124.174,284.735 125.674,283.646 127.528,283.646 129.028,284.735" shape-rendering="crispEdges"/>
   <polyline fill="none" stroke-width="0.5" stroke="#fec834" points="129.602,286.499 129.028,288.262 127.528,289.352 125.674,289.352 124.174,288.262 123.602,286.499 124.174,284.735 125.674,283.646 127.528,283.646 129.028,284.735 129.602,286.499" stroke-linejoin="round" stroke-linecap="round"/>
   <polygon fill="#fec834" points="144.116,142.653 143.542,144.417 142.042,145.507 140.188,145.507 138.688,144.417 138.116,142.653 138.688,140.89 140.188,139.8 142.042,139.8 143.542,140.89" shape-rendering="crispEdges"/>
   <polyline fill="none" stroke-width="0.5" stroke="#fec834" points="144.116,142.653 143.542,144.417 142.042,145.507 140.188,145.507 138.688,144.417 138.116,142.653 138.688,140.89 140.188,139.8 142.042,139.8 143.542,140.89 144.116,142.653" stroke-linejoin="round" stroke-linecap="round"/>
   <polygon fill="#fec834" points="158.63,341.823 158.057,343.587 156.557,344.677 154.703,344.677 153.203,343.587 152.63,341.823 153.203,340.06 154.703,338.97 156.557,338.97 158.057,340.06" shape-rendering="crispEdges"/>
   <polyline fill="none" stroke-width="0.5" stroke="#fec834" points="158.63,341.823 158.057,343.587 156.557,344.677 154.703,344.677 153.203,343.587 152.63,341.823 153.203,340.06 154.703,338.97 156.557,338.97 158.057,340.06 158.63,341.823" stroke-linejoin="round" stroke-linecap="round"/>
   <polygon fill="#fec834" points="158.63,400.837 158.057,402.6 156.557,403.69 154.703,403.69 153.203,402.6 152.63,400.837 153.203,399.073 154.703,397.983 156.557,397.983 158.057,399.073" shape-rendering="crispEdges"/>
   <polyline fill="none" stroke-width="0.5" stroke="#fec834" points="158.63,400.837 158.057,402.6 156.557,403.69 154.703,403.69 153.203,402.6 152.63,400.837 153.203,399.073 154.703,397.983 156.557,397.983 158.057,399.073 158.63,400.837" stroke-linejoin="round" stroke-linecap="round"/>
   <polygon fill="#fec834" points="158.63,398.532 158.057,400.295 156.557,401.385 154.703,401.385 153.203,400.295 152.63,398.532 153.203,396.768 154.703,395.678 156.557,395.678 158.057,396.768" shape-rendering="crispEdges"/>
   <polyline fill="none" stroke-width="0.5" stroke="#fec834" points="158.63,398.532 158.057,400.295 156.557,401.385 154.703,401.385 153.203,400.295 152.63,398.532 153.203,396.768 154.703,395.678 156.557,395.678 158.057,396.768 158.63,398.532" stroke-linejoin="round" stroke-linecap="round"/>
   <polygon fill="#fec834" points="187.658,392.077 187.085,393.84 185.585,394.93 183.731,394.93 182.231,393.84 181.658,392.077 182.231,390.313 183.731,389.224 185.585,389.224 187.085,390.313" shape-rendering="crispEdges"/>
   <polyline fill="none" stroke-width="0.5" stroke="#fec834" points="187.658,392.077 187.085,393.84 185.585,394.93 183.731,394.93 182.231,393.84 181.658,392.077 182.231,390.313 183.731,389.224 185.585,389.224 187.085,390.313 187.658,392.077" stroke-linejoin="round" stroke-linecap="round"/>
   <polygon fill="#fec834" points="216.687,108.075 216.114,109.839 214.614,110.929 212.76,110.929 211.26,109.839 210.687,108.075 211.26,106.312 212.76,105.222 214.614,105.222 216.114,106.312" shape-rendering="crispEdges"/>
   <polyline fill="none" stroke-width="0.5" stroke="#fec834" points="216.687,108.075 216.114,109.839 214.614,110.929 212.76,110.929 211.26,109.839 210.687,108.075 211.26,106.312 212.76,105.222 214.614,105.222 216.114,106.312 216.687,108.075" stroke-linejoin="round" stroke-linecap="round"/>
   <polygon fill="#fec834" points="260.229,334.908 259.656,336.671 258.156,337.761 256.302,337.761 254.802,336.671 254.229,334.908 254.802,333.145 256.302,332.055 258.156,332.055 259.656,333.145" shape-rendering="crispEdges"/>
   <polyline fill="none" stroke-width="0.5" stroke="#fec834" points="260.229,334.908 259.656,336.671 258.156,337.761 256.302,337.761 254.802,336.671 254.229,334.908 254.802,333.145 256.302,332.055 258.156,332.055 259.656,333.145 260.229,334.908" stroke-linejoin="round" stroke-linecap="round"/>
   <polygon fill="#fec834" points="289.258,281.427 288.685,283.19 287.185,284.28 285.331,284.28 283.831,283.19 283.258,281.427 283.831,279.664 285.331,278.574 287.185,278.574 288.685,279.664" shape-rendering="crispEdges"/>
   <polyline fill="none" stroke-width="0.5" stroke="#fec834" points="289.258,281.427 288.685,283.19 287.185,284.28 285.331,284.28 283.831,283.19 283.258,281.427 283.831,279.664 285.331,278.574 287.185,278.574 288.685,279.664 289.258,281.427" stroke-linejoin="round" stroke-linecap="round"/>
   <polygon fill="#fec834" points="303.772,164.322 303.199,166.086 301.699,167.176 299.845,167.176 298.345,166.086 297.772,164.322 298.345,162.559 299.845,161.469 301.699,161.469 303.199,162.559" shape-rendering="crispEdges"/>
   <polyline fill="none" stroke-width="0.5" stroke="#fec834" points="303.772,164.322 303.199,166.086 301.699,167.176 299.845,167.176 298.345,166.086 297.772,164.322 298.345,162.559 299.845,161.469 301.699,161.469 303.199,162.559 303.772,164.322" stroke-linejoin="round" stroke-linecap="round"/>
   <polygon fill="#fec834" points="303.772,401.759 303.199,403.522 301.699,404.612 299.845,404.612 298.345,403.522 297.772,401.759 298.345,399.996 299.845,398.906 301.699,398.906 303.199,399.996" shape-rendering="crispEdges"/>
   <polyline fill="none" stroke-width="0.5" stroke="#fec834" points="303.772,401.759 303.199,403.522 301.699,404.612 299.845,404.612 298.345,403.522 297.772,401.759 298.345,399.996 299.845,398.906 301.699,398.906 303.199,399.996 303.772,401.759" stroke-linejoin="round" stroke-linecap="round"/>
   <polygon fill="#fec834" points="347.314,401.759 346.742,403.522 345.242,404.612 343.388,404.612 341.888,403.522 341.314,401.759 341.888,399.996 343.388,398.906 345.242,398.906 346.742,399.996" shape-rendering="crispEdges"/>
   <polyline fill="none" stroke-width="0.5" stroke="#fec834" points="347.314,401.759 346.742,403.522 345.242,404.612 343.388,404.612 341.888,403.522 341.314,401.759 341.888,399.996 343.388,398.906 345.242,398.906 346.742,399.996 347.314,401.759" stroke-linejoin="round" stroke-linecap="round"/>
   <polygon fill="#fec834" points="347.314,75.3413 346.742,77.105 345.242,78.1943 343.388,78.1943 341.888,77.105 341.314,75.3413 341.888,73.5781 343.388,72.4883 345.242,72.4883 346.742,73.5781" shape-rendering="crispEdges"/>
   <polyline fill="none" stroke-width="0.5" stroke="#fec834" points="347.314,75.3413 346.742,77.105 345.242,78.1943 343.388,78.1943 341.888,77.105 341.314,75.3413 341.888,73.5781 343.388,72.4883 345.242,72.4883 346.742,73.5781 347.314,75.3413" stroke-linejoin="round" stroke-linecap="round"/>
   <polygon fill="#fec834" points="361.829,394.382 361.256,396.146 359.756,397.235 357.902,397.235 356.402,396.146 355.829,394.382 356.402,392.619 357.902,391.529 359.756,391.529 361.256,392.619" shape-rendering="crispEdges"/>
   <polyline fill="none" stroke-width="0.5" stroke="#fec834" points="361.829,394.382 361.256,396.146 359.756,397.235 357.902,397.235 356.402,396.146 355.829,394.382 356.402,392.619 357.902,391.529 359.756,391.529 361.256,392.619 361.829,394.382" stroke-linejoin="round" stroke-linecap="round"/>
   <polygon fill="#fec834" points="361.829,94.7051 361.256,96.4688 359.756,97.5581 357.902,97.5581 356.402,96.4688 355.829,94.7051 356.402,92.9419 357.902,91.8521 359.756,91.8521 361.256,92.9419" shape-rendering="crispEdges"/>
   <polyline fill="none" stroke-width="0.5" stroke="#fec834" points="361.829,94.7051 361.256,96.4688 359.756,97.5581 357.902,97.5581 356.402,96.4688 355.829,94.7051 356.402,92.9419 357.902,91.8521 359.756,91.8521 361.256,92.9419 361.829,94.7051" stroke-linejoin="round" stroke-linecap="round"/>
   <polygon fill="#fec834" points="376.343,401.759 375.77,403.522 374.27,404.612 372.416,404.612 370.916,403.522 370.343,401.759 370.916,399.996 372.416,398.906 374.27,398.906 375.77,399.996" shape-rendering="crispEdges"/>
   <polyline fill="none" stroke-width="0.5" stroke="#fec834" points="376.343,401.759 375.77,403.522 374.27,404.612 372.416,404.612 370.916,403.522 370.343,401.759 370.916,399.996 372.416,398.906 374.27,398.906 375.77,399.996 376.343,401.759" stroke-linejoin="round" stroke-linecap="round"/>
   <polygon fill="#fec834" points="419.886,247.31 419.312,249.073 417.812,250.163 415.958,250.163 414.458,249.073 413.886,247.31 414.458,245.546 415.958,244.457 417.812,244.457 419.312,245.546" shape-rendering="crispEdges"/>
   <polyline fill="none" stroke-width="0.5" stroke="#fec834" points="419.886,247.31 419.312,249.073 417.812,250.163 415.958,250.163 414.458,249.073 413.886,247.31 414.458,245.546 415.958,244.457 417.812,244.457 419.312,245.546 419.886,247.31" stroke-linejoin="round" stroke-linecap="round"/>
   <polygon fill="#fec834" points="434.4,201.667 433.827,203.43 432.327,204.52 430.473,204.52 428.973,203.43 428.4,201.667 428.973,199.903 430.473,198.813 432.327,198.813 433.827,199.903" shape-rendering="crispEdges"/>
   <polyline fill="none" stroke-width="0.5" stroke="#fec834" points="434.4,201.667 433.827,203.43 432.327,204.52 430.473,204.52 428.973,203.43 428.4,201.667 428.973,199.903 430.473,198.813 432.327,198.813 433.827,199.903 434.4,201.667" stroke-linejoin="round" stroke-linecap="round"/>
   <polygon fill="#fec834" points="448.914,234.401 448.341,236.164 446.841,237.254 444.987,237.254 443.487,236.164 442.914,234.401 443.487,232.637 444.987,231.547 446.841,231.547 448.341,232.637" shape-rendering="crispEdges"/>
   <polyline fill="none" stroke-width="0.5" stroke="#fec834" points="448.914,234.401 448.341,236.164 446.841,237.254 444.987,237.254 443.487,236.164 442.914,234.401 443.487,232.637 444.987,231.547 446.841,231.547 448.341,232.637 448.914,234.401" stroke-linejoin="round" stroke-linecap="round"/>
   <polygon fill="#fec834" points="463.428,330.758 462.855,332.522 461.355,333.612 459.501,333.612 458.001,332.522 457.428,330.758 458.001,328.995 459.501,327.905 461.355,327.905 462.855,328.995" shape-rendering="crispEdges"/>
   <polyline fill="none" stroke-width="0.5" stroke="#fec834" points="463.428,330.758 462.855,332.522 461.355,333.612 459.501,333.612 458.001,332.522 457.428,330.758 458.001,328.995 459.501,327.905 461.355,327.905 462.855,328.995 463.428,330.758" stroke-linejoin="round" stroke-linecap="round"/>
   <polygon fill="#fec834" points="492.457,275.895 491.884,277.658 490.384,278.748 488.53,278.748 487.03,277.658 486.457,275.895 487.03,274.131 488.53,273.042 490.384,273.042 491.884,274.131" shape-rendering="crispEdges"/>
   <polyline fill="none" stroke-width="0.5" stroke="#fec834" points="492.457,275.895 491.884,277.658 490.384,278.748 488.53,278.748 487.03,277.658 486.457,275.895 487.03,274.131 488.53,273.042 490.384,273.042 491.884,274.131 492.457,275.895" stroke-linejoin="round" stroke-linecap="round"/>
   <polygon fill="#fec834" points="492.457,393.46 491.884,395.224 490.384,396.313 488.53,396.313 487.03,395.224 486.457,393.46 487.03,391.697 488.53,390.607 490.384,390.607 491.884,391.697" shape-rendering="crispEdges"/>
   <polyline fill="none" stroke-width="0.5" stroke="#fec834" points="492.457,393.46 491.884,395.224 490.384,396.313 488.53,396.313 487.03,395.224 486.457,393.46 487.03,391.697 488.53,390.607 490.384,390.607 491.884,391.697 492.457,393.46" stroke-linejoin="round" stroke-linecap="round"/>
   <polygon fill="#fec834" points="492.457,370.869 491.884,372.632 490.384,373.722 488.53,373.722 487.03,372.632 486.457,370.869 487.03,369.105 488.53,368.016 490.384,368.016 491.884,369.105" shape-rendering="crispEdges"/>
   <polyline fill="none" stroke-width="0.5" stroke="#fec834" points="492.457,370.869 491.884,372.632 490.384,373.722 488.53,373.722 487.03,372.632 486.457,370.869 487.03,369.105 488.53,368.016 490.384,368.016 491.884,369.105 492.457,370.869" stroke-linejoin="round" stroke-linecap="round"/>
   <polygon fill="#fec834" points="492.457,398.07 491.884,399.834 490.384,400.924 488.53,400.924 487.03,399.834 486.457,398.07 487.03,396.307 488.53,395.217 490.384,395.217 491.884,396.307" shape-rendering="crispEdges"/>
   <polyline fill="none" stroke-width="0.5" stroke="#fec834" points="492.457,398.07 491.884,399.834 490.384,400.924 488.53,400.924 487.03,399.834 486.457,398.07 487.03,396.307 488.53,395.217 490.384,395.217 491.884,396.307 492.457,398.07" stroke-linejoin="round" stroke-linecap="round"/>
   <polygon fill="#fec834" points="521.485,397.148 520.912,398.912 519.412,400.001 517.558,400.001 516.058,398.912 515.485,397.148 516.058,395.385 517.558,394.295 519.412,394.295 520.912,395.385" shape-rendering="crispEdges"/>
   <polyline fill="none" stroke-width="0.5" stroke="#fec834" points="521.485,397.148 520.912,398.912 519.412,400.001 517.558,400.001 516.058,398.912 515.485,397.148 516.058,395.385 517.558,394.295 519.412,394.295 520.912,395.385 521.485,397.148" stroke-linejoin="round" stroke-linecap="round"/>
   <polygon fill="#fec834" points="550.514,389.772 549.94,391.535 548.44,392.625 546.586,392.625 545.086,391.535 544.514,389.772 545.086,388.008 546.586,386.918 548.44,386.918 549.94,388.008" shape-rendering="crispEdges"/>
   <polyline fill="none" stroke-width="0.5" stroke="#fec834" points="550.514,389.772 549.94,391.535 548.44,392.625 546.586,392.625 545.086,391.535 544.514,389.772 545.086,388.008 546.586,386.918 548.44,386.918 549.94,388.008 550.514,389.772" stroke-linejoin="round" stroke-linecap="round"/>
   <polygon fill="#fec834" points="565.028,312.778 564.455,314.541 562.955,315.631 561.101,315.631 559.601,314.541 559.028,312.778 559.601,311.015 561.101,309.925 562.955,309.925 564.455,311.015" shape-rendering="crispEdges"/>
   <polyline fill="none" stroke-width="0.5" stroke="#fec834" points="565.028,312.778 564.455,314.541 562.955,315.631 561.101,315.631 559.601,314.541 559.028,312.778 559.601,311.015 561.101,309.925 562.955,309.925 564.455,311.015 565.028,312.778" stroke-linejoin="round" stroke-linecap="round"/>
   <polygon fill="#fec834" points="565.028,369.486 564.455,371.25 562.955,372.339 561.101,372.339 559.601,371.25 559.028,369.486 559.601,367.723 561.101,366.633 562.955,366.633 564.455,367.723" shape-rendering="crispEdges"/>
   <polyline fill="none" stroke-width="0.5" stroke="#fec834" points="565.028,369.486 564.455,371.25 562.955,372.339 561.101,372.339 559.601,371.25 559.028,369.486 559.601,367.723 561.101,366.633 562.955,366.633 564.455,367.723 565.028,369.486" stroke-linejoin="round" stroke-linecap="round"/>
   <polygon fill="#fec834" points="608.57,393.921 607.997,395.685 606.497,396.774 604.643,396.774 603.143,395.685 602.57,393.921 603.143,392.158 604.643,391.068 606.497,391.068 607.997,392.158" shape-rendering="crispEdges"/>
   <polyline fill="none" stroke-width="0.5" stroke="#fec834" points="608.57,393.921 607.997,395.685 606.497,396.774 604.643,396.774 603.143,395.685 602.57,393.921 603.143,392.158 604.643,391.068 606.497,391.068 607.997,392.158 608.57,393.921" stroke-linejoin="round" stroke-linecap="round"/>
   <polygon fill="#fec834" points="652.113,227.485 651.54,229.249 650.04,230.338 648.186,230.338 646.686,229.249 646.113,227.485 646.686,225.722 648.186,224.632 650.04,224.632 651.54,225.722" shape-rendering="crispEdges"/>
   <polyline fill="none" stroke-width="0.5" stroke="#fec834" points="652.113,227.485 651.54,229.249 650.04,230.338 648.186,230.338 646.686,229.249 646.113,227.485 646.686,225.722 648.186,224.632 650.04,224.632 651.54,225.722 652.113,227.485" stroke-linejoin="round" stroke-linecap="round"/>
   <polygon fill="#fec834" points="666.627,140.809 666.054,142.573 664.554,143.663 662.7,143.663 661.2,142.573 660.627,140.809 661.2,139.046 662.7,137.956 664.554,137.956 666.054,139.046" shape-rendering="crispEdges"/>
   <polyline fill="none" stroke-width="0.5" stroke="#fec834" points="666.627,140.809 666.054,142.573 664.554,143.663 662.7,143.663 661.2,142.573 660.627,140.809 661.2,139.046 662.7,137.956 664.554,137.956 666.054,139.046 666.627,140.809" stroke-linejoin="round" stroke-linecap="round"/>
   <polygon fill="#fec834" points="666.627,192.907 666.054,194.67 664.554,195.76 662.7,195.76 661.2,194.67 660.627,192.907 661.2,191.144 662.7,190.054 664.554,190.054 666.054,191.144" shape-rendering="crispEdges"/>
   <polyline fill="none" stroke-width="0.5" stroke="#fec834" points="666.627,192.907 666.054,194.67 664.554,195.76 662.7,195.76 661.2,194.67 660.627,192.907 661.2,191.144 662.7,190.054 664.554,190.054 666.054,191.144 666.627,192.907" stroke-linejoin="round" stroke-linecap="round"/>
   <polygon fill="#fec834" points="695.656,269.901 695.083,271.665 693.583,272.754 691.729,272.754 690.229,271.665 689.656,269.901 690.229,268.138 691.729,267.048 693.583,267.048 695.083,268.138" shape-rendering="crispEdges"/>
   <polyline fill="none" stroke-width="0.5" stroke="#fec834" points="695.656,269.901 695.083,271.665 693.583,272.754 691.729,272.754 690.229,271.665 689.656,269.901 690.229,268.138 691.729,267.048 693.583,267.048 695.083,268.138 695.656,269.901" stroke-linejoin="round" stroke-linecap="round"/>
   <polygon fill="#fec834" points="724.684,391.155 724.111,392.918 722.611,394.008 720.757,394.008 719.257,392.918 718.684,391.155 719.257,389.392 720.757,388.302 722.611,388.302 724.111,389.392" shape-rendering="crispEdges"/>
   <polyline fill="none" stroke-width="0.5" stroke="#fec834" points="724.684,391.155 724.111,392.918 722.611,394.008 720.757,394.008 719.257,392.918 718.684,391.155 719.257,389.392 720.757,388.302 722.611,388.302 724.111,389.392 724.684,391.155" stroke-linejoin="round" stroke-linecap="round"/>
   <polygon fill="#fec834" points="739.198,401.759 738.625,403.522 737.125,404.612 735.271,404.612 733.771,403.522 733.198,401.759 733.771,399.996 735.271,398.906 737.125,398.906 738.625,399.996" shape-rendering="crispEdges"/>
   <polyline fill="none" stroke-width="0.5" stroke="#fec834" points="739.198,401.759 738.625,403.522 737.125,404.612 735.271,404.612 733.771,403.522 733.198,401.759 733.771,399.996 735.271,398.906 737.125,398.906 738.625,399.996 739.198,401.759" stroke-linejoin="round" stroke-linecap="round"/>
   <polygon fill="#fec834" points="753.712,389.772 753.14,391.535 751.64,392.625 749.785,392.625 748.285,391.535 747.712,389.772 748.285,388.008 749.785,386.918 751.64,386.918 753.14,388.008" shape-rendering="crispEdges"/>
   <polyline fill="none" stroke-width="0.5" stroke="#fec834" points="753.712,389.772 753.14,391.535 751.64,392.625 749.785,392.625 748.285,391.535 747.712,389.772 748.285,388.008 749.785,386.918 751.64,386.918 753.14,388.008 753.712,389.772" stroke-linejoin="round" stroke-linecap="round"/>
   <polygon fill="#fec834" points="797.255,385.161 796.682,386.925 795.182,388.015 793.328,388.015 791.828,386.925 791.255,385.161 791.828,383.398 793.328,382.308 795.182,382.308 796.682,383.398" shape-rendering="crispEdges"/>
   <polyline fill="none" stroke-width="0.5" stroke="#fec834" points="797.255,385.161 796.682,386.925 795.182,388.015 793.328,388.015 791.828,386.925 791.255,385.161 791.828,383.398 793.328,382.308 795.182,382.308 796.682,383.398 797.255,385.161" stroke-linejoin="round" stroke-linecap="round"/>
   <polygon fill="#fec834" points="826.284,388.85 825.71,390.613 824.21,391.703 822.356,391.703 820.856,390.613 820.283,388.85 820.856,387.086 822.356,385.997 824.21,385.997 825.71,387.086" shape-rendering="crispEdges"/>
   <polyline fill="none" stroke-width="0.5" stroke="#fec834" points="826.284,388.85 825.71,390.613 824.21,391.703 822.356,391.703 820.856,390.613 820.283,388.85 820.856,387.086 822.356,385.997 824.21,385.997 825.71,387.086 826.284,388.85" stroke-linejoin="round" stroke-linecap="round"/>
   <polygon fill="#fec834" points="869.826,398.532 869.253,400.295 867.753,401.385 865.899,401.385 864.399,400.295 863.826,398.532 864.399,396.768 865.899,395.678 867.753,395.678 869.253,396.768" shape-rendering="crispEdges"/>
   <polyline fill="none" stroke-width="0.5" stroke="#fec834" points="869.826,398.532 869.253,400.295 867.753,401.385 865.899,401.385 864.399,400.295 863.826,398.532 864.399,396.768 865.899,395.678 867.753,395.678 869.253,396.768 869.826,398.532" stroke-linejoin="round" stroke-linecap="round"/>
   <polygon fill="#fec834" points="884.34,333.986 883.768,335.749 882.268,336.839 880.413,336.839 878.913,335.749 878.34,333.986 878.913,332.222 880.413,331.133 882.268,331.133 883.768,332.222" shape-rendering="crispEdges"/>
   <polyline fill="none" stroke-width="0.5" stroke="#fec834" points="884.34,333.986 883.768,335.749 882.268,336.839 880.413,336.839 878.913,335.749 878.34,333.986 878.913,332.222 880.413,331.133 882.268,331.133 883.768,332.222 884.34,333.986" stroke-linejoin="round" stroke-linecap="round"/>
   <polygon fill="#8bca50" points="129.602,379.629 129.028,381.392 127.528,382.482 125.674,382.482 124.174,381.392 123.602,379.629 124.174,377.866 125.674,376.776 127.528,376.776 129.028,377.866" shape-rendering="crispEdges"/>
   <polyline fill="none" stroke-width="0.5" stroke="#8bca50" points="129.602,379.629 129.028,381.392 127.528,382.482 125.674,382.482 124.174,381.392 123.602,379.629 124.174,377.866 125.674,376.776 127.528,376.776 129.028,377.866 129.602,379.629" stroke-linejoin="round" stroke-linecap="round"/>
   <polygon fill="#8bca50" points="144.116,249.154 143.542,250.917 142.042,252.007 140.188,252.007 138.688,250.917 138.116,249.154 138.688,247.391 140.188,246.301 142.042,246.301 143.542,247.391" shape-rendering="crispEdges"/>
   <polyline fill="none" stroke-width="0.5" stroke="#8bca50" points="144.116,249.154 143.542,250.917 142.042,252.007 140.188,252.007 138.688,250.917 138.116,249.154 138.688,247.391 140.188,246.301 142.042,246.301 143.542,247.391 144.116,249.154" stroke-linejoin="round" stroke-linecap="round"/>
   <polygon fill="#8bca50" points="158.63,188.758 158.057,190.521 156.557,191.611 154.703,191.611 153.203,190.521 152.63,188.758 153.203,186.994 154.703,185.904 156.557,185.904 158.057,186.994" shape-rendering="crispEdges"/>
   <polyline fill="none" stroke-width="0.5" stroke="#8bca50" points="158.63,188.758 158.057,190.521 156.557,191.611 154.703,191.611 153.203,190.521 152.63,188.758 153.203,186.994 154.703,185.904 156.557,185.904 158.057,186.994 158.63,188.758" stroke-linejoin="round" stroke-linecap="round"/>
   <polygon fill="#8bca50" points="158.63,370.408 158.057,372.171 156.557,373.261 154.703,373.261 153.203,372.171 152.63,370.408 153.203,368.645 154.703,367.555 156.557,367.555 158.057,368.645" shape-rendering="crispEdges"/>
   <polyline fill="none" stroke-width="0.5" stroke="#8bca50" points="158.63,370.408 158.057,372.171 156.557,373.261 154.703,373.261 153.203,372.171 152.63,370.408 153.203,368.645 154.703,367.555 156.557,367.555 158.057,368.645 158.63,370.408" stroke-linejoin="round" stroke-linecap="round"/>
   <polygon fill="#8bca50" points="158.63,368.103 158.057,369.866 156.557,370.956 154.703,370.956 153.203,369.866 152.63,368.103 153.203,366.339 154.703,365.25 156.557,365.25 158.057,366.339" shape-rendering="crispEdges"/>
   <polyline fill="none" stroke-width="0.5" stroke="#8bca50" points="158.63,368.103 158.057,369.866 156.557,370.956 154.703,370.956 153.203,369.866 152.63,368.103 153.203,366.339 154.703,365.25 156.557,365.25 158.057,366.339 158.63,368.103" stroke-linejoin="round" stroke-linecap="round"/>
   <polygon fill="#8bca50" points="187.658,364.415 187.085,366.178 185.585,367.268 183.731,367.268 182.231,366.178 181.658,364.415 182.231,362.651 183.731,361.562 185.585,361.562 187.085,362.651" shape-rendering="crispEdges"/>
   <polyline fill="none" stroke-width="0.5" stroke="#8bca50" points="187.658,364.415 187.085,366.178 185.585,367.268 183.731,367.268 182.231,366.178 181.658,364.415 182.231,362.651 183.731,361.562 185.585,361.562 187.085,362.651 187.658,364.415" stroke-linejoin="round" stroke-linecap="round"/>
   <polygon fill="#8bca50" points="216.687,85.9453 216.114,87.7085 214.614,88.7983 212.76,88.7983 211.26,87.7085 210.687,85.9453 211.26,84.1821 212.76,83.0923 214.614,83.0923 216.114,84.1821" shape-rendering="crispEdges"/>
   <polyline fill="none" stroke-width="0.5" stroke="#8bca50" points="216.687,85.9453 216.114,87.7085 214.614,88.7983 212.76,88.7983 211.26,87.7085 210.687,85.9453 211.26,84.1821 212.76,83.0923 214.614,83.0923 216.114,84.1821 216.687,85.9453" stroke-linejoin="round" stroke-linecap="round"/>
   <polygon fill="#8bca50" points="260.229,185.53 259.656,187.293 258.156,188.383 256.302,188.383 254.802,187.293 254.229,185.53 254.802,183.767 256.302,182.677 258.156,182.677 259.656,183.767" shape-rendering="crispEdges"/>
   <polyline fill="none" stroke-width="0.5" stroke="#8bca50" points="260.229,185.53 259.656,187.293 258.156,188.383 256.302,188.383 254.802,187.293 254.229,185.53 254.802,183.767 256.302,182.677 258.156,182.677 259.656,183.767 260.229,185.53" stroke-linejoin="round" stroke-linecap="round"/>
   <polygon fill="#8bca50" points="289.258,181.381 288.685,183.145 287.185,184.234 285.331,184.234 283.831,183.145 283.258,181.381 283.831,179.618 285.331,178.528 287.185,178.528 288.685,179.618" shape-rendering="crispEdges"/>
   <polyline fill="none" stroke-width="0.5" stroke="#8bca50" points="289.258,181.381 288.685,183.145 287.185,184.234 285.331,184.234 283.831,183.145 283.258,181.381 283.831,179.618 285.331,178.528 287.185,178.528 288.685,179.618 289.258,181.381" stroke-linejoin="round" stroke-linecap="round"/>
   <polygon fill="#8bca50" points="303.772,88.2505 303.199,90.0137 301.699,91.1035 299.845,91.1035 298.345,90.0137 297.772,88.2505 298.345,86.4873 299.845,85.3975 301.699,85.3975 303.199,86.4873" shape-rendering="crispEdges"/>
   <polyline fill="none" stroke-width="0.5" stroke="#8bca50" points="303.772,88.2505 303.199,90.0137 301.699,91.1035 299.845,91.1035 298.345,90.0137 297.772,88.2505 298.345,86.4873 299.845,85.3975 301.699,85.3975 303.199,86.4873 303.772,88.2505" stroke-linejoin="round" stroke-linecap="round"/>
   <polygon fill="#8bca50" points="303.772,354.732 303.199,356.496 301.699,357.586 299.845,357.586 298.345,356.496 297.772,354.732 298.345,352.969 299.845,351.879 301.699,351.879 303.199,352.969" shape-rendering="crispEdges"/>
   <polyline fill="none" stroke-width="0.5" stroke="#8bca50" points="303.772,354.732 303.199,356.496 301.699,357.586 299.845,357.586 298.345,356.496 297.772,354.732 298.345,352.969 299.845,351.879 301.699,351.879 303.199,352.969 303.772,354.732" stroke-linejoin="round" stroke-linecap="round"/>
   <polygon fill="#8bca50" points="347.314,355.194 346.742,356.957 345.242,358.047 343.388,358.047 341.888,356.957 341.314,355.194 341.888,353.43 343.388,352.34 345.242,352.34 346.742,353.43" shape-rendering="crispEdges"/>
   <polyline fill="none" stroke-width="0.5" stroke="#8bca50" points="347.314,355.194 346.742,356.957 345.242,358.047 343.388,358.047 341.888,356.957 341.314,355.194 341.888,353.43 343.388,352.34 345.242,352.34 346.742,353.43 347.314,355.194" stroke-linejoin="round" stroke-linecap="round"/>
   <polygon fill="#8bca50" points="347.314,84.1011 346.742,85.8647 345.242,86.9541 343.388,86.9541 341.888,85.8647 341.314,84.1011 341.888,82.3379 343.388,81.248 345.242,81.248 346.742,82.3379" shape-rendering="crispEdges"/>
   <polyline fill="none" stroke-width="0.5" stroke="#8bca50" points="347.314,84.1011 346.742,85.8647 345.242,86.9541 343.388,86.9541 341.888,85.8647 341.314,84.1011 341.888,82.3379 343.388,81.248 345.242,81.248 346.742,82.3379 347.314,84.1011" stroke-linejoin="round" stroke-linecap="round"/>
   <polygon fill="#8bca50" points="361.829,346.434 361.256,348.197 359.756,349.287 357.902,349.287 356.402,348.197 355.829,346.434 356.402,344.67 357.902,343.581 359.756,343.581 361.256,344.67" shape-rendering="crispEdges"/>
   <polyline fill="none" stroke-width="0.5" stroke="#8bca50" points="361.829,346.434 361.256,348.197 359.756,349.287 357.902,349.287 356.402,348.197 355.829,346.434 356.402,344.67 357.902,343.581 359.756,343.581 361.256,344.67 361.829,346.434" stroke-linejoin="round" stroke-linecap="round"/>
   <polygon fill="#8bca50" points="361.829,81.7959 361.256,83.5596 359.756,84.6489 357.902,84.6489 356.402,83.5596 355.829,81.7959 356.402,80.0327 357.902,78.9429 359.756,78.9429 361.256,80.0327" shape-rendering="crispEdges"/>
   <polyline fill="none" stroke-width="0.5" stroke="#8bca50" points="361.829,81.7959 361.256,83.5596 359.756,84.6489 357.902,84.6489 356.402,83.5596 355.829,81.7959 356.402,80.0327 357.902,78.9429 359.756,78.9429 361.256,80.0327 361.829,81.7959" stroke-linejoin="round" stroke-linecap="round"/>
   <polygon fill="#8bca50" points="376.343,344.59 375.77,346.353 374.27,347.443 372.416,347.443 370.916,346.353 370.343,344.59 370.916,342.826 372.416,341.736 374.27,341.736 375.77,342.826" shape-rendering="crispEdges"/>
   <polyline fill="none" stroke-width="0.5" stroke="#8bca50" points="376.343,344.59 375.77,346.353 374.27,347.443 372.416,347.443 370.916,346.353 370.343,344.59 370.916,342.826 372.416,341.736 374.27,341.736 375.77,342.826 376.343,344.59" stroke-linejoin="round" stroke-linecap="round"/>
   <polygon fill="#8bca50" points="419.886,117.757 419.312,119.521 417.812,120.61 415.958,120.61 414.458,119.521 413.886,117.757 414.458,115.994 415.958,114.904 417.812,114.904 419.312,115.994" shape-rendering="crispEdges"/>
   <polyline fill="none" stroke-width="0.5" stroke="#8bca50" points="419.886,117.757 419.312,119.521 417.812,120.61 415.958,120.61 414.458,119.521 413.886,117.757 414.458,115.994 415.958,114.904 417.812,114.904 419.312,115.994 419.886,117.757" stroke-linejoin="round" stroke-linecap="round"/>
   <polygon fill="#8bca50" points="434.4,84.562 433.827,86.3257 432.327,87.4155 430.473,87.4155 428.973,86.3257 428.4,84.562 428.973,82.7988 430.473,81.709 432.327,81.709 433.827,82.7988" shape-rendering="crispEdges"/>
   <polyline fill="none" stroke-width="0.5" stroke="#8bca50" points="434.4,84.562 433.827,86.3257 432.327,87.4155 430.473,87.4155 428.973,86.3257 428.4,84.562 428.973,82.7988 430.473,81.709 432.327,81.709 433.827,82.7988 434.4,84.562" stroke-linejoin="round" stroke-linecap="round"/>
   <polygon fill="#8bca50" points="448.914,112.225 448.341,113.988 446.841,115.078 444.987,115.078 443.487,113.988 442.914,112.225 443.487,110.461 444.987,109.372 446.841,109.372 448.341,110.461" shape-rendering="crispEdges"/>
   <polyline fill="none" stroke-width="0.5" stroke="#8bca50" points="448.914,112.225 448.341,113.988 446.841,115.078 444.987,115.078 443.487,113.988 442.914,112.225 443.487,110.461 444.987,109.372 446.841,109.372 448.341,110.461 448.914,112.225" stroke-linejoin="round" stroke-linecap="round"/>
   <polygon fill="#8bca50" points="463.428,162.939 462.855,164.703 461.355,165.792 459.501,165.792 458.001,164.703 457.428,162.939 458.001,161.176 459.501,160.086 461.355,160.086 462.855,161.176" shape-rendering="crispEdges"/>
   <polyline fill="none" stroke-width="0.5" stroke="#8bca50" points="463.428,162.939 462.855,164.703 461.355,165.792 459.501,165.792 458.001,164.703 457.428,162.939 458.001,161.176 459.501,160.086 461.355,160.086 462.855,161.176 463.428,162.939" stroke-linejoin="round" stroke-linecap="round"/>
   <polygon fill="#8bca50" points="492.457,114.991 491.884,116.754 490.384,117.844 488.53,117.844 487.03,116.754 486.457,114.991 487.03,113.228 488.53,112.138 490.384,112.138 491.884,113.228" shape-rendering="crispEdges"/>
   <polyline fill="none" stroke-width="0.5" stroke="#8bca50" points="492.457,114.991 491.884,116.754 490.384,117.844 488.53,117.844 487.03,116.754 486.457,114.991 487.03,113.228 488.53,112.138 490.384,112.138 491.884,113.228 492.457,114.991" stroke-linejoin="round" stroke-linecap="round"/>
   <polygon fill="#8bca50" points="492.457,326.148 491.884,327.911 490.384,329.001 488.53,329.001 487.03,327.911 486.457,326.148 487.03,324.385 488.53,323.295 490.384,323.295 491.884,324.385" shape-rendering="crispEdges"/>
   <polyline fill="none" stroke-width="0.5" stroke="#8bca50" points="492.457,326.148 491.884,327.911 490.384,329.001 488.53,329.001 487.03,327.911 486.457,326.148 487.03,324.385 488.53,323.295 490.384,323.295 491.884,324.385 492.457,326.148" stroke-linejoin="round" stroke-linecap="round"/>
   <polygon fill="#8bca50" points="492.457,321.077 491.884,322.84 490.384,323.93 488.53,323.93 487.03,322.84 486.457,321.077 487.03,319.313 488.53,318.224 490.384,318.224 491.884,319.313" shape-rendering="crispEdges"/>
   <polyline fill="none" stroke-width="0.5" stroke="#8bca50" points="492.457,321.077 491.884,322.84 490.384,323.93 488.53,323.93 487.03,322.84 486.457,321.077 487.03,319.313 488.53,318.224 490.384,318.224 491.884,319.313 492.457,321.077" stroke-linejoin="round" stroke-linecap="round"/>
   <polygon fill="#8bca50" points="492.457,321.077 491.884,322.84 490.384,323.93 488.53,323.93 487.03,322.84 486.457,321.077 487.03,319.313 488.53,318.224 490.384,318.224 491.884,319.313" shape-rendering="crispEdges"/>
   <polyline fill="none" stroke-width="0.5" stroke="#8bca50" points="492.457,321.077 491.884,322.84 490.384,323.93 488.53,323.93 487.03,322.84 486.457,321.077 487.03,319.313 488.53,318.224 490.384,318.224 491.884,319.313 492.457,321.077" stroke-linejoin="round" stroke-linecap="round"/>
   <polygon fill="#8bca50" points="521.485,320.154 520.912,321.918 519.412,323.008 517.558,323.008 516.058,321.918 515.485,320.154 516.058,318.391 517.558,317.301 519.412,317.301 520.912,318.391" shape-rendering="crispEdges"/>
   <polyline fill="none" stroke-width="0.5" stroke="#8bca50" points="521.485,320.154 520.912,321.918 519.412,323.008 517.558,323.008 516.058,321.918 515.485,320.154 516.058,318.391 517.558,317.301 519.412,317.301 520.912,318.391 521.485,320.154" stroke-linejoin="round" stroke-linecap="round"/>
   <polygon fill="#8bca50" points="550.514,318.311 549.94,320.074 548.44,321.164 546.586,321.164 545.086,320.074 544.514,318.311 545.086,316.547 546.586,315.457 548.44,315.457 549.94,316.547" shape-rendering="crispEdges"/>
   <polyline fill="none" stroke-width="0.5" stroke="#8bca50" points="550.514,318.311 549.94,320.074 548.44,321.164 546.586,321.164 545.086,320.074 544.514,318.311 545.086,316.547 546.586,315.457 548.44,315.457 549.94,316.547 550.514,318.311" stroke-linejoin="round" stroke-linecap="round"/>
   <polygon fill="#8bca50" points="565.028,158.79 564.455,160.553 562.955,161.643 561.101,161.643 559.601,160.553 559.028,158.79 559.601,157.026 561.101,155.937 562.955,155.937 564.455,157.026" shape-rendering="crispEdges"/>
   <polyline fill="none" stroke-width="0.5" stroke="#8bca50" points="565.028,158.79 564.455,160.553 562.955,161.643 561.101,161.643 559.601,160.553 559.028,158.79 559.601,157.026 561.101,155.937 562.955,155.937 564.455,157.026 565.028,158.79" stroke-linejoin="round" stroke-linecap="round"/>
   <polygon fill="#8bca50" points="565.028,310.012 564.455,311.775 562.955,312.865 561.101,312.865 559.601,311.775 559.028,310.012 559.601,308.248 561.101,307.158 562.955,307.158 564.455,308.248" shape-rendering="crispEdges"/>
   <polyline fill="none" stroke-width="0.5" stroke="#8bca50" points="565.028,310.012 564.455,311.775 562.955,312.865 561.101,312.865 559.601,311.775 559.028,310.012 559.601,308.248 561.101,307.158 562.955,307.158 564.455,308.248 565.028,310.012" stroke-linejoin="round" stroke-linecap="round"/>
   <polygon fill="#8bca50" points="608.57,310.473 607.997,312.236 606.497,313.326 604.643,313.326 603.143,312.236 602.57,310.473 603.143,308.709 604.643,307.62 606.497,307.62 607.997,308.709" shape-rendering="crispEdges"/>
   <polyline fill="none" stroke-width="0.5" stroke="#8bca50" points="608.57,310.473 607.997,312.236 606.497,313.326 604.643,313.326 603.143,312.236 602.57,310.473 603.143,308.709 604.643,307.62 606.497,307.62 607.997,308.709 608.57,310.473" stroke-linejoin="round" stroke-linecap="round"/>
   <polygon fill="#8bca50" points="652.113,115.913 651.54,117.676 650.04,118.766 648.186,118.766 646.686,117.676 646.113,115.913 646.686,114.15 648.186,113.06 650.04,113.06 651.54,114.15" shape-rendering="crispEdges"/>
   <polyline fill="none" stroke-width="0.5" stroke="#8bca50" points="652.113,115.913 651.54,117.676 650.04,118.766 648.186,118.766 646.686,117.676 646.113,115.913 646.686,114.15 648.186,113.06 650.04,113.06 651.54,114.15 652.113,115.913" stroke-linejoin="round" stroke-linecap="round"/>
   <polygon fill="#8bca50" points="666.627,87.7896 666.054,89.5527 664.554,90.6426 662.7,90.6426 661.2,89.5527 660.627,87.7896 661.2,86.0264 662.7,84.9365 664.554,84.9365 666.054,86.0264" shape-rendering="crispEdges"/>
   <polyline fill="none" stroke-width="0.5" stroke="#8bca50" points="666.627,87.7896 666.054,89.5527 664.554,90.6426 662.7,90.6426 661.2,89.5527 660.627,87.7896 661.2,86.0264 662.7,84.9365 664.554,84.9365 666.054,86.0264 666.627,87.7896" stroke-linejoin="round" stroke-linecap="round"/>
   <polygon fill="#8bca50" points="666.627,87.7896 666.054,89.5527 664.554,90.6426 662.7,90.6426 661.2,89.5527 660.627,87.7896 661.2,86.0264 662.7,84.9365 664.554,84.9365 666.054,86.0264" shape-rendering="crispEdges"/>
   <polyline fill="none" stroke-width="0.5" stroke="#8bca50" points="666.627,87.7896 666.054,89.5527 664.554,90.6426 662.7,90.6426 661.2,89.5527 660.627,87.7896 661.2,86.0264 662.7,84.9365 664.554,84.9365 666.054,86.0264 666.627,87.7896" stroke-linejoin="round" stroke-linecap="round"/>
   <polygon fill="#8bca50" points="695.656,110.38 695.083,112.144 693.583,113.234 691.729,113.234 690.229,112.144 689.656,110.38 690.229,108.617 691.729,107.527 693.583,107.527 695.083,108.617" shape-rendering="crispEdges"/>
   <polyline fill="none" stroke-width="0.5" stroke="#8bca50" points="695.656,110.38 695.083,112.144 693.583,113.234 691.729,113.234 690.229,112.144 689.656,110.38 690.229,108.617 691.729,107.527 693.583,107.527 695.083,108.617 695.656,110.38" stroke-linejoin="round" stroke-linecap="round"/>
   <polygon fill="#8bca50" points="724.684,297.103 724.111,298.866 722.611,299.956 720.757,299.956 719.257,298.866 718.684,297.103 719.257,295.339 720.757,294.249 722.611,294.249 724.111,295.339" shape-rendering="crispEdges"/>
   <polyline fill="none" stroke-width="0.5" stroke="#8bca50" points="724.684,297.103 724.111,298.866 722.611,299.956 720.757,299.956 719.257,298.866 718.684,297.103 719.257,295.339 720.757,294.249 722.611,294.249 724.111,295.339 724.684,297.103" stroke-linejoin="round" stroke-linecap="round"/>
   <polygon fill="#8bca50" points="739.198,298.024 738.625,299.788 737.125,300.877 735.271,300.877 733.771,299.788 733.198,298.024 733.771,296.261 735.271,295.171 737.125,295.171 738.625,296.261" shape-rendering="crispEdges"/>
   <polyline fill="none" stroke-width="0.5" stroke="#8bca50" points="739.198,298.024 738.625,299.788 737.125,300.877 735.271,300.877 733.771,299.788 733.198,298.024 733.771,296.261 735.271,295.171 737.125,295.171 738.625,296.261 739.198,298.024" stroke-linejoin="round" stroke-linecap="round"/>
   <polygon fill="#8bca50" points="753.712,294.797 753.14,296.561 751.64,297.65 749.785,297.65 748.285,296.561 747.712,294.797 748.285,293.034 749.785,291.944 751.64,291.944 753.14,293.034" shape-rendering="crispEdges"/>
   <polyline fill="none" stroke-width="0.5" stroke="#8bca50" points="753.712,294.797 753.14,296.561 751.64,297.65 749.785,297.65 748.285,296.561 747.712,294.797 748.285,293.034 749.785,291.944 751.64,291.944 753.14,293.034 753.712,294.797" stroke-linejoin="round" stroke-linecap="round"/>
   <polygon fill="#8bca50" points="797.255,292.953 796.682,294.716 795.182,295.806 793.328,295.806 791.828,294.716 791.255,292.953 791.828,291.189 793.328,290.1 795.182,290.1 796.682,291.189" shape-rendering="crispEdges"/>
   <polyline fill="none" stroke-width="0.5" stroke="#8bca50" points="797.255,292.953 796.682,294.716 795.182,295.806 793.328,295.806 791.828,294.716 791.255,292.953 791.828,291.189 793.328,290.1 795.182,290.1 796.682,291.189 797.255,292.953" stroke-linejoin="round" stroke-linecap="round"/>
   <polygon fill="#8bca50" points="826.284,291.109 825.71,292.872 824.21,293.962 822.356,293.962 820.856,292.872 820.283,291.109 820.856,289.346 822.356,288.256 824.21,288.256 825.71,289.346" shape-rendering="crispEdges"/>
   <polyline fill="none" stroke-width="0.5" stroke="#8bca50" points="826.284,291.109 825.71,292.872 824.21,293.962 822.356,293.962 820.856,292.872 820.283,291.109 820.856,289.346 822.356,288.256 824.21,288.256 825.71,289.346 826.284,291.109" stroke-linejoin="round" stroke-linecap="round"/>
   <polygon fill="#8bca50" points="869.826,291.57 869.253,293.333 867.753,294.423 865.899,294.423 864.399,293.333 863.826,291.57 864.399,289.807 865.899,288.717 867.753,288.717 869.253,289.807" shape-rendering="crispEdges"/>
   <polyline fill="none" stroke-width="0.5" stroke="#8bca50" points="869.826,291.57 869.253,293.333 867.753,294.423 865.899,294.423 864.399,293.333 863.826,291.57 864.399,289.807 865.899,288.717 867.753,288.717 869.253,289.807 869.826,291.57" stroke-linejoin="round" stroke-linecap="round"/>
   <polygon fill="#8bca50" points="884.34,151.875 883.768,153.638 882.268,154.728 880.413,154.728 878.913,153.638 878.34,151.875 878.913,150.111 880.413,149.021 882.268,149.021 883.768,150.111" shape-rendering="crispEdges"/>
   <polyline fill="none" stroke-width="0.5" stroke="#8bca50" points="884.34,151.875 883.768,153.638 882.268,154.728 880.413,154.728 878.913,153.638 878.34,151.875 878.913,150.111 880.413,149.021 882.268,149.021 883.768,150.111 884.34,151.875" stroke-linejoin="round" stroke-linecap="round"/>
  </g>
  <clipPath id="cp00973463">
   <polygon points="0,463 973,463 973,0 0,0"/>
  </clipPath>
  <g clip-path="url(#cp00973463)">
   <polygon fill="#ffffff" points="138.431,144.782 377.748,144.782 377.748,46.5991 138.431,46.5991" shape-rendering="crispEdges"/>
   <polyline fill="none" stroke-width="0.5" stroke="#262626" points="138.431,144.782 377.748,144.782" stroke-linejoin="miter" stroke-dasharray="16,0" stroke-linecap="square"/>
   <polyline fill="none" stroke-width="0.5" stroke="#262626" points="138.431,46.5991 377.748,46.5991" stroke-linejoin="miter" stroke-dasharray="16,0" stroke-linecap="square"/>
   <polyline fill="none" stroke-width="0.5" stroke="#262626" points="138.431,144.782 138.431,46.5991" stroke-linejoin="miter" stroke-dasharray="16,0" stroke-linecap="square"/>
   <polyline fill="none" stroke-width="0.5" stroke="#262626" points="377.748,144.782 377.748,46.5991" stroke-linejoin="miter" stroke-dasharray="16,0" stroke-linecap="square"/>
   <polygon fill="#2d88f5" points="162.132,64.9346 161.559,66.6978 160.059,67.7876 158.205,67.7876 156.705,66.6978 156.132,64.9346 156.705,63.1709 158.205,62.0811 160.059,62.0811 161.559,63.1709" shape-rendering="crispEdges"/>
   <polyline fill="none" stroke-width="0.5" stroke="#2d88f5" points="162.132,64.9346 161.559,66.6978 160.059,67.7876 158.205,67.7876 156.705,66.6978 156.132,64.9346 156.705,63.1709 158.205,62.0811 160.059,62.0811 161.559,63.1709 162.132,64.9346" stroke-linejoin="round" stroke-linecap="round"/>
   <g font-size="18" font-style="normal" font-family="'CMU Serif'" font-weight="normal" transform="translate(179.833,71.4343) rotate(-0,-0,-6.5)" xml:space="preserve">
    <text fill="rgb(0,0,0)" x="0 12 25 37 " y="-0">FCFS</text>
   </g>
   <polygon fill="#fec834" points="162.132,95.6904 161.559,97.4536 160.059,98.5435 158.205,98.5435 156.705,97.4536 156.132,95.6904 156.705,93.9272 158.205,92.8374 160.059,92.8374 161.559,93.9272" shape-rendering="crispEdges"/>
   <polyline fill="none" stroke-width="0.5" stroke="#fec834" points="162.132,95.6904 161.559,97.4536 160.059,98.5435 158.205,98.5435 156.705,97.4536 156.132,95.6904 156.705,93.9272 158.205,92.8374 160.059,92.8374 161.559,93.9272 162.132,95.6904" stroke-linejoin="round" stroke-linecap="round"/>
   <g font-size="18" font-style="normal" font-family="'CMU Serif'" font-weight="normal" transform="translate(179.833,102.19) rotate(-0,-0,-6.5)" xml:space="preserve">
    <text fill="rgb(0,0,0)" x="0 10 19 " y="-0">SJF</text>
   </g>
   <polygon fill="#8bca50" points="162.132,126.446 161.559,128.21 160.059,129.3 158.205,129.3 156.705,128.21 156.132,126.446 156.705,124.683 158.205,123.593 160.059,123.593 161.559,124.683" shape-rendering="crispEdges"/>
   <polyline fill="none" stroke-width="0.5" stroke="#8bca50" points="162.132,126.446 161.559,128.21 160.059,129.3 158.205,129.3 156.705,128.21 156.132,126.446 156.705,124.683 158.205,123.593 160.059,123.593 161.559,124.683 162.132,126.446" stroke-linejoin="round" stroke-linecap="round"/>
   <g font-size="18" font-style="normal" font-family="'CMU Serif'" font-weight="normal" transform="translate(179.833,136.446) rotate(-0,-0,-10)" xml:space="preserve">
    <text fill="rgb(0,0,0)" x="0 13 26 32 39 46 51 66 74 80 89 99 108 118 125 135 150 156 170 176 185 " y="-5">RR (time quantum = 8)</text>
   </g>
  </g>
 </g>
</svg>
