<?xml version='1.0' encoding='UTF-8' standalone='no'?>
<svg width="973pt" height="463pt" xmlns="http://www.w3.org/2000/svg" xmlns:xlink="http://www.w3.org/1999/xlink" viewBox="0 0 973 463">
 <title>Figure 1</title>
 <desc>
Creator: GL2PS 1.4.2, (C) 1999-2020 C. Geuzaine
For: Octave
CreationDate: Tue Dec 26 16:31:35 2023
</desc>
 <defs/>
 <polygon points="0,0 973,0 973,463 0,463" fill="#ffffff"/>
 <g>
  <polygon points="0,463 973,463 973,0 0,0" shape-rendering="crispEdges" fill="#ffffff"/>
  <clipPath id="cp00973463">
   <polygon points="0,463 973,463 973,0 0,0"/>
  </clipPath>
  <g clip-path="url(#cp00973463)">
   <polygon shape-rendering="crispEdges" points="126.602,403.603 881.34,403.603 881.34,34.7695 126.602,34.7695" fill="#ffffff"/>
   <polyline stroke-dasharray="16,0" stroke-width="0.5" points="126.602,403.603 126.602,34.7695" fill="none" stroke-linecap="butt" stroke-linejoin="miter" stroke-opacity="0.15" stroke="#262626"/>
   <polyline stroke-dasharray="16,0" stroke-width="0.5" points="283.839,403.603 283.839,34.7695" fill="none" stroke-linecap="butt" stroke-linejoin="miter" stroke-opacity="0.15" stroke="#262626"/>
   <polyline stroke-dasharray="16,0" stroke-width="0.5" points="441.076,403.603 441.076,34.7695" fill="none" stroke-linecap="butt" stroke-linejoin="miter" stroke-opacity="0.15" stroke="#262626"/>
   <polyline stroke-dasharray="16,0" stroke-width="0.5" points="598.313,403.603 598.313,34.7695" fill="none" stroke-linecap="butt" stroke-linejoin="miter" stroke-opacity="0.15" stroke="#262626"/>
   <polyline stroke-dasharray="16,0" stroke-width="0.5" points="755.55,403.603 755.55,34.7695" fill="none" stroke-linecap="butt" stroke-linejoin="miter" stroke-opacity="0.15" stroke="#262626"/>
   <polyline stroke-width="0.5" points="126.602,403.603 126.602,396.059" fill="none" stroke-linecap="butt" stroke-linejoin="miter" stroke="#262626"/>
   <polyline stroke-width="0.5" points="283.839,403.603 283.839,396.059" fill="none" stroke-linecap="butt" stroke-linejoin="miter" stroke="#262626"/>
   <polyline stroke-width="0.5" points="441.076,403.603 441.076,396.059" fill="none" stroke-linecap="butt" stroke-linejoin="miter" stroke="#262626"/>
   <polyline stroke-width="0.5" points="598.313,403.603 598.313,396.059" fill="none" stroke-linecap="butt" stroke-linejoin="miter" stroke="#262626"/>
   <polyline stroke-width="0.5" points="755.55,403.603 755.55,396.059" fill="none" stroke-linecap="butt" stroke-linejoin="miter" stroke="#262626"/>
   <g font-weight="normal" font-size="20" transform="translate(121.601,433.596) rotate(-0,5,-15)" font-family="'CMU Serif'" font-style="normal" xml:space="preserve">
    <text y="-0" x="0 " fill="rgb(38,38,38)">0</text>
   </g>
   <g font-weight="normal" font-size="20" transform="translate(273.839,433.596) rotate(-0,10,-15)" font-family="'CMU Serif'" font-style="normal" xml:space="preserve">
    <text y="-0" x="0 10 " fill="rgb(38,38,38)">10</text>
   </g>
   <g font-weight="normal" font-size="20" transform="translate(431.076,433.596) rotate(-0,10,-15)" font-family="'CMU Serif'" font-style="normal" xml:space="preserve">
    <text y="-0" x="0 10 " fill="rgb(38,38,38)">20</text>
   </g>
   <g font-weight="normal" font-size="20" transform="translate(588.313,433.596) rotate(-0,10,-15)" font-family="'CMU Serif'" font-style="normal" xml:space="preserve">
    <text y="-0" x="0 10 " fill="rgb(38,38,38)">30</text>
   </g>
   <g font-weight="normal" font-size="20" transform="translate(745.55,433.596) rotate(-0,10,-15)" font-family="'CMU Serif'" font-style="normal" xml:space="preserve">
    <text y="-0" x="0 10 " fill="rgb(38,38,38)">40</text>
   </g>
   <polyline stroke-dasharray="16,0" stroke-width="0.5" points="126.602,403.603 881.34,403.603" fill="none" stroke-linecap="butt" stroke-linejoin="miter" stroke-opacity="0.15" stroke="#262626"/>
   <polyline stroke-dasharray="16,0" stroke-width="0.5" points="126.602,311.395 881.34,311.395" fill="none" stroke-linecap="butt" stroke-linejoin="miter" stroke-opacity="0.15" stroke="#262626"/>
   <polyline stroke-dasharray="16,0" stroke-width="0.5" points="126.602,219.187 881.34,219.187" fill="none" stroke-linecap="butt" stroke-linejoin="miter" stroke-opacity="0.15" stroke="#262626"/>
   <polyline stroke-dasharray="16,0" stroke-width="0.5" points="126.602,126.978 881.34,126.978" fill="none" stroke-linecap="butt" stroke-linejoin="miter" stroke-opacity="0.15" stroke="#262626"/>
   <polyline stroke-dasharray="16,0" stroke-width="0.5" points="126.602,34.7695 881.34,34.7695" fill="none" stroke-linecap="butt" stroke-linejoin="miter" stroke-opacity="0.15" stroke="#262626"/>
   <polyline stroke-width="0.5" points="126.602,403.603 134.146,403.603" fill="none" stroke-linecap="butt" stroke-linejoin="miter" stroke="#262626"/>
   <polyline stroke-width="0.5" points="126.602,311.395 134.146,311.395" fill="none" stroke-linecap="butt" stroke-linejoin="miter" stroke="#262626"/>
   <polyline stroke-width="0.5" points="126.602,219.187 134.146,219.187" fill="none" stroke-linecap="butt" stroke-linejoin="miter" stroke="#262626"/>
   <polyline stroke-width="0.5" points="126.602,126.978 134.146,126.978" fill="none" stroke-linecap="butt" stroke-linejoin="miter" stroke="#262626"/>
   <polyline stroke-width="0.5" points="126.602,34.7695 134.146,34.7695" fill="none" stroke-linecap="butt" stroke-linejoin="miter" stroke="#262626"/>
   <g font-weight="normal" font-size="20" transform="translate(106.605,411.103) rotate(-0,10,-7.5)" font-family="'CMU Serif'" font-style="normal" xml:space="preserve">
    <text y="-0" x="0 " fill="rgb(38,38,38)">0</text>
   </g>
   <g font-weight="normal" font-size="20" transform="translate(86.6048,318.895) rotate(-0,30,-7.5)" font-family="'CMU Serif'" font-style="normal" xml:space="preserve">
    <text y="-0" x="0 10 20 " fill="rgb(38,38,38)">200</text>
   </g>
   <g font-weight="normal" font-size="20" transform="translate(86.6048,226.686) rotate(-0,30,-7.5)" font-family="'CMU Serif'" font-style="normal" xml:space="preserve">
    <text y="-0" x="0 10 20 " fill="rgb(38,38,38)">400</text>
   </g>
   <g font-weight="normal" font-size="20" transform="translate(86.6048,134.478) rotate(-0,30,-7.5)" font-family="'CMU Serif'" font-style="normal" xml:space="preserve">
    <text y="-0" x="0 10 20 " fill="rgb(38,38,38)">600</text>
   </g>
   <g font-weight="normal" font-size="20" transform="translate(86.6048,42.2697) rotate(-0,30,-7.5)" font-family="'CMU Serif'" font-style="normal" xml:space="preserve">
    <text y="-0" x="0 10 20 " fill="rgb(38,38,38)">800</text>
   </g>
   <polyline stroke-dasharray="16,0" stroke-width="0.5" points="126.602,403.603 881.34,403.603" fill="none" stroke-linecap="square" stroke-linejoin="miter" stroke="#262626"/>
   <polyline stroke-dasharray="16,0" stroke-width="0.5" points="126.602,403.603 126.602,34.7695" fill="none" stroke-linecap="square" stroke-linejoin="miter" stroke="#262626"/>
   <g font-weight="normal" font-size="24" transform="translate(414.471,463.596) rotate(-0,89.5,-25)" font-family="'CMU Serif'" font-style="normal" xml:space="preserve">
    <text y="-6" x="0 12 21 30 37 50 62 69 77 86 93 113 124 132 141 161 170 " fill="rgb(38,38,38)">arrival time (ms)</text>
   </g>
   <g font-weight="normal" font-size="24" transform="translate(-31.3952,219.186) rotate(-90,113,0)" font-family="'CMU Serif'" font-style="normal" xml:space="preserve">
    <text y="-6" x="0 9 22 31 44 56 65 77 90 103 116 124 133 140 160 171 179 188 208 217 " fill="rgb(38,38,38)">turnaround time (ms)</text>
   </g>
   <polygon shape-rendering="crispEdges" points="129.602,378.707 129.028,380.47 127.528,381.56 125.674,381.56 124.174,380.47 123.602,378.707 124.174,376.943 125.674,375.854 127.528,375.854 129.028,376.943" fill="#2d88f5"/>
   <polyline stroke-width="0.5" points="129.602,378.707 129.028,380.47 127.528,381.56 125.674,381.56 124.174,380.47 123.602,378.707 124.174,376.943 125.674,375.854 127.528,375.854 129.028,376.943 129.602,378.707" fill="none" stroke-linecap="round" stroke-linejoin="round" stroke="#2d88f5"/>
   <polygon shape-rendering="crispEdges" points="145.325,365.798 144.752,367.561 143.252,368.651 141.398,368.651 139.898,367.561 139.325,365.798 139.898,364.034 141.398,362.944 143.252,362.944 144.752,364.034" fill="#2d88f5"/>
   <polyline stroke-width="0.5" points="145.325,365.798 144.752,367.561 143.252,368.651 141.398,368.651 139.898,367.561 139.325,365.798 139.898,364.034 141.398,362.944 143.252,362.944 144.752,364.034 145.325,365.798" fill="none" stroke-linecap="round" stroke-linejoin="round" stroke="#2d88f5"/>
   <polygon shape-rendering="crispEdges" points="161.049,342.285 160.476,344.048 158.976,345.138 157.122,345.138 155.622,344.048 155.049,342.285 155.622,340.521 157.122,339.431 158.976,339.431 160.476,340.521" fill="#2d88f5"/>
   <polyline stroke-width="0.5" points="161.049,342.285 160.476,344.048 158.976,345.138 157.122,345.138 155.622,344.048 155.049,342.285 155.622,340.521 157.122,339.431 158.976,339.431 160.476,340.521 161.049,342.285" fill="none" stroke-linecap="round" stroke-linejoin="round" stroke="#2d88f5"/>
   <polygon shape-rendering="crispEdges" points="176.772,358.421 176.2,360.184 174.7,361.274 172.846,361.274 171.346,360.184 170.772,358.421 171.346,356.658 172.846,355.568 174.7,355.568 176.2,356.658" fill="#2d88f5"/>
   <polyline stroke-width="0.5" points="176.772,358.421 176.2,360.184 174.7,361.274 172.846,361.274 171.346,360.184 170.772,358.421 171.346,356.658 172.846,355.568 174.7,355.568 176.2,356.658 176.772,358.421" fill="none" stroke-linecap="round" stroke-linejoin="round" stroke="#2d88f5"/>
   <polygon shape-rendering="crispEdges" points="176.772,353.35 176.2,355.113 174.7,356.203 172.846,356.203 171.346,355.113 170.772,353.35 171.346,351.586 172.846,350.496 174.7,350.496 176.2,351.586" fill="#2d88f5"/>
   <polyline stroke-width="0.5" points="176.772,353.35 176.2,355.113 174.7,356.203 172.846,356.203 171.346,355.113 170.772,353.35 171.346,351.586 172.846,350.496 174.7,350.496 176.2,351.586 176.772,353.35" fill="none" stroke-linecap="round" stroke-linejoin="round" stroke="#2d88f5"/>
   <polygon shape-rendering="crispEdges" points="223.944,352.427 223.371,354.191 221.871,355.281 220.017,355.281 218.517,354.191 217.944,352.427 218.517,350.664 220.017,349.574 221.871,349.574 223.371,350.664" fill="#2d88f5"/>
   <polyline stroke-width="0.5" points="223.944,352.427 223.371,354.191 221.871,355.281 220.017,355.281 218.517,354.191 217.944,352.427 218.517,350.664 220.017,349.574 221.871,349.574 223.371,350.664 223.944,352.427" fill="none" stroke-linecap="round" stroke-linejoin="round" stroke="#2d88f5"/>
   <polygon shape-rendering="crispEdges" points="271.115,351.966 270.542,353.729 269.042,354.819 267.188,354.819 265.688,353.729 265.115,351.966 265.688,350.203 267.188,349.113 269.042,349.113 270.542,350.203" fill="#2d88f5"/>
   <polyline stroke-width="0.5" points="271.115,351.966 270.542,353.729 269.042,354.819 267.188,354.819 265.688,353.729 265.115,351.966 265.688,350.203 267.188,349.113 269.042,349.113 270.542,350.203 271.115,351.966" fill="none" stroke-linecap="round" stroke-linejoin="round" stroke="#2d88f5"/>
   <polygon shape-rendering="crispEdges" points="286.839,320.616 286.266,322.379 284.766,323.469 282.912,323.469 281.412,322.379 280.839,320.616 281.412,318.852 282.912,317.762 284.766,317.762 286.266,318.852" fill="#2d88f5"/>
   <polyline stroke-width="0.5" points="286.839,320.616 286.266,322.379 284.766,323.469 282.912,323.469 281.412,322.379 280.839,320.616 281.412,318.852 282.912,317.762 284.766,317.762 286.266,318.852 286.839,320.616" fill="none" stroke-linecap="round" stroke-linejoin="round" stroke="#2d88f5"/>
   <polygon shape-rendering="crispEdges" points="334.01,302.174 333.437,303.937 331.937,305.027 330.083,305.027 328.583,303.937 328.01,302.174 328.583,300.411 330.083,299.321 331.937,299.321 333.437,300.411" fill="#2d88f5"/>
   <polyline stroke-width="0.5" points="334.01,302.174 333.437,303.937 331.937,305.027 330.083,305.027 328.583,303.937 328.01,302.174 328.583,300.411 330.083,299.321 331.937,299.321 333.437,300.411 334.01,302.174" fill="none" stroke-linecap="round" stroke-linejoin="round" stroke="#2d88f5"/>
   <polygon shape-rendering="crispEdges" points="349.733,317.388 349.161,319.151 347.661,320.241 345.807,320.241 344.307,319.151 343.733,317.388 344.307,315.625 345.807,314.535 347.661,314.535 349.161,315.625" fill="#2d88f5"/>
   <polyline stroke-width="0.5" points="349.733,317.388 349.161,319.151 347.661,320.241 345.807,320.241 344.307,319.151 343.733,317.388 344.307,315.625 345.807,314.535 347.661,314.535 349.161,315.625 349.733,317.388" fill="none" stroke-linecap="round" stroke-linejoin="round" stroke="#2d88f5"/>
   <polygon shape-rendering="crispEdges" points="396.905,285.576 396.332,287.34 394.832,288.43 392.978,288.43 391.478,287.34 390.905,285.576 391.478,283.813 392.978,282.723 394.832,282.723 396.332,283.813" fill="#2d88f5"/>
   <polyline stroke-width="0.5" points="396.905,285.576 396.332,287.34 394.832,288.43 392.978,288.43 391.478,287.34 390.905,285.576 391.478,283.813 392.978,282.723 394.832,282.723 396.332,283.813 396.905,285.576" fill="none" stroke-linecap="round" stroke-linejoin="round" stroke="#2d88f5"/>
   <polygon shape-rendering="crispEdges" points="412.628,268.518 412.056,270.281 410.556,271.371 408.701,271.371 407.201,270.281 406.628,268.518 407.201,266.754 408.701,265.665 410.556,265.665 412.056,266.754" fill="#2d88f5"/>
   <polyline stroke-width="0.5" points="412.628,268.518 412.056,270.281 410.556,271.371 408.701,271.371 407.201,270.281 406.628,268.518 407.201,266.754 408.701,265.665 410.556,265.665 412.056,266.754 412.628,268.518" fill="none" stroke-linecap="round" stroke-linejoin="round" stroke="#2d88f5"/>
   <polygon shape-rendering="crispEdges" points="444.076,279.583 443.503,281.346 442.003,282.436 440.149,282.436 438.649,281.346 438.076,279.583 438.649,277.819 440.149,276.729 442.003,276.729 443.503,277.819" fill="#2d88f5"/>
   <polyline stroke-width="0.5" points="444.076,279.583 443.503,281.346 442.003,282.436 440.149,282.436 438.649,281.346 438.076,279.583 438.649,277.819 440.149,276.729 442.003,276.729 443.503,277.819 444.076,279.583" fill="none" stroke-linecap="round" stroke-linejoin="round" stroke="#2d88f5"/>
   <polygon shape-rendering="crispEdges" points="459.8,281.888 459.227,283.651 457.727,284.741 455.873,284.741 454.373,283.651 453.8,281.888 454.373,280.125 455.873,279.035 457.727,279.035 459.227,280.125" fill="#2d88f5"/>
   <polyline stroke-width="0.5" points="459.8,281.888 459.227,283.651 457.727,284.741 455.873,284.741 454.373,283.651 453.8,281.888 454.373,280.125 455.873,279.035 457.727,279.035 459.227,280.125 459.8,281.888" fill="none" stroke-linecap="round" stroke-linejoin="round" stroke="#2d88f5"/>
   <polygon shape-rendering="crispEdges" points="506.971,259.297 506.398,261.061 504.898,262.15 503.044,262.15 501.544,261.061 500.971,259.297 501.544,257.534 503.044,256.444 504.898,256.444 506.398,257.534" fill="#2d88f5"/>
   <polyline stroke-width="0.5" points="506.971,259.297 506.398,261.061 504.898,262.15 503.044,262.15 501.544,261.061 500.971,259.297 501.544,257.534 503.044,256.444 504.898,256.444 506.398,257.534 506.971,259.297" fill="none" stroke-linecap="round" stroke-linejoin="round" stroke="#2d88f5"/>
   <polygon shape-rendering="crispEdges" points="522.694,237.167 522.122,238.93 520.622,240.02 518.768,240.02 517.268,238.93 516.694,237.167 517.268,235.404 518.768,234.314 520.622,234.314 522.122,235.404" fill="#2d88f5"/>
   <polyline stroke-width="0.5" points="522.694,237.167 522.122,238.93 520.622,240.02 518.768,240.02 517.268,238.93 516.694,237.167 517.268,235.404 518.768,234.314 520.622,234.314 522.122,235.404 522.694,237.167" fill="none" stroke-linecap="round" stroke-linejoin="round" stroke="#2d88f5"/>
   <polygon shape-rendering="crispEdges" points="522.694,228.868 522.122,230.632 520.622,231.721 518.768,231.721 517.268,230.632 516.694,228.868 517.268,227.105 518.768,226.015 520.622,226.015 522.122,227.105" fill="#2d88f5"/>
   <polyline stroke-width="0.5" points="522.694,228.868 522.122,230.632 520.622,231.721 518.768,231.721 517.268,230.632 516.694,228.868 517.268,227.105 518.768,226.015 520.622,226.015 522.122,227.105 522.694,228.868" fill="none" stroke-linecap="round" stroke-linejoin="round" stroke="#2d88f5"/>
   <polygon shape-rendering="crispEdges" points="569.866,239.472 569.293,241.235 567.793,242.325 565.938,242.325 564.438,241.235 563.866,239.472 564.438,237.709 565.938,236.619 567.793,236.619 569.293,237.709" fill="#2d88f5"/>
   <polyline stroke-width="0.5" points="569.866,239.472 569.293,241.235 567.793,242.325 565.938,242.325 564.438,241.235 563.866,239.472 564.438,237.709 565.938,236.619 567.793,236.619 569.293,237.709 569.866,239.472" fill="none" stroke-linecap="round" stroke-linejoin="round" stroke="#2d88f5"/>
   <polygon shape-rendering="crispEdges" points="617.037,220.569 616.464,222.333 614.964,223.423 613.11,223.423 611.61,222.333 611.037,220.569 611.61,218.806 613.11,217.716 614.964,217.716 616.464,218.806" fill="#2d88f5"/>
   <polyline stroke-width="0.5" points="617.037,220.569 616.464,222.333 614.964,223.423 613.11,223.423 611.61,222.333 611.037,220.569 611.61,218.806 613.11,217.716 614.964,217.716 616.464,218.806 617.037,220.569" fill="none" stroke-linecap="round" stroke-linejoin="round" stroke="#2d88f5"/>
   <polygon shape-rendering="crispEdges" points="617.037,194.751 616.464,196.515 614.964,197.604 613.11,197.604 611.61,196.515 611.037,194.751 611.61,192.988 613.11,191.898 614.964,191.898 616.464,192.988" fill="#2d88f5"/>
   <polyline stroke-width="0.5" points="617.037,194.751 616.464,196.515 614.964,197.604 613.11,197.604 611.61,196.515 611.037,194.751 611.61,192.988 613.11,191.898 614.964,191.898 616.464,192.988 617.037,194.751" fill="none" stroke-linecap="round" stroke-linejoin="round" stroke="#2d88f5"/>
   <polygon shape-rendering="crispEdges" points="664.208,191.524 663.635,193.287 662.135,194.377 660.281,194.377 658.781,193.287 658.208,191.524 658.781,189.761 660.281,188.671 662.135,188.671 663.635,189.761" fill="#2d88f5"/>
   <polyline stroke-width="0.5" points="664.208,191.524 663.635,193.287 662.135,194.377 660.281,194.377 658.781,193.287 658.208,191.524 658.781,189.761 660.281,188.671 662.135,188.671 663.635,189.761 664.208,191.524" fill="none" stroke-linecap="round" stroke-linejoin="round" stroke="#2d88f5"/>
   <polygon shape-rendering="crispEdges" points="679.932,179.537 679.359,181.3 677.859,182.39 676.005,182.39 674.505,181.3 673.932,179.537 674.505,177.773 676.005,176.684 677.859,176.684 679.359,177.773" fill="#2d88f5"/>
   <polyline stroke-width="0.5" points="679.932,179.537 679.359,181.3 677.859,182.39 676.005,182.39 674.505,181.3 673.932,179.537 674.505,177.773 676.005,176.684 677.859,176.684 679.359,177.773 679.932,179.537" fill="none" stroke-linecap="round" stroke-linejoin="round" stroke="#2d88f5"/>
   <polygon shape-rendering="crispEdges" points="711.379,185.069 710.806,186.833 709.306,187.922 707.452,187.922 705.952,186.833 705.379,185.069 705.952,183.306 707.452,182.216 709.306,182.216 710.806,183.306" fill="#2d88f5"/>
   <polyline stroke-width="0.5" points="711.379,185.069 710.806,186.833 709.306,187.922 707.452,187.922 705.952,186.833 705.379,185.069 705.952,183.306 707.452,182.216 709.306,182.216 710.806,183.306 711.379,185.069" fill="none" stroke-linecap="round" stroke-linejoin="round" stroke="#2d88f5"/>
   <polygon shape-rendering="crispEdges" points="758.55,185.53 757.978,187.293 756.478,188.383 754.624,188.383 753.124,187.293 752.55,185.53 753.124,183.767 754.624,182.677 756.478,182.677 757.978,183.767" fill="#2d88f5"/>
   <polyline stroke-width="0.5" points="758.55,185.53 757.978,187.293 756.478,188.383 754.624,188.383 753.124,187.293 752.55,185.53 753.124,183.767 754.624,182.677 756.478,182.677 757.978,183.767 758.55,185.53" fill="none" stroke-linecap="round" stroke-linejoin="round" stroke="#2d88f5"/>
   <polygon shape-rendering="crispEdges" points="789.998,185.991 789.425,187.755 787.925,188.845 786.071,188.845 784.571,187.755 783.998,185.991 784.571,184.228 786.071,183.138 787.925,183.138 789.425,184.228" fill="#2d88f5"/>
   <polyline stroke-width="0.5" points="789.998,185.991 789.425,187.755 787.925,188.845 786.071,188.845 784.571,187.755 783.998,185.991 784.571,184.228 786.071,183.138 787.925,183.138 789.425,184.228 789.998,185.991" fill="none" stroke-linecap="round" stroke-linejoin="round" stroke="#2d88f5"/>
   <polygon shape-rendering="crispEdges" points="805.722,150.952 805.148,152.715 803.648,153.805 801.794,153.805 800.294,152.715 799.722,150.952 800.294,149.189 801.794,148.099 803.648,148.099 805.148,149.189" fill="#2d88f5"/>
   <polyline stroke-width="0.5" points="805.722,150.952 805.148,152.715 803.648,153.805 801.794,153.805 800.294,152.715 799.722,150.952 800.294,149.189 801.794,148.099 803.648,148.099 805.148,149.189 805.722,150.952" fill="none" stroke-linecap="round" stroke-linejoin="round" stroke="#2d88f5"/>
   <polygon shape-rendering="crispEdges" points="821.445,167.089 820.873,168.852 819.373,169.942 817.519,169.942 816.019,168.852 815.445,167.089 816.019,165.325 817.519,164.235 819.373,164.235 820.873,165.325" fill="#2d88f5"/>
   <polyline stroke-width="0.5" points="821.445,167.089 820.873,168.852 819.373,169.942 817.519,169.942 816.019,168.852 815.445,167.089 816.019,165.325 817.519,164.235 819.373,164.235 820.873,165.325 821.445,167.089" fill="none" stroke-linecap="round" stroke-linejoin="round" stroke="#2d88f5"/>
   <polygon shape-rendering="crispEdges" points="852.893,134.354 852.32,136.118 850.82,137.208 848.966,137.208 847.466,136.118 846.893,134.354 847.466,132.591 848.966,131.501 850.82,131.501 852.32,132.591" fill="#2d88f5"/>
   <polyline stroke-width="0.5" points="852.893,134.354 852.32,136.118 850.82,137.208 848.966,137.208 847.466,136.118 846.893,134.354 847.466,132.591 848.966,131.501 850.82,131.501 852.32,132.591 852.893,134.354" fill="none" stroke-linecap="round" stroke-linejoin="round" stroke="#2d88f5"/>
   <polygon shape-rendering="crispEdges" points="852.893,130.667 852.32,132.43 850.82,133.52 848.966,133.52 847.466,132.43 846.893,130.667 847.466,128.903 848.966,127.813 850.82,127.813 852.32,128.903" fill="#2d88f5"/>
   <polyline stroke-width="0.5" points="852.893,130.667 852.32,132.43 850.82,133.52 848.966,133.52 847.466,132.43 846.893,130.667 847.466,128.903 848.966,127.813 850.82,127.813 852.32,128.903 852.893,130.667" fill="none" stroke-linecap="round" stroke-linejoin="round" stroke="#2d88f5"/>
   <polygon shape-rendering="crispEdges" points="884.34,119.14 883.768,120.904 882.268,121.994 880.413,121.994 878.913,120.904 878.34,119.14 878.913,117.377 880.413,116.287 882.268,116.287 883.768,117.377" fill="#2d88f5"/>
   <polyline stroke-width="0.5" points="884.34,119.14 883.768,120.904 882.268,121.994 880.413,121.994 878.913,120.904 878.34,119.14 878.913,117.377 880.413,116.287 882.268,116.287 883.768,117.377 884.34,119.14" fill="none" stroke-linecap="round" stroke-linejoin="round" stroke="#2d88f5"/>
   <polygon shape-rendering="crispEdges" points="129.602,341.362 129.028,343.126 127.528,344.216 125.674,344.216 124.174,343.126 123.602,341.362 124.174,339.599 125.674,338.509 127.528,338.509 129.028,339.599" fill="#fec834"/>
   <polyline stroke-width="0.5" points="129.602,341.362 129.028,343.126 127.528,344.216 125.674,344.216 124.174,343.126 123.602,341.362 124.174,339.599 125.674,338.509 127.528,338.509 129.028,339.599 129.602,341.362" fill="none" stroke-linecap="round" stroke-linejoin="round" stroke="#fec834"/>
   <polygon shape-rendering="crispEdges" points="145.325,269.901 144.752,271.665 143.252,272.754 141.398,272.754 139.898,271.665 139.325,269.901 139.898,268.138 141.398,267.048 143.252,267.048 144.752,268.138" fill="#fec834"/>
   <polyline stroke-width="0.5" points="145.325,269.901 144.752,271.665 143.252,272.754 141.398,272.754 139.898,271.665 139.325,269.901 139.898,268.138 141.398,267.048 143.252,267.048 144.752,268.138 145.325,269.901" fill="none" stroke-linecap="round" stroke-linejoin="round" stroke="#fec834"/>
   <polygon shape-rendering="crispEdges" points="161.049,127.9 160.476,129.664 158.976,130.753 157.122,130.753 155.622,129.664 155.049,127.9 155.622,126.137 157.122,125.047 158.976,125.047 160.476,126.137" fill="#fec834"/>
   <polyline stroke-width="0.5" points="161.049,127.9 160.476,129.664 158.976,130.753 157.122,130.753 155.622,129.664 155.049,127.9 155.622,126.137 157.122,125.047 158.976,125.047 160.476,126.137 161.049,127.9" fill="none" stroke-linecap="round" stroke-linejoin="round" stroke="#fec834"/>
   <polygon shape-rendering="crispEdges" points="176.772,400.837 176.2,402.6 174.7,403.69 172.846,403.69 171.346,402.6 170.772,400.837 171.346,399.073 172.846,397.983 174.7,397.983 176.2,399.073" fill="#fec834"/>
   <polyline stroke-width="0.5" points="176.772,400.837 176.2,402.6 174.7,403.69 172.846,403.69 171.346,402.6 170.772,400.837 171.346,399.073 172.846,397.983 174.7,397.983 176.2,399.073 176.772,400.837" fill="none" stroke-linecap="round" stroke-linejoin="round" stroke="#fec834"/>
   <polygon shape-rendering="crispEdges" points="176.772,387.928 176.2,389.691 174.7,390.781 172.846,390.781 171.346,389.691 170.772,387.928 171.346,386.164 172.846,385.074 174.7,385.074 176.2,386.164" fill="#fec834"/>
   <polyline stroke-width="0.5" points="176.772,387.928 176.2,389.691 174.7,390.781 172.846,390.781 171.346,389.691 170.772,387.928 171.346,386.164 172.846,385.074 174.7,385.074 176.2,386.164 176.772,387.928" fill="none" stroke-linecap="round" stroke-linejoin="round" stroke="#fec834"/>
   <polygon shape-rendering="crispEdges" points="223.944,398.07 223.371,399.834 221.871,400.924 220.017,400.924 218.517,399.834 217.944,398.07 218.517,396.307 220.017,395.217 221.871,395.217 223.371,396.307" fill="#fec834"/>
   <polyline stroke-width="0.5" points="223.944,398.07 223.371,399.834 221.871,400.924 220.017,400.924 218.517,399.834 217.944,398.07 218.517,396.307 220.017,395.217 221.871,395.217 223.371,396.307 223.944,398.07" fill="none" stroke-linecap="round" stroke-linejoin="round" stroke="#fec834"/>
   <polygon shape-rendering="crispEdges" points="271.115,397.609 270.542,399.373 269.042,400.463 267.188,400.463 265.688,399.373 265.115,397.609 265.688,395.846 267.188,394.756 269.042,394.756 270.542,395.846" fill="#fec834"/>
   <polyline stroke-width="0.5" points="271.115,397.609 270.542,399.373 269.042,400.463 267.188,400.463 265.688,399.373 265.115,397.609 265.688,395.846 267.188,394.756 269.042,394.756 270.542,395.846 271.115,397.609" fill="none" stroke-linecap="round" stroke-linejoin="round" stroke="#fec834"/>
   <polygon shape-rendering="crispEdges" points="286.839,239.933 286.266,241.697 284.766,242.787 282.912,242.787 281.412,241.697 280.839,239.933 281.412,238.17 282.912,237.08 284.766,237.08 286.266,238.17" fill="#fec834"/>
   <polyline stroke-width="0.5" points="286.839,239.933 286.266,241.697 284.766,242.787 282.912,242.787 281.412,241.697 280.839,239.933 281.412,238.17 282.912,237.08 284.766,237.08 286.266,238.17 286.839,239.933" fill="none" stroke-linecap="round" stroke-linejoin="round" stroke="#fec834"/>
   <polygon shape-rendering="crispEdges" points="334.01,151.413 333.437,153.177 331.937,154.267 330.083,154.267 328.583,153.177 328.01,151.413 328.583,149.65 330.083,148.56 331.937,148.56 333.437,149.65" fill="#fec834"/>
   <polyline stroke-width="0.5" points="334.01,151.413 333.437,153.177 331.937,154.267 330.083,154.267 328.583,153.177 328.01,151.413 328.583,149.65 330.083,148.56 331.937,148.56 333.437,149.65 334.01,151.413" fill="none" stroke-linecap="round" stroke-linejoin="round" stroke="#fec834"/>
   <polygon shape-rendering="crispEdges" points="349.733,398.532 349.161,400.295 347.661,401.385 345.807,401.385 344.307,400.295 343.733,398.532 344.307,396.768 345.807,395.678 347.661,395.678 349.161,396.768" fill="#fec834"/>
   <polyline stroke-width="0.5" points="349.733,398.532 349.161,400.295 347.661,401.385 345.807,401.385 344.307,400.295 343.733,398.532 344.307,396.768 345.807,395.678 347.661,395.678 349.161,396.768 349.733,398.532" fill="none" stroke-linecap="round" stroke-linejoin="round" stroke="#fec834"/>
   <polygon shape-rendering="crispEdges" points="396.905,190.141 396.332,191.904 394.832,192.994 392.978,192.994 391.478,191.904 390.905,190.141 391.478,188.377 392.978,187.288 394.832,187.288 396.332,188.377" fill="#fec834"/>
   <polyline stroke-width="0.5" points="396.905,190.141 396.332,191.904 394.832,192.994 392.978,192.994 391.478,191.904 390.905,190.141 391.478,188.377 392.978,187.288 394.832,187.288 396.332,188.377 396.905,190.141" fill="none" stroke-linecap="round" stroke-linejoin="round" stroke="#fec834"/>
   <polygon shape-rendering="crispEdges" points="412.628,208.122 412.056,209.885 410.556,210.975 408.701,210.975 407.201,209.885 406.628,208.122 407.201,206.358 408.701,205.268 410.556,205.268 412.056,206.358" fill="#fec834"/>
   <polyline stroke-width="0.5" points="412.628,208.122 412.056,209.885 410.556,210.975 408.701,210.975 407.201,209.885 406.628,208.122 407.201,206.358 408.701,205.268 410.556,205.268 412.056,206.358 412.628,208.122" fill="none" stroke-linecap="round" stroke-linejoin="round" stroke="#fec834"/>
   <polygon shape-rendering="crispEdges" points="444.076,389.772 443.503,391.535 442.003,392.625 440.149,392.625 438.649,391.535 438.076,389.772 438.649,388.008 440.149,386.918 442.003,386.918 443.503,388.008" fill="#fec834"/>
   <polyline stroke-width="0.5" points="444.076,389.772 443.503,391.535 442.003,392.625 440.149,392.625 438.649,391.535 438.076,389.772 438.649,388.008 440.149,386.918 442.003,386.918 443.503,388.008 444.076,389.772" fill="none" stroke-linecap="round" stroke-linejoin="round" stroke="#fec834"/>
   <polygon shape-rendering="crispEdges" points="459.8,401.759 459.227,403.522 457.727,404.612 455.873,404.612 454.373,403.522 453.8,401.759 454.373,399.996 455.873,398.906 457.727,398.906 459.227,399.996" fill="#fec834"/>
   <polyline stroke-width="0.5" points="459.8,401.759 459.227,403.522 457.727,404.612 455.873,404.612 454.373,403.522 453.8,401.759 454.373,399.996 455.873,398.906 457.727,398.906 459.227,399.996 459.8,401.759" fill="none" stroke-linecap="round" stroke-linejoin="round" stroke="#fec834"/>
   <polygon shape-rendering="crispEdges" points="506.971,293.875 506.398,295.639 504.898,296.729 503.044,296.729 501.544,295.639 500.971,293.875 501.544,292.112 503.044,291.022 504.898,291.022 506.398,292.112" fill="#fec834"/>
   <polyline stroke-width="0.5" points="506.971,293.875 506.398,295.639 504.898,296.729 503.044,296.729 501.544,295.639 500.971,293.875 501.544,292.112 503.044,291.022 504.898,291.022 506.398,292.112 506.971,293.875" fill="none" stroke-linecap="round" stroke-linejoin="round" stroke="#fec834"/>
   <polygon shape-rendering="crispEdges" points="522.694,176.31 522.122,178.073 520.622,179.163 518.768,179.163 517.268,178.073 516.694,176.31 517.268,174.546 518.768,173.457 520.622,173.457 522.122,174.546" fill="#fec834"/>
   <polyline stroke-width="0.5" points="522.694,176.31 522.122,178.073 520.622,179.163 518.768,179.163 517.268,178.073 516.694,176.31 517.268,174.546 518.768,173.457 520.622,173.457 522.122,174.546 522.694,176.31" fill="none" stroke-linecap="round" stroke-linejoin="round" stroke="#fec834"/>
   <polygon shape-rendering="crispEdges" points="522.694,268.057 522.122,269.82 520.622,270.91 518.768,270.91 517.268,269.82 516.694,268.057 517.268,266.293 518.768,265.204 520.622,265.204 522.122,266.293" fill="#fec834"/>
   <polyline stroke-width="0.5" points="522.694,268.057 522.122,269.82 520.622,270.91 518.768,270.91 517.268,269.82 516.694,268.057 517.268,266.293 518.768,265.204 520.622,265.204 522.122,266.293 522.694,268.057" fill="none" stroke-linecap="round" stroke-linejoin="round" stroke="#fec834"/>
   <polygon shape-rendering="crispEdges" points="569.866,398.993 569.293,400.756 567.793,401.846 565.938,401.846 564.438,400.756 563.866,398.993 564.438,397.229 565.938,396.14 567.793,396.14 569.293,397.229" fill="#fec834"/>
   <polyline stroke-width="0.5" points="569.866,398.993 569.293,400.756 567.793,401.846 565.938,401.846 564.438,400.756 563.866,398.993 564.438,397.229 565.938,396.14 567.793,396.14 569.293,397.229 569.866,398.993" fill="none" stroke-linecap="round" stroke-linejoin="round" stroke="#fec834"/>
   <polygon shape-rendering="crispEdges" points="617.037,345.973 616.464,347.736 614.964,348.826 613.11,348.826 611.61,347.736 611.037,345.973 611.61,344.209 613.11,343.12 614.964,343.12 616.464,344.209" fill="#fec834"/>
   <polyline stroke-width="0.5" points="617.037,345.973 616.464,347.736 614.964,348.826 613.11,348.826 611.61,347.736 611.037,345.973 611.61,344.209 613.11,343.12 614.964,343.12 616.464,344.209 617.037,345.973" fill="none" stroke-linecap="round" stroke-linejoin="round" stroke="#fec834"/>
   <polygon shape-rendering="crispEdges" points="617.037,104.387 616.464,106.15 614.964,107.24 613.11,107.24 611.61,106.15 611.037,104.387 611.61,102.624 613.11,101.534 614.964,101.534 616.464,102.624" fill="#fec834"/>
   <polyline stroke-width="0.5" points="617.037,104.387 616.464,106.15 614.964,107.24 613.11,107.24 611.61,106.15 611.037,104.387 611.61,102.624 613.11,101.534 614.964,101.534 616.464,102.624 617.037,104.387" fill="none" stroke-linecap="round" stroke-linejoin="round" stroke="#fec834"/>
   <polygon shape-rendering="crispEdges" points="664.208,323.843 663.635,325.606 662.135,326.696 660.281,326.696 658.781,325.606 658.208,323.843 658.781,322.08 660.281,320.99 662.135,320.99 663.635,322.08" fill="#fec834"/>
   <polyline stroke-width="0.5" points="664.208,323.843 663.635,325.606 662.135,326.696 660.281,326.696 658.781,325.606 658.208,323.843 658.781,322.08 660.281,320.99 662.135,320.99 663.635,322.08 664.208,323.843" fill="none" stroke-linecap="round" stroke-linejoin="round" stroke="#fec834"/>
   <polygon shape-rendering="crispEdges" points="679.932,311.856 679.359,313.619 677.859,314.709 676.005,314.709 674.505,313.619 673.932,311.856 674.505,310.092 676.005,309.002 677.859,309.002 679.359,310.092" fill="#fec834"/>
   <polyline stroke-width="0.5" points="679.932,311.856 679.359,313.619 677.859,314.709 676.005,314.709 674.505,313.619 673.932,311.856 674.505,310.092 676.005,309.002 677.859,309.002 679.359,310.092 679.932,311.856" fill="none" stroke-linecap="round" stroke-linejoin="round" stroke="#fec834"/>
   <polygon shape-rendering="crispEdges" points="711.379,388.85 710.806,390.613 709.306,391.703 707.452,391.703 705.952,390.613 705.379,388.85 705.952,387.086 707.452,385.997 709.306,385.997 710.806,387.086" fill="#fec834"/>
   <polyline stroke-width="0.5" points="711.379,388.85 710.806,390.613 709.306,391.703 707.452,391.703 705.952,390.613 705.379,388.85 705.952,387.086 707.452,385.997 709.306,385.997 710.806,387.086 711.379,388.85" fill="none" stroke-linecap="round" stroke-linejoin="round" stroke="#fec834"/>
   <polygon shape-rendering="crispEdges" points="758.55,395.304 757.978,397.067 756.478,398.157 754.624,398.157 753.124,397.067 752.55,395.304 753.124,393.541 754.624,392.451 756.478,392.451 757.978,393.541" fill="#fec834"/>
   <polyline stroke-width="0.5" points="758.55,395.304 757.978,397.067 756.478,398.157 754.624,398.157 753.124,397.067 752.55,395.304 753.124,393.541 754.624,392.451 756.478,392.451 757.978,393.541 758.55,395.304" fill="none" stroke-linecap="round" stroke-linejoin="round" stroke="#fec834"/>
   <polygon shape-rendering="crispEdges" points="789.998,400.837 789.425,402.6 787.925,403.69 786.071,403.69 784.571,402.6 783.998,400.837 784.571,399.073 786.071,397.983 787.925,397.983 789.425,399.073" fill="#fec834"/>
   <polyline stroke-width="0.5" points="789.998,400.837 789.425,402.6 787.925,403.69 786.071,403.69 784.571,402.6 783.998,400.837 784.571,399.073 786.071,397.983 787.925,397.983 789.425,399.073 789.998,400.837" fill="none" stroke-linecap="round" stroke-linejoin="round" stroke="#fec834"/>
   <polygon shape-rendering="crispEdges" points="805.722,128.361 805.148,130.125 803.648,131.214 801.794,131.214 800.294,130.125 799.722,128.361 800.294,126.598 801.794,125.508 803.648,125.508 805.148,126.598" fill="#fec834"/>
   <polyline stroke-width="0.5" points="805.722,128.361 805.148,130.125 803.648,131.214 801.794,131.214 800.294,130.125 799.722,128.361 800.294,126.598 801.794,125.508 803.648,125.508 805.148,126.598 805.722,128.361" fill="none" stroke-linecap="round" stroke-linejoin="round" stroke="#fec834"/>
   <polygon shape-rendering="crispEdges" points="821.445,400.376 820.873,402.139 819.373,403.229 817.519,403.229 816.019,402.139 815.445,400.376 816.019,398.612 817.519,397.522 819.373,397.522 820.873,398.612" fill="#fec834"/>
   <polyline stroke-width="0.5" points="821.445,400.376 820.873,402.139 819.373,403.229 817.519,403.229 816.019,402.139 815.445,400.376 816.019,398.612 817.519,397.522 819.373,397.522 820.873,398.612 821.445,400.376" fill="none" stroke-linecap="round" stroke-linejoin="round" stroke="#fec834"/>
   <polygon shape-rendering="crispEdges" points="852.893,238.55 852.32,240.313 850.82,241.403 848.966,241.403 847.466,240.313 846.893,238.55 847.466,236.787 848.966,235.697 850.82,235.697 852.32,236.787" fill="#fec834"/>
   <polyline stroke-width="0.5" points="852.893,238.55 852.32,240.313 850.82,241.403 848.966,241.403 847.466,240.313 846.893,238.55 847.466,236.787 848.966,235.697 850.82,235.697 852.32,236.787 852.893,238.55" fill="none" stroke-linecap="round" stroke-linejoin="round" stroke="#fec834"/>
   <polygon shape-rendering="crispEdges" points="852.893,375.479 852.32,377.243 850.82,378.333 848.966,378.333 847.466,377.243 846.893,375.479 847.466,373.716 848.966,372.626 850.82,372.626 852.32,373.716" fill="#fec834"/>
   <polyline stroke-width="0.5" points="852.893,375.479 852.32,377.243 850.82,378.333 848.966,378.333 847.466,377.243 846.893,375.479 847.466,373.716 848.966,372.626 850.82,372.626 852.32,373.716 852.893,375.479" fill="none" stroke-linecap="round" stroke-linejoin="round" stroke="#fec834"/>
   <polygon shape-rendering="crispEdges" points="884.34,341.823 883.768,343.587 882.268,344.677 880.413,344.677 878.913,343.587 878.34,341.823 878.913,340.06 880.413,338.97 882.268,338.97 883.768,340.06" fill="#fec834"/>
   <polyline stroke-width="0.5" points="884.34,341.823 883.768,343.587 882.268,344.677 880.413,344.677 878.913,343.587 878.34,341.823 878.913,340.06 880.413,338.97 882.268,338.97 883.768,340.06 884.34,341.823" fill="none" stroke-linecap="round" stroke-linejoin="round" stroke="#fec834"/>
   <polygon shape-rendering="crispEdges" points="129.602,378.707 129.028,380.47 127.528,381.56 125.674,381.56 124.174,380.47 123.602,378.707 124.174,376.943 125.674,375.854 127.528,375.854 129.028,376.943" fill="#8bca50"/>
   <polyline stroke-width="0.5" points="129.602,378.707 129.028,380.47 127.528,381.56 125.674,381.56 124.174,380.47 123.602,378.707 124.174,376.943 125.674,375.854 127.528,375.854 129.028,376.943 129.602,378.707" fill="none" stroke-linecap="round" stroke-linejoin="round" stroke="#8bca50"/>
   <polygon shape-rendering="crispEdges" points="145.325,365.798 144.752,367.561 143.252,368.651 141.398,368.651 139.898,367.561 139.325,365.798 139.898,364.034 141.398,362.944 143.252,362.944 144.752,364.034" fill="#8bca50"/>
   <polyline stroke-width="0.5" points="145.325,365.798 144.752,367.561 143.252,368.651 141.398,368.651 139.898,367.561 139.325,365.798 139.898,364.034 141.398,362.944 143.252,362.944 144.752,364.034 145.325,365.798" fill="none" stroke-linecap="round" stroke-linejoin="round" stroke="#8bca50"/>
   <polygon shape-rendering="crispEdges" points="161.049,115.452 160.476,117.215 158.976,118.305 157.122,118.305 155.622,117.215 155.049,115.452 155.622,113.688 157.122,112.599 158.976,112.599 160.476,113.688" fill="#8bca50"/>
   <polyline stroke-width="0.5" points="161.049,115.452 160.476,117.215 158.976,118.305 157.122,118.305 155.622,117.215 155.049,115.452 155.622,113.688 157.122,112.599 158.976,112.599 160.476,113.688 161.049,115.452" fill="none" stroke-linecap="round" stroke-linejoin="round" stroke="#8bca50"/>
   <polygon shape-rendering="crispEdges" points="176.772,373.174 176.2,374.938 174.7,376.027 172.846,376.027 171.346,374.938 170.772,373.174 171.346,371.411 172.846,370.321 174.7,370.321 176.2,371.411" fill="#8bca50"/>
   <polyline stroke-width="0.5" points="176.772,373.174 176.2,374.938 174.7,376.027 172.846,376.027 171.346,374.938 170.772,373.174 171.346,371.411 172.846,370.321 174.7,370.321 176.2,371.411 176.772,373.174" fill="none" stroke-linecap="round" stroke-linejoin="round" stroke="#8bca50"/>
   <polygon shape-rendering="crispEdges" points="176.772,368.103 176.2,369.866 174.7,370.956 172.846,370.956 171.346,369.866 170.772,368.103 171.346,366.339 172.846,365.25 174.7,365.25 176.2,366.339" fill="#8bca50"/>
   <polyline stroke-width="0.5" points="176.772,368.103 176.2,369.866 174.7,370.956 172.846,370.956 171.346,369.866 170.772,368.103 171.346,366.339 172.846,365.25 174.7,365.25 176.2,366.339 176.772,368.103" fill="none" stroke-linecap="round" stroke-linejoin="round" stroke="#8bca50"/>
   <polygon shape-rendering="crispEdges" points="223.944,367.181 223.371,368.944 221.871,370.034 220.017,370.034 218.517,368.944 217.944,367.181 218.517,365.417 220.017,364.328 221.871,364.328 223.371,365.417" fill="#8bca50"/>
   <polyline stroke-width="0.5" points="223.944,367.181 223.371,368.944 221.871,370.034 220.017,370.034 218.517,368.944 217.944,367.181 218.517,365.417 220.017,364.328 221.871,364.328 223.371,365.417 223.944,367.181" fill="none" stroke-linecap="round" stroke-linejoin="round" stroke="#8bca50"/>
   <polygon shape-rendering="crispEdges" points="271.115,366.72 270.542,368.483 269.042,369.573 267.188,369.573 265.688,368.483 265.115,366.72 265.688,364.957 267.188,363.867 269.042,363.867 270.542,364.957" fill="#8bca50"/>
   <polyline stroke-width="0.5" points="271.115,366.72 270.542,368.483 269.042,369.573 267.188,369.573 265.688,368.483 265.115,366.72 265.688,364.957 267.188,363.867 269.042,363.867 270.542,364.957 271.115,366.72" fill="none" stroke-linecap="round" stroke-linejoin="round" stroke="#8bca50"/>
   <polygon shape-rendering="crispEdges" points="286.839,118.218 286.266,119.981 284.766,121.071 282.912,121.071 281.412,119.981 280.839,118.218 281.412,116.455 282.912,115.365 284.766,115.365 286.266,116.455" fill="#8bca50"/>
   <polyline stroke-width="0.5" points="286.839,118.218 286.266,119.981 284.766,121.071 282.912,121.071 281.412,119.981 280.839,118.218 281.412,116.455 282.912,115.365 284.766,115.365 286.266,116.455 286.839,118.218" fill="none" stroke-linecap="round" stroke-linejoin="round" stroke="#8bca50"/>
   <polygon shape-rendering="crispEdges" points="334.01,114.53 333.437,116.293 331.937,117.383 330.083,117.383 328.583,116.293 328.01,114.53 328.583,112.767 330.083,111.677 331.937,111.677 333.437,112.767" fill="#8bca50"/>
   <polyline stroke-width="0.5" points="334.01,114.53 333.437,116.293 331.937,117.383 330.083,117.383 328.583,116.293 328.01,114.53 328.583,112.767 330.083,111.677 331.937,111.677 333.437,112.767 334.01,114.53" fill="none" stroke-linecap="round" stroke-linejoin="round" stroke="#8bca50"/>
   <polygon shape-rendering="crispEdges" points="349.733,360.265 349.161,362.028 347.661,363.118 345.807,363.118 344.307,362.028 343.733,360.265 344.307,358.502 345.807,357.412 347.661,357.412 349.161,358.502" fill="#8bca50"/>
   <polyline stroke-width="0.5" points="349.733,360.265 349.161,362.028 347.661,363.118 345.807,363.118 344.307,362.028 343.733,360.265 344.307,358.502 345.807,357.412 347.661,357.412 349.161,358.502 349.733,360.265" fill="none" stroke-linecap="round" stroke-linejoin="round" stroke="#8bca50"/>
   <polygon shape-rendering="crispEdges" points="396.905,114.53 396.332,116.293 394.832,117.383 392.978,117.383 391.478,116.293 390.905,114.53 391.478,112.767 392.978,111.677 394.832,111.677 396.332,112.767" fill="#8bca50"/>
   <polyline stroke-width="0.5" points="396.905,114.53 396.332,116.293 394.832,117.383 392.978,117.383 391.478,116.293 390.905,114.53 391.478,112.767 392.978,111.677 394.832,111.677 396.332,112.767 396.905,114.53" fill="none" stroke-linecap="round" stroke-linejoin="round" stroke="#8bca50"/>
   <polygon shape-rendering="crispEdges" points="412.628,112.225 412.056,113.988 410.556,115.078 408.701,115.078 407.201,113.988 406.628,112.225 407.201,110.461 408.701,109.372 410.556,109.372 412.056,110.461" fill="#8bca50"/>
   <polyline stroke-width="0.5" points="412.628,112.225 412.056,113.988 410.556,115.078 408.701,115.078 407.201,113.988 406.628,112.225 407.201,110.461 408.701,109.372 410.556,109.372 412.056,110.461 412.628,112.225" fill="none" stroke-linecap="round" stroke-linejoin="round" stroke="#8bca50"/>
   <polygon shape-rendering="crispEdges" points="444.076,350.122 443.503,351.886 442.003,352.976 440.149,352.976 438.649,351.886 438.076,350.122 438.649,348.359 440.149,347.269 442.003,347.269 443.503,348.359" fill="#8bca50"/>
   <polyline stroke-width="0.5" points="444.076,350.122 443.503,351.886 442.003,352.976 440.149,352.976 438.649,351.886 438.076,350.122 438.649,348.359 440.149,347.269 442.003,347.269 443.503,348.359 444.076,350.122" fill="none" stroke-linecap="round" stroke-linejoin="round" stroke="#8bca50"/>
   <polygon shape-rendering="crispEdges" points="459.8,352.427 459.227,354.191 457.727,355.281 455.873,355.281 454.373,354.191 453.8,352.427 454.373,350.664 455.873,349.574 457.727,349.574 459.227,350.664" fill="#8bca50"/>
   <polyline stroke-width="0.5" points="459.8,352.427 459.227,354.191 457.727,355.281 455.873,355.281 454.373,354.191 453.8,352.427 454.373,350.664 455.873,349.574 457.727,349.574 459.227,350.664 459.8,352.427" fill="none" stroke-linecap="round" stroke-linejoin="round" stroke="#8bca50"/>
   <polygon shape-rendering="crispEdges" points="506.971,153.718 506.398,155.482 504.898,156.572 503.044,156.572 501.544,155.482 500.971,153.718 501.544,151.955 503.044,150.865 504.898,150.865 506.398,151.955" fill="#8bca50"/>
   <polyline stroke-width="0.5" points="506.971,153.718 506.398,155.482 504.898,156.572 503.044,156.572 501.544,155.482 500.971,153.718 501.544,151.955 503.044,150.865 504.898,150.865 506.398,151.955 506.971,153.718" fill="none" stroke-linecap="round" stroke-linejoin="round" stroke="#8bca50"/>
   <polygon shape-rendering="crispEdges" points="522.694,112.686 522.122,114.449 520.622,115.539 518.768,115.539 517.268,114.449 516.694,112.686 517.268,110.922 518.768,109.833 520.622,109.833 522.122,110.922" fill="#8bca50"/>
   <polyline stroke-width="0.5" points="522.694,112.686 522.122,114.449 520.622,115.539 518.768,115.539 517.268,114.449 516.694,112.686 517.268,110.922 518.768,109.833 520.622,109.833 522.122,110.922 522.694,112.686" fill="none" stroke-linecap="round" stroke-linejoin="round" stroke="#8bca50"/>
   <polygon shape-rendering="crispEdges" points="522.694,148.186 522.122,149.949 520.622,151.039 518.768,151.039 517.268,149.949 516.694,148.186 517.268,146.423 518.768,145.333 520.622,145.333 522.122,146.423" fill="#8bca50"/>
   <polyline stroke-width="0.5" points="522.694,148.186 522.122,149.949 520.622,151.039 518.768,151.039 517.268,149.949 516.694,148.186 517.268,146.423 518.768,145.333 520.622,145.333 522.122,146.423 522.694,148.186" fill="none" stroke-linecap="round" stroke-linejoin="round" stroke="#8bca50"/>
   <polygon shape-rendering="crispEdges" points="569.866,341.823 569.293,343.587 567.793,344.677 565.938,344.677 564.438,343.587 563.866,341.823 564.438,340.06 565.938,338.97 567.793,338.97 569.293,340.06" fill="#8bca50"/>
   <polyline stroke-width="0.5" points="569.866,341.823 569.293,343.587 567.793,344.677 565.938,344.677 564.438,343.587 563.866,341.823 564.438,340.06 565.938,338.97 567.793,338.97 569.293,340.06 569.866,341.823" fill="none" stroke-linecap="round" stroke-linejoin="round" stroke="#8bca50"/>
   <polygon shape-rendering="crispEdges" points="617.037,203.511 616.464,205.274 614.964,206.364 613.11,206.364 611.61,205.274 611.037,203.511 611.61,201.748 613.11,200.658 614.964,200.658 616.464,201.748" fill="#8bca50"/>
   <polyline stroke-width="0.5" points="617.037,203.511 616.464,205.274 614.964,206.364 613.11,206.364 611.61,205.274 611.037,203.511 611.61,201.748 613.11,200.658 614.964,200.658 616.464,201.748 617.037,203.511" fill="none" stroke-linecap="round" stroke-linejoin="round" stroke="#8bca50"/>
   <polygon shape-rendering="crispEdges" points="617.037,110.842 616.464,112.605 614.964,113.695 613.11,113.695 611.61,112.605 611.037,110.842 611.61,109.078 613.11,107.988 614.964,107.988 616.464,109.078" fill="#8bca50"/>
   <polyline stroke-width="0.5" points="617.037,110.842 616.464,112.605 614.964,113.695 613.11,113.695 611.61,112.605 611.037,110.842 611.61,109.078 613.11,107.988 614.964,107.988 616.464,109.078 617.037,110.842" fill="none" stroke-linecap="round" stroke-linejoin="round" stroke="#8bca50"/>
   <polygon shape-rendering="crispEdges" points="664.208,149.569 663.635,151.333 662.135,152.422 660.281,152.422 658.781,151.333 658.208,149.569 658.781,147.806 660.281,146.716 662.135,146.716 663.635,147.806" fill="#8bca50"/>
   <polyline stroke-width="0.5" points="664.208,149.569 663.635,151.333 662.135,152.422 660.281,152.422 658.781,151.333 658.208,149.569 658.781,147.806 660.281,146.716 662.135,146.716 663.635,147.806 664.208,149.569" fill="none" stroke-linecap="round" stroke-linejoin="round" stroke="#8bca50"/>
   <polygon shape-rendering="crispEdges" points="679.932,148.647 679.359,150.41 677.859,151.5 676.005,151.5 674.505,150.41 673.932,148.647 674.505,146.884 676.005,145.794 677.859,145.794 679.359,146.884" fill="#8bca50"/>
   <polyline stroke-width="0.5" points="679.932,148.647 679.359,150.41 677.859,151.5 676.005,151.5 674.505,150.41 673.932,148.647 674.505,146.884 676.005,145.794 677.859,145.794 679.359,146.884 679.932,148.647" fill="none" stroke-linecap="round" stroke-linejoin="round" stroke="#8bca50"/>
   <polygon shape-rendering="crispEdges" points="711.379,325.687 710.806,327.45 709.306,328.54 707.452,328.54 705.952,327.45 705.379,325.687 705.952,323.924 707.452,322.834 709.306,322.834 710.806,323.924" fill="#8bca50"/>
   <polyline stroke-width="0.5" points="711.379,325.687 710.806,327.45 709.306,328.54 707.452,328.54 705.952,327.45 705.379,325.687 705.952,323.924 707.452,322.834 709.306,322.834 710.806,323.924 711.379,325.687" fill="none" stroke-linecap="round" stroke-linejoin="round" stroke="#8bca50"/>
   <polygon shape-rendering="crispEdges" points="758.55,326.148 757.978,327.911 756.478,329.001 754.624,329.001 753.124,327.911 752.55,326.148 753.124,324.385 754.624,323.295 756.478,323.295 757.978,324.385" fill="#8bca50"/>
   <polyline stroke-width="0.5" points="758.55,326.148 757.978,327.911 756.478,329.001 754.624,329.001 753.124,327.911 752.55,326.148 753.124,324.385 754.624,323.295 756.478,323.295 757.978,324.385 758.55,326.148" fill="none" stroke-linecap="round" stroke-linejoin="round" stroke="#8bca50"/>
   <polygon shape-rendering="crispEdges" points="789.998,326.609 789.425,328.373 787.925,329.462 786.071,329.462 784.571,328.373 783.998,326.609 784.571,324.846 786.071,323.756 787.925,323.756 789.425,324.846" fill="#8bca50"/>
   <polyline stroke-width="0.5" points="789.998,326.609 789.425,328.373 787.925,329.462 786.071,329.462 784.571,328.373 783.998,326.609 784.571,324.846 786.071,323.756 787.925,323.756 789.425,324.846 789.998,326.609" fill="none" stroke-linecap="round" stroke-linejoin="round" stroke="#8bca50"/>
   <polygon shape-rendering="crispEdges" points="805.722,112.686 805.148,114.449 803.648,115.539 801.794,115.539 800.294,114.449 799.722,112.686 800.294,110.922 801.794,109.833 803.648,109.833 805.148,110.922" fill="#8bca50"/>
   <polyline stroke-width="0.5" points="805.722,112.686 805.148,114.449 803.648,115.539 801.794,115.539 800.294,114.449 799.722,112.686 800.294,110.922 801.794,109.833 803.648,109.833 805.148,110.922 805.722,112.686" fill="none" stroke-linecap="round" stroke-linejoin="round" stroke="#8bca50"/>
   <polygon shape-rendering="crispEdges" points="821.445,322.46 820.873,324.223 819.373,325.313 817.519,325.313 816.019,324.223 815.445,322.46 816.019,320.696 817.519,319.606 819.373,319.606 820.873,320.696" fill="#8bca50"/>
   <polyline stroke-width="0.5" points="821.445,322.46 820.873,324.223 819.373,325.313 817.519,325.313 816.019,324.223 815.445,322.46 816.019,320.696 817.519,319.606 819.373,319.606 820.873,320.696 821.445,322.46" fill="none" stroke-linecap="round" stroke-linejoin="round" stroke="#8bca50"/>
   <polygon shape-rendering="crispEdges" points="852.893,112.225 852.32,113.988 850.82,115.078 848.966,115.078 847.466,113.988 846.893,112.225 847.466,110.461 848.966,109.372 850.82,109.372 852.32,110.461" fill="#8bca50"/>
   <polyline stroke-width="0.5" points="852.893,112.225 852.32,113.988 850.82,115.078 848.966,115.078 847.466,113.988 846.893,112.225 847.466,110.461 848.966,109.372 850.82,109.372 852.32,110.461 852.893,112.225" fill="none" stroke-linecap="round" stroke-linejoin="round" stroke="#8bca50"/>
   <polygon shape-rendering="crispEdges" points="852.893,189.219 852.32,190.982 850.82,192.072 848.966,192.072 847.466,190.982 846.893,189.219 847.466,187.455 848.966,186.366 850.82,186.366 852.32,187.455" fill="#8bca50"/>
   <polyline stroke-width="0.5" points="852.893,189.219 852.32,190.982 850.82,192.072 848.966,192.072 847.466,190.982 846.893,189.219 847.466,187.455 848.966,186.366 850.82,186.366 852.32,187.455 852.893,189.219" fill="none" stroke-linecap="round" stroke-linejoin="round" stroke="#8bca50"/>
   <polygon shape-rendering="crispEdges" points="884.34,147.264 883.768,149.027 882.268,150.117 880.413,150.117 878.913,149.027 878.34,147.264 878.913,145.5 880.413,144.411 882.268,144.411 883.768,145.5" fill="#8bca50"/>
   <polyline stroke-width="0.5" points="884.34,147.264 883.768,149.027 882.268,150.117 880.413,150.117 878.913,149.027 878.34,147.264 878.913,145.5 880.413,144.411 882.268,144.411 883.768,145.5 884.34,147.264" fill="none" stroke-linecap="round" stroke-linejoin="round" stroke="#8bca50"/>
  </g>
  <clipPath id="cp00973463">
   <polygon points="0,463 973,463 973,0 0,0"/>
  </clipPath>
  <g clip-path="url(#cp00973463)">
   <polygon shape-rendering="crispEdges" points="138.431,144.782 377.748,144.782 377.748,46.5991 138.431,46.5991" fill="#ffffff"/>
   <polyline stroke-dasharray="16,0" stroke-width="0.5" points="138.431,144.782 377.748,144.782" fill="none" stroke-linecap="square" stroke-linejoin="miter" stroke="#262626"/>
   <polyline stroke-dasharray="16,0" stroke-width="0.5" points="138.431,46.5991 377.748,46.5991" fill="none" stroke-linecap="square" stroke-linejoin="miter" stroke="#262626"/>
   <polyline stroke-dasharray="16,0" stroke-width="0.5" points="138.431,144.782 138.431,46.5991" fill="none" stroke-linecap="square" stroke-linejoin="miter" stroke="#262626"/>
   <polyline stroke-dasharray="16,0" stroke-width="0.5" points="377.748,144.782 377.748,46.5991" fill="none" stroke-linecap="square" stroke-linejoin="miter" stroke="#262626"/>
   <polygon shape-rendering="crispEdges" points="162.132,64.9346 161.559,66.6978 160.059,67.7876 158.205,67.7876 156.705,66.6978 156.132,64.9346 156.705,63.1709 158.205,62.0811 160.059,62.0811 161.559,63.1709" fill="#2d88f5"/>
   <polyline stroke-width="0.5" points="162.132,64.9346 161.559,66.6978 160.059,67.7876 158.205,67.7876 156.705,66.6978 156.132,64.9346 156.705,63.1709 158.205,62.0811 160.059,62.0811 161.559,63.1709 162.132,64.9346" fill="none" stroke-linecap="round" stroke-linejoin="round" stroke="#2d88f5"/>
   <g font-weight="normal" font-size="18" transform="translate(179.833,71.4343) rotate(-0,-0,-6.5)" font-family="'CMU Serif'" font-style="normal" xml:space="preserve">
    <text y="-0" x="0 12 25 37 " fill="rgb(0,0,0)">FCFS</text>
   </g>
   <polygon shape-rendering="crispEdges" points="162.132,95.6904 161.559,97.4536 160.059,98.5435 158.205,98.5435 156.705,97.4536 156.132,95.6904 156.705,93.9272 158.205,92.8374 160.059,92.8374 161.559,93.9272" fill="#fec834"/>
   <polyline stroke-width="0.5" points="162.132,95.6904 161.559,97.4536 160.059,98.5435 158.205,98.5435 156.705,97.4536 156.132,95.6904 156.705,93.9272 158.205,92.8374 160.059,92.8374 161.559,93.9272 162.132,95.6904" fill="none" stroke-linecap="round" stroke-linejoin="round" stroke="#fec834"/>
   <g font-weight="normal" font-size="18" transform="translate(179.833,102.19) rotate(-0,-0,-6.5)" font-family="'CMU Serif'" font-style="normal" xml:space="preserve">
    <text y="-0" x="0 10 19 " fill="rgb(0,0,0)">SJF</text>
   </g>
   <polygon shape-rendering="crispEdges" points="162.132,126.446 161.559,128.21 160.059,129.3 158.205,129.3 156.705,128.21 156.132,126.446 156.705,124.683 158.205,123.593 160.059,123.593 161.559,124.683" fill="#8bca50"/>
   <polyline stroke-width="0.5" points="162.132,126.446 161.559,128.21 160.059,129.3 158.205,129.3 156.705,128.21 156.132,126.446 156.705,124.683 158.205,123.593 160.059,123.593 161.559,124.683 162.132,126.446" fill="none" stroke-linecap="round" stroke-linejoin="round" stroke="#8bca50"/>
   <g font-weight="normal" font-size="18" transform="translate(179.833,136.446) rotate(-0,-0,-10)" font-family="'CMU Serif'" font-style="normal" xml:space="preserve">
    <text y="-5" x="0 13 26 32 39 46 51 66 74 80 89 99 108 118 125 135 150 156 170 176 185 " fill="rgb(0,0,0)">RR (time quantum = 8)</text>
   </g>
  </g>
 </g>
</svg>
