<?xml version='1.0' encoding='UTF-8' standalone='no'?>
<svg xmlns="http://www.w3.org/2000/svg" viewBox="0 0 973 463" width="973pt" height="463pt" xmlns:xlink="http://www.w3.org/1999/xlink">
 <title>Figure 1</title>
 <desc>
Creator: GL2PS 1.4.2, (C) 1999-2020 C. Geuzaine
For: Octave
CreationDate: Tue Dec 26 17:00:53 2023
</desc>
 <defs/>
 <polygon points="0,0 973,0 973,463 0,463" fill="#ffffff"/>
 <g>
  <polygon points="0,463 973,463 973,0 0,0" shape-rendering="crispEdges" fill="#ffffff"/>
  <clipPath id="cp00973463">
   <polygon points="0,463 973,463 973,0 0,0"/>
  </clipPath>
  <g clip-path="url(#cp00973463)">
   <polygon points="126.602,412.601 881.34,412.601 881.34,34.7695 126.602,34.7695" shape-rendering="crispEdges" fill="#ffffff"/>
   <g transform="translate(30.6048,223.685) rotate(-90,51,0)" font-size="24" xml:space="preserve" font-weight="normal" font-family="'CMU Serif'" font-style="normal">
    <text x="0 9 16 36 47 55 64 84 93 " y="-6" fill="rgb(38,38,38)">time (ms)</text>
   </g>
   <polygon points="259.938,412.601 259.938,69.4673 189.496,69.4673 189.496,412.601" shape-rendering="crispEdges" fill="#2d88f5"/>
   <polygon points="637.308,412.601 637.308,54.27 566.866,54.27 566.866,412.601" shape-rendering="crispEdges" fill="#2d88f5"/>
   <polyline stroke-linejoin="round" points="126.602,412.601 881.34,412.601" stroke-linecap="butt" fill="none" stroke="#000000" stroke-width="0.5"/>
   <polygon points="350.507,412.601 350.507,225.259 280.065,225.259 280.065,412.601" shape-rendering="crispEdges" fill="#fec834"/>
   <polygon points="727.877,412.601 727.877,210.062 657.435,210.062 657.435,412.601" shape-rendering="crispEdges" fill="#fec834"/>
   <polygon points="441.076,412.601 441.076,92.9556 370.634,92.9556 370.634,412.601" shape-rendering="crispEdges" fill="#8bca50"/>
   <polygon points="818.445,412.601 818.445,77.7583 748.003,77.7583 748.003,412.601" shape-rendering="crispEdges" fill="#8bca50"/>
   <g transform="translate(191.217,65.6889) rotate(-0,33.5,0)" font-size="24" xml:space="preserve" font-weight="normal" font-family="'CMU Serif'" font-style="normal">
    <text x="0 12 24 36 43 55 " y="-0" fill="rgb(0,0,0)">272.45</text>
   </g>
   <g transform="translate(568.587,50.4917) rotate(-0,33.5,0)" font-size="24" xml:space="preserve" font-weight="normal" font-family="'CMU Serif'" font-style="normal">
    <text x="0 12 24 36 43 55 " y="-0" fill="rgb(0,0,0)">284.52</text>
   </g>
   <g transform="translate(281.786,221.481) rotate(-0,33.5,0)" font-size="24" xml:space="preserve" font-weight="normal" font-family="'CMU Serif'" font-style="normal">
    <text x="0 12 24 36 43 55 " y="-0" fill="rgb(0,0,0)">148.75</text>
   </g>
   <g transform="translate(659.156,206.284) rotate(-0,33.5,0)" font-size="24" xml:space="preserve" font-weight="normal" font-family="'CMU Serif'" font-style="normal">
    <text x="0 12 24 36 43 55 " y="-0" fill="rgb(0,0,0)">160.82</text>
   </g>
   <g transform="translate(378.355,89.1774) rotate(-0,27.5,0)" font-size="24" xml:space="preserve" font-weight="normal" font-family="'CMU Serif'" font-style="normal">
    <text x="0 12 24 36 43 " y="-0" fill="rgb(0,0,0)">253.8</text>
   </g>
   <g transform="translate(749.724,73.9802) rotate(-0,33.5,0)" font-size="24" xml:space="preserve" font-weight="normal" font-family="'CMU Serif'" font-style="normal">
    <text x="0 12 24 36 43 55 " y="-0" fill="rgb(0,0,0)">265.87</text>
   </g>
   <polyline stroke-linejoin="round" points="315.286,412.601 315.286,34.7695" stroke-linecap="butt" fill="none" stroke="#262626" stroke-width="0.5" stroke-opacity="0.15" stroke-dasharray="16,0"/>
   <polyline stroke-linejoin="round" points="692.656,412.601 692.656,34.7695" stroke-linecap="butt" fill="none" stroke="#262626" stroke-width="0.5" stroke-opacity="0.15" stroke-dasharray="16,0"/>
   <polyline stroke-linejoin="round" points="315.286,412.601 315.286,405.057" stroke-linecap="butt" fill="none" stroke="#262626" stroke-width="0.5"/>
   <polyline stroke-linejoin="round" points="315.286,34.7695 315.286,42.3135" stroke-linecap="butt" fill="none" stroke="#262626" stroke-width="0.5"/>
   <polyline stroke-linejoin="round" points="692.656,412.601 692.656,405.057" stroke-linecap="butt" fill="none" stroke="#262626" stroke-width="0.5"/>
   <polyline stroke-linejoin="round" points="692.656,34.7695 692.656,42.3135" stroke-linecap="butt" fill="none" stroke="#262626" stroke-width="0.5"/>
   <g transform="translate(235.786,445.594) rotate(-0,79.5,-18)" font-size="20" xml:space="preserve" font-weight="normal" font-family="'CMU Serif'" font-style="normal">
    <text x="0 10 21 30 38 48 58 67 74 88 98 104 112 119 127 133 150 " y="-4" fill="rgb(38,38,38)">average wait time</text>
   </g>
   <g transform="translate(582.656,446.594) rotate(-0,110,-19)" font-size="20" xml:space="preserve" font-weight="normal" font-family="'CMU Serif'" font-style="normal">
    <text x="0 10 21 30 38 48 58 67 74 82 93 101 112 122 130 140 151 162 173 180 188 194 211 " y="-4" fill="rgb(38,38,38)">average turnaround time</text>
   </g>
   <polyline stroke-linejoin="round" points="126.602,412.601 881.34,412.601" stroke-linecap="butt" fill="none" stroke="#262626" stroke-width="0.5" stroke-opacity="0.15" stroke-dasharray="16,0"/>
   <polyline stroke-linejoin="round" points="126.602,349.629 881.34,349.629" stroke-linecap="butt" fill="none" stroke="#262626" stroke-width="0.5" stroke-opacity="0.15" stroke-dasharray="16,0"/>
   <polyline stroke-linejoin="round" points="126.602,286.657 881.34,286.657" stroke-linecap="butt" fill="none" stroke="#262626" stroke-width="0.5" stroke-opacity="0.15" stroke-dasharray="16,0"/>
   <polyline stroke-linejoin="round" points="126.602,223.685 881.34,223.685" stroke-linecap="butt" fill="none" stroke="#262626" stroke-width="0.5" stroke-opacity="0.15" stroke-dasharray="16,0"/>
   <polyline stroke-linejoin="round" points="126.602,160.713 881.34,160.713" stroke-linecap="butt" fill="none" stroke="#262626" stroke-width="0.5" stroke-opacity="0.15" stroke-dasharray="16,0"/>
   <polyline stroke-linejoin="round" points="126.602,97.7417 881.34,97.7417" stroke-linecap="butt" fill="none" stroke="#262626" stroke-width="0.5" stroke-opacity="0.15" stroke-dasharray="16,0"/>
   <polyline stroke-linejoin="round" points="126.602,34.7695 881.34,34.7695" stroke-linecap="butt" fill="none" stroke="#262626" stroke-width="0.5" stroke-opacity="0.15" stroke-dasharray="16,0"/>
   <polyline stroke-linejoin="round" points="126.602,412.601 134.146,412.601" stroke-linecap="butt" fill="none" stroke="#262626" stroke-width="0.5"/>
   <polyline stroke-linejoin="round" points="881.34,412.601 873.795,412.601" stroke-linecap="butt" fill="none" stroke="#262626" stroke-width="0.5"/>
   <polyline stroke-linejoin="round" points="126.602,349.629 134.146,349.629" stroke-linecap="butt" fill="none" stroke="#262626" stroke-width="0.5"/>
   <polyline stroke-linejoin="round" points="881.34,349.629 873.795,349.629" stroke-linecap="butt" fill="none" stroke="#262626" stroke-width="0.5"/>
   <polyline stroke-linejoin="round" points="126.602,286.657 134.146,286.657" stroke-linecap="butt" fill="none" stroke="#262626" stroke-width="0.5"/>
   <polyline stroke-linejoin="round" points="881.34,286.657 873.795,286.657" stroke-linecap="butt" fill="none" stroke="#262626" stroke-width="0.5"/>
   <polyline stroke-linejoin="round" points="126.602,223.685 134.146,223.685" stroke-linecap="butt" fill="none" stroke="#262626" stroke-width="0.5"/>
   <polyline stroke-linejoin="round" points="881.34,223.685 873.795,223.685" stroke-linecap="butt" fill="none" stroke="#262626" stroke-width="0.5"/>
   <polyline stroke-linejoin="round" points="126.602,160.713 134.146,160.713" stroke-linecap="butt" fill="none" stroke="#262626" stroke-width="0.5"/>
   <polyline stroke-linejoin="round" points="881.34,160.713 873.795,160.713" stroke-linecap="butt" fill="none" stroke="#262626" stroke-width="0.5"/>
   <polyline stroke-linejoin="round" points="126.602,97.7417 134.146,97.7417" stroke-linecap="butt" fill="none" stroke="#262626" stroke-width="0.5"/>
   <polyline stroke-linejoin="round" points="881.34,97.7417 873.795,97.7417" stroke-linecap="butt" fill="none" stroke="#262626" stroke-width="0.5"/>
   <polyline stroke-linejoin="round" points="126.602,34.7695 134.146,34.7695" stroke-linecap="butt" fill="none" stroke="#262626" stroke-width="0.5"/>
   <polyline stroke-linejoin="round" points="881.34,34.7695 873.795,34.7695" stroke-linecap="butt" fill="none" stroke="#262626" stroke-width="0.5"/>
   <g transform="translate(106.605,420.101) rotate(-0,10,-7.5)" font-size="20" xml:space="preserve" font-weight="normal" font-family="'CMU Serif'" font-style="normal">
    <text x="0 " y="-0" fill="rgb(38,38,38)">0</text>
   </g>
   <g transform="translate(96.6048,357.129) rotate(-0,20,-7.5)" font-size="20" xml:space="preserve" font-weight="normal" font-family="'CMU Serif'" font-style="normal">
    <text x="0 10 " y="-0" fill="rgb(38,38,38)">50</text>
   </g>
   <g transform="translate(86.6048,294.157) rotate(-0,30,-7.5)" font-size="20" xml:space="preserve" font-weight="normal" font-family="'CMU Serif'" font-style="normal">
    <text x="0 10 20 " y="-0" fill="rgb(38,38,38)">100</text>
   </g>
   <g transform="translate(86.6048,231.185) rotate(-0,30,-7.5)" font-size="20" xml:space="preserve" font-weight="normal" font-family="'CMU Serif'" font-style="normal">
    <text x="0 10 20 " y="-0" fill="rgb(38,38,38)">150</text>
   </g>
   <g transform="translate(86.6048,168.213) rotate(-0,30,-7.5)" font-size="20" xml:space="preserve" font-weight="normal" font-family="'CMU Serif'" font-style="normal">
    <text x="0 10 20 " y="-0" fill="rgb(38,38,38)">200</text>
   </g>
   <g transform="translate(86.6048,105.242) rotate(-0,30,-7.5)" font-size="20" xml:space="preserve" font-weight="normal" font-family="'CMU Serif'" font-style="normal">
    <text x="0 10 20 " y="-0" fill="rgb(38,38,38)">250</text>
   </g>
   <g transform="translate(86.6048,42.2697) rotate(-0,30,-7.5)" font-size="20" xml:space="preserve" font-weight="normal" font-family="'CMU Serif'" font-style="normal">
    <text x="0 10 20 " y="-0" fill="rgb(38,38,38)">300</text>
   </g>
   <polyline stroke-linejoin="round" points="126.602,412.601 881.34,412.601" stroke-linecap="square" fill="none" stroke="#262626" stroke-width="0.5" stroke-dasharray="16,0"/>
   <polyline stroke-linejoin="round" points="126.602,34.7695 881.34,34.7695" stroke-linecap="square" fill="none" stroke="#262626" stroke-width="0.5" stroke-dasharray="16,0"/>
   <polyline stroke-linejoin="round" points="126.602,412.601 126.602,34.7695" stroke-linecap="square" fill="none" stroke="#262626" stroke-width="0.5" stroke-dasharray="16,0"/>
   <polyline stroke-linejoin="round" points="881.34,412.601 881.34,34.7695" stroke-linecap="square" fill="none" stroke="#262626" stroke-width="0.5" stroke-dasharray="16,0"/>
  </g>
  <clipPath id="cp00973463">
   <polygon points="0,463 973,463 973,0 0,0"/>
  </clipPath>
  <g clip-path="url(#cp00973463)">
   <polygon points="382.812,400.771 625.129,400.771 625.129,302.589 382.812,302.589" shape-rendering="crispEdges" fill="#ffffff"/>
   <polyline stroke-linejoin="miter" points="382.812,400.771 625.129,400.771" stroke-linecap="square" fill="none" stroke="#262626" stroke-width="0.5" stroke-dasharray="16,0"/>
   <polyline stroke-linejoin="miter" points="382.812,302.589 625.129,302.589" stroke-linecap="square" fill="none" stroke="#262626" stroke-width="0.5" stroke-dasharray="16,0"/>
   <polyline stroke-linejoin="miter" points="382.812,400.771 382.812,302.589" stroke-linecap="square" fill="none" stroke="#262626" stroke-width="0.5" stroke-dasharray="16,0"/>
   <polyline stroke-linejoin="miter" points="625.129,400.771 625.129,302.589" stroke-linecap="square" fill="none" stroke="#262626" stroke-width="0.5" stroke-dasharray="16,0"/>
   <polygon points="418.3,333.345 418.3,308.503 388.727,308.503 388.727,333.345" shape-rendering="crispEdges" fill="#2d88f5"/>
   <g transform="translate(424.215,327.424) rotate(-0,-0,-6.5)" font-size="18" xml:space="preserve" font-weight="normal" font-family="'CMU Serif'" font-style="normal">
    <text x="0 12 25 37 " y="-0" fill="rgb(0,0,0)">FCFS</text>
   </g>
   <polygon points="418.3,364.101 418.3,339.259 388.727,339.259 388.727,364.101" shape-rendering="crispEdges" fill="#fec834"/>
   <g transform="translate(424.215,358.18) rotate(-0,-0,-6.5)" font-size="18" xml:space="preserve" font-weight="normal" font-family="'CMU Serif'" font-style="normal">
    <text x="0 10 19 " y="-0" fill="rgb(0,0,0)">SJF</text>
   </g>
   <polygon points="418.3,394.857 418.3,370.016 388.727,370.016 388.727,394.857" shape-rendering="crispEdges" fill="#8bca50"/>
   <g transform="translate(424.215,392.436) rotate(-0,-0,-10)" font-size="18" xml:space="preserve" font-weight="normal" font-family="'CMU Serif'" font-style="normal">
    <text x="0 13 26 32 39 46 51 66 74 80 89 99 108 118 125 130 145 153 159 173 179 188 " y="-5" fill="rgb(0,0,0)">RR (time quantime = 8)</text>
   </g>
  </g>
 </g>
</svg>
