<?xml version='1.0' encoding='UTF-8' standalone='no'?>
<svg xmlns="http://www.w3.org/2000/svg" xmlns:xlink="http://www.w3.org/1999/xlink" height="463pt" width="973pt" viewBox="0 0 973 463">
 <title>Figure 1</title>
 <desc>
Creator: GL2PS 1.4.2, (C) 1999-2020 C. Geuzaine
For: Octave
CreationDate: Tue Dec 26 16:35:18 2023
</desc>
 <defs/>
 <polygon points="0,0 973,0 973,463 0,463" fill="#ffffff"/>
 <g>
  <polygon points="0,463 973,463 973,0 0,0" fill="#ffffff" shape-rendering="crispEdges"/>
  <clipPath id="cp00973463">
   <polygon points="0,463 973,463 973,0 0,0"/>
  </clipPath>
  <g clip-path="url(#cp00973463)">
   <polygon points="126.602,403.603 881.34,403.603 881.34,34.7695 126.602,34.7695" fill="#ffffff" shape-rendering="crispEdges"/>
   <polyline points="126.602,403.603 126.602,34.7695" stroke-linejoin="miter" stroke-linecap="butt" stroke-width="0.5" fill="none" stroke="#262626" stroke-opacity="0.15" stroke-dasharray="16,0"/>
   <polyline points="315.286,403.603 315.286,34.7695" stroke-linejoin="miter" stroke-linecap="butt" stroke-width="0.5" fill="none" stroke="#262626" stroke-opacity="0.15" stroke-dasharray="16,0"/>
   <polyline points="503.971,403.603 503.971,34.7695" stroke-linejoin="miter" stroke-linecap="butt" stroke-width="0.5" fill="none" stroke="#262626" stroke-opacity="0.15" stroke-dasharray="16,0"/>
   <polyline points="692.656,403.603 692.656,34.7695" stroke-linejoin="miter" stroke-linecap="butt" stroke-width="0.5" fill="none" stroke="#262626" stroke-opacity="0.15" stroke-dasharray="16,0"/>
   <polyline points="881.34,403.603 881.34,34.7695" stroke-linejoin="miter" stroke-linecap="butt" stroke-width="0.5" fill="none" stroke="#262626" stroke-opacity="0.15" stroke-dasharray="16,0"/>
   <polyline points="126.602,403.603 126.602,396.059" stroke-linejoin="miter" stroke-linecap="butt" stroke-width="0.5" fill="none" stroke="#262626"/>
   <polyline points="126.602,34.7695 126.602,42.3135" stroke-linejoin="miter" stroke-linecap="butt" stroke-width="0.5" fill="none" stroke="#262626"/>
   <polyline points="315.286,403.603 315.286,396.059" stroke-linejoin="miter" stroke-linecap="butt" stroke-width="0.5" fill="none" stroke="#262626"/>
   <polyline points="315.286,34.7695 315.286,42.3135" stroke-linejoin="miter" stroke-linecap="butt" stroke-width="0.5" fill="none" stroke="#262626"/>
   <polyline points="503.971,403.603 503.971,396.059" stroke-linejoin="miter" stroke-linecap="butt" stroke-width="0.5" fill="none" stroke="#262626"/>
   <polyline points="503.971,34.7695 503.971,42.3135" stroke-linejoin="miter" stroke-linecap="butt" stroke-width="0.5" fill="none" stroke="#262626"/>
   <polyline points="692.656,403.603 692.656,396.059" stroke-linejoin="miter" stroke-linecap="butt" stroke-width="0.5" fill="none" stroke="#262626"/>
   <polyline points="692.656,34.7695 692.656,42.3135" stroke-linejoin="miter" stroke-linecap="butt" stroke-width="0.5" fill="none" stroke="#262626"/>
   <polyline points="881.34,403.603 881.34,396.059" stroke-linejoin="miter" stroke-linecap="butt" stroke-width="0.5" fill="none" stroke="#262626"/>
   <polyline points="881.34,34.7695 881.34,42.3135" stroke-linejoin="miter" stroke-linecap="butt" stroke-width="0.5" fill="none" stroke="#262626"/>
   <g font-family="'CMU Serif'" font-size="20" xml:space="preserve" font-weight="normal" font-style="normal" transform="translate(121.601,433.596) rotate(-0,5,-15)">
    <text x="0 " y="-0" fill="rgb(38,38,38)">0</text>
   </g>
   <g font-family="'CMU Serif'" font-size="20" xml:space="preserve" font-weight="normal" font-style="normal" transform="translate(305.286,433.596) rotate(-0,10,-15)">
    <text x="0 10 " y="-0" fill="rgb(38,38,38)">10</text>
   </g>
   <g font-family="'CMU Serif'" font-size="20" xml:space="preserve" font-weight="normal" font-style="normal" transform="translate(493.971,433.596) rotate(-0,10,-15)">
    <text x="0 10 " y="-0" fill="rgb(38,38,38)">20</text>
   </g>
   <g font-family="'CMU Serif'" font-size="20" xml:space="preserve" font-weight="normal" font-style="normal" transform="translate(682.656,433.596) rotate(-0,10,-15)">
    <text x="0 10 " y="-0" fill="rgb(38,38,38)">30</text>
   </g>
   <g font-family="'CMU Serif'" font-size="20" xml:space="preserve" font-weight="normal" font-style="normal" transform="translate(871.34,433.596) rotate(-0,10,-15)">
    <text x="0 10 " y="-0" fill="rgb(38,38,38)">40</text>
   </g>
   <polyline points="126.602,403.603 881.34,403.603" stroke-linejoin="miter" stroke-linecap="butt" stroke-width="0.5" fill="none" stroke="#262626" stroke-opacity="0.15" stroke-dasharray="16,0"/>
   <polyline points="126.602,311.395 881.34,311.395" stroke-linejoin="miter" stroke-linecap="butt" stroke-width="0.5" fill="none" stroke="#262626" stroke-opacity="0.15" stroke-dasharray="16,0"/>
   <polyline points="126.602,219.187 881.34,219.187" stroke-linejoin="miter" stroke-linecap="butt" stroke-width="0.5" fill="none" stroke="#262626" stroke-opacity="0.15" stroke-dasharray="16,0"/>
   <polyline points="126.602,126.978 881.34,126.978" stroke-linejoin="miter" stroke-linecap="butt" stroke-width="0.5" fill="none" stroke="#262626" stroke-opacity="0.15" stroke-dasharray="16,0"/>
   <polyline points="126.602,34.7695 881.34,34.7695" stroke-linejoin="miter" stroke-linecap="butt" stroke-width="0.5" fill="none" stroke="#262626" stroke-opacity="0.15" stroke-dasharray="16,0"/>
   <polyline points="126.602,403.603 134.146,403.603" stroke-linejoin="miter" stroke-linecap="butt" stroke-width="0.5" fill="none" stroke="#262626"/>
   <polyline points="881.34,403.603 873.795,403.603" stroke-linejoin="miter" stroke-linecap="butt" stroke-width="0.5" fill="none" stroke="#262626"/>
   <polyline points="126.602,311.395 134.146,311.395" stroke-linejoin="miter" stroke-linecap="butt" stroke-width="0.5" fill="none" stroke="#262626"/>
   <polyline points="881.34,311.395 873.795,311.395" stroke-linejoin="miter" stroke-linecap="butt" stroke-width="0.5" fill="none" stroke="#262626"/>
   <polyline points="126.602,219.187 134.146,219.187" stroke-linejoin="miter" stroke-linecap="butt" stroke-width="0.5" fill="none" stroke="#262626"/>
   <polyline points="881.34,219.187 873.795,219.187" stroke-linejoin="miter" stroke-linecap="butt" stroke-width="0.5" fill="none" stroke="#262626"/>
   <polyline points="126.602,126.978 134.146,126.978" stroke-linejoin="miter" stroke-linecap="butt" stroke-width="0.5" fill="none" stroke="#262626"/>
   <polyline points="881.34,126.978 873.795,126.978" stroke-linejoin="miter" stroke-linecap="butt" stroke-width="0.5" fill="none" stroke="#262626"/>
   <polyline points="126.602,34.7695 134.146,34.7695" stroke-linejoin="miter" stroke-linecap="butt" stroke-width="0.5" fill="none" stroke="#262626"/>
   <polyline points="881.34,34.7695 873.795,34.7695" stroke-linejoin="miter" stroke-linecap="butt" stroke-width="0.5" fill="none" stroke="#262626"/>
   <g font-family="'CMU Serif'" font-size="20" xml:space="preserve" font-weight="normal" font-style="normal" transform="translate(106.605,411.103) rotate(-0,10,-7.5)">
    <text x="0 " y="-0" fill="rgb(38,38,38)">0</text>
   </g>
   <g font-family="'CMU Serif'" font-size="20" xml:space="preserve" font-weight="normal" font-style="normal" transform="translate(86.6048,318.895) rotate(-0,30,-7.5)">
    <text x="0 10 20 " y="-0" fill="rgb(38,38,38)">200</text>
   </g>
   <g font-family="'CMU Serif'" font-size="20" xml:space="preserve" font-weight="normal" font-style="normal" transform="translate(86.6048,226.686) rotate(-0,30,-7.5)">
    <text x="0 10 20 " y="-0" fill="rgb(38,38,38)">400</text>
   </g>
   <g font-family="'CMU Serif'" font-size="20" xml:space="preserve" font-weight="normal" font-style="normal" transform="translate(86.6048,134.478) rotate(-0,30,-7.5)">
    <text x="0 10 20 " y="-0" fill="rgb(38,38,38)">600</text>
   </g>
   <g font-family="'CMU Serif'" font-size="20" xml:space="preserve" font-weight="normal" font-style="normal" transform="translate(86.6048,42.2697) rotate(-0,30,-7.5)">
    <text x="0 10 20 " y="-0" fill="rgb(38,38,38)">800</text>
   </g>
   <polyline points="126.602,403.603 881.34,403.603" stroke-linejoin="miter" stroke-linecap="square" stroke-width="0.5" fill="none" stroke="#262626" stroke-dasharray="16,0"/>
   <polyline points="126.602,34.7695 881.34,34.7695" stroke-linejoin="miter" stroke-linecap="square" stroke-width="0.5" fill="none" stroke="#262626" stroke-dasharray="16,0"/>
   <polyline points="126.602,403.603 126.602,34.7695" stroke-linejoin="miter" stroke-linecap="square" stroke-width="0.5" fill="none" stroke="#262626" stroke-dasharray="16,0"/>
   <polyline points="881.34,403.603 881.34,34.7695" stroke-linejoin="miter" stroke-linecap="square" stroke-width="0.5" fill="none" stroke="#262626" stroke-dasharray="16,0"/>
   <g font-family="'CMU Serif'" font-size="24" xml:space="preserve" font-weight="normal" font-style="normal" transform="translate(422.471,463.596) rotate(-0,81.5,-25)">
    <text x="0 13 26 35 44 53 61 70 77 97 108 116 125 145 154 " y="-6" fill="rgb(38,38,38)">burst time (ms)</text>
   </g>
   <g font-family="'CMU Serif'" font-size="24" xml:space="preserve" font-weight="normal" font-style="normal" transform="translate(-31.3952,219.186) rotate(-90,113,0)">
    <text x="0 9 22 31 44 56 65 77 90 103 116 124 133 140 160 171 179 188 208 217 " y="-6" fill="rgb(38,38,38)">turnaround time (ms)</text>
   </g>
   <polyline points="126.602,242.289 128.488,241.648 130.375,241.015 132.262,240.389 134.149,239.77 136.036,239.157 137.922,238.552 139.81,237.953 141.696,237.362 143.583,236.777 145.47,236.199 147.357,235.627 149.244,235.062 151.13,234.505 153.017,233.954 154.904,233.409 156.791,232.871 158.678,232.34 160.564,231.815 162.452,231.296 164.338,230.785 166.225,230.279 168.112,229.781 169.999,229.288 171.886,228.802 173.772,228.323 175.66,227.849 177.546,227.382 179.433,226.922 181.32,226.467 183.207,226.019 185.094,225.577 186.98,225.141 188.867,224.711 190.754,224.288 192.641,223.871 194.528,223.459 196.415,223.054 198.302,222.654 200.188,222.261 202.075,221.874 203.962,221.492 205.849,221.116 207.736,220.746 209.623,220.382 211.51,220.024 213.396,219.672 215.283,219.325 217.17,218.984 219.057,218.649 220.944,218.32 222.831,217.996 224.717,217.678 226.604,217.365 228.491,217.058 230.378,216.756 232.265,216.46 234.152,216.169 236.039,215.884 237.925,215.604 239.812,215.33 241.699,215.061 243.586,214.797 245.473,214.539 247.36,214.286 249.247,214.038 251.133,213.795 253.02,213.558 254.907,213.326 256.794,213.099 258.681,212.876 260.567,212.66 262.455,212.448 264.341,212.241 266.228,212.039 268.115,211.842 270.002,211.65 271.889,211.463 273.775,211.281 275.662,211.104 277.549,210.931 279.436,210.764 281.323,210.601 283.21,210.442 285.097,210.289 286.983,210.14 288.87,209.996 290.757,209.856 292.644,209.722 294.531,209.591 296.417,209.466 298.305,209.345 300.191,209.228 302.078,209.116 303.965,209.008 305.852,208.904 307.739,208.805 309.625,208.711 311.512,208.62 313.399,208.534 315.286,208.453 317.173,208.375 319.06,208.302 320.947,208.232 322.833,208.167 324.72,208.106 326.607,208.05 328.494,207.997 330.381,207.949 332.268,207.904 334.155,207.863 336.042,207.827 337.928,207.794 339.815,207.765 341.702,207.74 343.589,207.719 345.476,207.702 347.362,207.688 349.25,207.679 351.136,207.672 353.023,207.67 354.91,207.672 356.797,207.677 358.684,207.686 360.57,207.698 362.458,207.713 364.344,207.733 366.231,207.756 368.118,207.782 370.005,207.812 371.892,207.845 373.778,207.882 375.665,207.922 377.552,207.965 379.439,208.012 381.326,208.062 383.212,208.115 385.1,208.172 386.986,208.231 388.873,208.294 390.76,208.36 392.647,208.43 394.534,208.502 396.42,208.577 398.308,208.655 400.194,208.737 402.081,208.821 403.968,208.908 405.855,208.999 407.742,209.092 409.628,209.188 411.515,209.287 413.402,209.388 415.289,209.493 417.176,209.6 419.062,209.709 420.95,209.822 422.836,209.938 424.723,210.055 426.61,210.176 428.497,210.299 430.384,210.425 432.271,210.553 434.158,210.684 436.044,210.817 437.931,210.952 439.818,211.09 441.705,211.231 443.592,211.374 445.479,211.519 447.365,211.667 449.252,211.816 451.139,211.968 453.026,212.123 454.913,212.279 456.8,212.438 458.687,212.598 460.573,212.761 462.46,212.926 464.347,213.093 466.234,213.262 468.121,213.433 470.008,213.606 471.895,213.781 473.781,213.958 475.668,214.136 477.555,214.317 479.442,214.5 481.329,214.684 483.215,214.87 485.103,215.058 486.989,215.247 488.876,215.438 490.763,215.631 492.65,215.826 494.537,216.021 496.423,216.219 498.311,216.418 500.197,216.619 502.084,216.822 503.971,217.025 505.858,217.23 507.745,217.437 509.631,217.645 511.518,217.854 513.405,218.065 515.292,218.277 517.179,218.49 519.065,218.705 520.953,218.92 522.839,219.137 524.726,219.355 526.613,219.574 528.5,219.794 530.387,220.016 532.273,220.238 534.161,220.462 536.047,220.686 537.934,220.912 539.821,221.138 541.708,221.365 543.595,221.593 545.481,221.822 547.368,222.052 549.255,222.283 551.142,222.514 553.029,222.746 554.916,222.979 556.803,223.212 558.689,223.446 560.576,223.681 562.463,223.917 564.35,224.153 566.237,224.389 568.124,224.626 570.011,224.864 571.897,225.102 573.784,225.34 575.671,225.579 577.558,225.818 579.445,226.058 581.332,226.297 583.218,226.538 585.105,226.778 586.992,227.019 588.879,227.259 590.766,227.5 592.653,227.742 594.54,227.983 596.426,228.225 598.313,228.466 600.2,228.708 602.087,228.949 603.974,229.19 605.861,229.432 607.748,229.673 609.634,229.915 611.521,230.156 613.408,230.397 615.295,230.638 617.182,230.878 619.068,231.119 620.956,231.359 622.842,231.599 624.729,231.838 626.616,232.078 628.503,232.316 630.39,232.555 632.276,232.792 634.163,233.03 636.05,233.267 637.937,233.503 639.824,233.74 641.71,233.975 643.598,234.209 645.484,234.444 647.371,234.677 649.258,234.91 651.145,235.142 653.032,235.374 654.918,235.604 656.806,235.833 658.692,236.062 660.579,236.291 662.466,236.518 664.353,236.744 666.24,236.97 668.126,237.194 670.014,237.417 671.9,237.64 673.787,237.861 675.674,238.081 677.561,238.3 679.448,238.518 681.334,238.735 683.221,238.951 685.108,239.165 686.995,239.378 688.882,239.59 690.769,239.801 692.656,240.01 694.542,240.218 696.429,240.424 698.316,240.629 700.203,240.833 702.09,241.036 703.977,241.236 705.863,241.435 707.75,241.633 709.637,241.829 711.524,242.023 713.411,242.216 715.298,242.407 717.185,242.597 719.071,242.784 720.958,242.97 722.845,243.154 724.732,243.337 726.619,243.517 728.506,243.696 730.393,243.873 732.279,244.047 734.166,244.221 736.053,244.392 737.94,244.561 739.827,244.727 741.713,244.892 743.601,245.055 745.487,245.215 747.374,245.374 749.261,245.53 751.148,245.685 753.035,245.836 754.921,245.986 756.809,246.133 758.695,246.278 760.582,246.421 762.469,246.562 764.356,246.699 766.243,246.835 768.129,246.968 770.016,247.099 771.903,247.227 773.79,247.353 775.677,247.475 777.563,247.596 779.451,247.713 781.337,247.829 783.224,247.941 785.111,248.051 786.998,248.158 788.885,248.262 790.771,248.364 792.658,248.462 794.545,248.558 796.432,248.651 798.319,248.741 800.206,248.829 802.093,248.913 803.979,248.994 805.866,249.072 807.753,249.147 809.64,249.219 811.527,249.288 813.414,249.354 815.301,249.417 817.188,249.477 819.074,249.533 820.961,249.586 822.848,249.636 824.735,249.682 826.622,249.726 828.509,249.766 830.396,249.802 832.282,249.835 834.169,249.865 836.056,249.891 837.943,249.914 839.83,249.933 841.717,249.949 843.604,249.961 845.49,249.969 847.377,249.974 849.264,249.976 851.151,249.973 853.038,249.967 854.924,249.957 856.812,249.943 858.698,249.926 860.585,249.904 862.472,249.879 864.358,249.85 866.246,249.817 868.132,249.781 870.02,249.74 871.906,249.695 873.793,249.646 875.68,249.593 877.566,249.536 879.454,249.475 881.34,249.41" stroke-linejoin="round" stroke-linecap="butt" stroke-width="1.5" fill="none" stroke="#2d88f5" stroke-dasharray="8,8,8,8"/>
   <polyline points="144.403,403.972 145.47,403.82 147.357,403.553 149.244,403.285 151.13,403.017 153.017,402.749 154.904,402.481 156.791,402.212 158.678,401.944 160.564,401.676 162.452,401.407 164.338,401.138 166.225,400.869 168.112,400.599 169.999,400.33 171.886,400.06 173.772,399.789 175.66,399.518 177.546,399.247 179.433,398.976 181.32,398.704 183.207,398.432 185.094,398.159 186.98,397.885 188.867,397.612 190.754,397.337 192.641,397.062 194.528,396.787 196.415,396.511 198.302,396.235 200.188,395.958 202.075,395.68 203.962,395.401 205.849,395.122 207.736,394.842 209.623,394.562 211.51,394.28 213.396,393.999 215.283,393.715 217.17,393.432 219.057,393.147 220.944,392.862 222.831,392.576 224.717,392.289 226.604,392 228.491,391.711 230.378,391.421 232.265,391.131 234.152,390.839 236.039,390.546 237.925,390.252 239.812,389.957 241.699,389.661 243.586,389.363 245.473,389.065 247.36,388.766 249.247,388.465 251.133,388.163 253.02,387.86 254.907,387.556 256.794,387.25 258.681,386.943 260.567,386.635 262.455,386.326 264.341,386.015 266.228,385.703 268.115,385.389 270.002,385.074 271.889,384.758 273.775,384.44 275.662,384.121 277.549,383.8 279.436,383.478 281.323,383.154 283.21,382.829 285.097,382.501 286.983,382.173 288.87,381.843 290.757,381.511 292.644,381.178 294.531,380.843 296.417,380.506 298.305,380.167 300.191,379.827 302.078,379.485 303.965,379.142 305.852,378.796 307.739,378.448 309.625,378.099 311.512,377.748 313.399,377.395 315.286,377.04 317.173,376.683 319.06,376.325 320.947,375.964 322.833,375.601 324.72,375.236 326.607,374.87 328.494,374.5 330.381,374.129 332.268,373.756 334.155,373.381 336.042,373.004 337.928,372.625 339.815,372.243 341.702,371.859 343.589,371.473 345.476,371.085 347.362,370.694 349.25,370.301 351.136,369.906 353.023,369.509 354.91,369.109 356.797,368.707 358.684,368.302 360.57,367.895 362.458,367.485 364.344,367.074 366.231,366.659 368.118,366.242 370.005,365.823 371.892,365.401 373.778,364.976 375.665,364.549 377.552,364.119 379.439,363.687 381.326,363.252 383.212,362.814 385.1,362.374 386.986,361.931 388.873,361.485 390.76,361.037 392.647,360.585 394.534,360.131 396.42,359.674 398.308,359.214 400.194,358.752 402.081,358.286 403.968,357.818 405.855,357.347 407.742,356.872 409.628,356.395 411.515,355.915 413.402,355.432 415.289,354.945 417.176,354.456 419.062,353.963 420.95,353.468 422.836,352.97 424.723,352.468 426.61,351.963 428.497,351.455 430.384,350.944 432.271,350.429 434.158,349.912 436.044,349.391 437.931,348.866 439.818,348.339 441.705,347.808 443.592,347.273 445.479,346.736 447.365,346.195 449.252,345.651 451.139,345.103 453.026,344.552 454.913,343.997 456.8,343.439 458.687,342.877 460.573,342.312 462.46,341.743 464.347,341.17 466.234,340.595 468.121,340.015 470.008,339.432 471.895,338.845 473.781,338.254 475.668,337.66 477.555,337.062 479.442,336.46 481.329,335.855 483.215,335.246 485.103,334.632 486.989,334.015 488.876,333.395 490.763,332.77 492.65,332.141 494.537,331.509 496.423,330.873 498.311,330.232 500.197,329.588 502.084,328.939 503.971,328.287 505.858,327.63 507.745,326.97 509.631,326.306 511.518,325.637 513.405,324.964 515.292,324.287 517.179,323.606 519.065,322.921 520.953,322.231 522.839,321.538 524.726,320.84 526.613,320.137 528.5,319.431 530.387,318.72 532.273,318.005 534.161,317.285 536.047,316.561 537.934,315.833 539.821,315.1 541.708,314.363 543.595,313.621 545.481,312.875 547.368,312.125 549.255,311.369 551.142,310.609 553.029,309.845 554.916,309.076 556.803,308.303 558.689,307.525 560.576,306.742 562.463,305.955 564.35,305.163 566.237,304.366 568.124,303.564 570.011,302.757 571.897,301.946 573.784,301.13 575.671,300.31 577.558,299.484 579.445,298.654 581.332,297.818 583.218,296.978 585.105,296.133 586.992,295.283 588.879,294.428 590.766,293.567 592.653,292.702 594.54,291.832 596.426,290.957 598.313,290.077 600.2,289.191 602.087,288.301 603.974,287.405 605.861,286.504 607.748,285.598 609.634,284.687 611.521,283.771 613.408,282.849 615.295,281.922 617.182,280.99 619.068,280.053 620.956,279.11 622.842,278.162 624.729,277.208 626.616,276.249 628.503,275.285 630.39,274.315 632.276,273.339 634.163,272.359 636.05,271.373 637.937,270.381 639.824,269.384 641.71,268.381 643.598,267.372 645.484,266.358 647.371,265.338 649.258,264.313 651.145,263.282 653.032,262.246 654.918,261.203 656.806,260.155 658.692,259.102 660.579,258.042 662.466,256.976 664.353,255.905 666.24,254.828 668.126,253.745 670.014,252.656 671.9,251.562 673.787,250.461 675.674,249.354 677.561,248.242 679.448,247.124 681.334,245.999 683.221,244.868 685.108,243.731 686.995,242.589 688.882,241.44 690.769,240.286 692.656,239.125 694.542,237.958 696.429,236.784 698.316,235.604 700.203,234.419 702.09,233.227 703.977,232.029 705.863,230.824 707.75,229.613 709.637,228.396 711.524,227.173 713.411,225.943 715.298,224.707 717.185,223.464 719.071,222.215 720.958,220.959 722.845,219.698 724.732,218.429 726.619,217.154 728.506,215.873 730.393,214.584 732.279,213.29 734.166,211.989 736.053,210.681 737.94,209.366 739.827,208.045 741.713,206.717 743.601,205.383 745.487,204.042 747.374,202.694 749.261,201.339 751.148,199.978 753.035,198.609 754.921,197.234 756.809,195.852 758.695,194.463 760.582,193.067 762.469,191.665 764.356,190.255 766.243,188.838 768.129,187.415 770.016,185.984 771.903,184.546 773.79,183.102 775.677,181.65 777.563,180.191 779.451,178.726 781.337,177.253 783.224,175.772 785.111,174.285 786.998,172.791 788.885,171.289 790.771,169.78 792.658,168.264 794.545,166.741 796.432,165.21 798.319,163.672 800.206,162.126 802.093,160.574 803.979,159.014 805.866,157.446 807.753,155.871 809.64,154.289 811.527,152.699 813.414,151.102 815.301,149.497 817.188,147.884 819.074,146.265 820.961,144.637 822.848,143.002 824.735,141.359 826.622,139.709 828.509,138.051 830.396,136.385 832.282,134.712 834.169,133.031 836.056,131.342 837.943,129.646 839.83,127.941 841.717,126.229 843.604,124.509 845.49,122.782 847.377,121.046 849.264,119.303 851.151,117.551 853.038,115.792 854.924,114.024 856.812,112.25 858.698,110.466 860.585,108.675 862.472,106.875 864.358,105.068 866.246,103.253 868.132,101.429 870.02,99.5977 871.906,97.7578 873.793,95.9102 875.68,94.0537 877.566,92.1895 879.454,90.3169 881.34,88.436" stroke-linejoin="round" stroke-linecap="butt" stroke-width="1.5" fill="none" stroke="#fec834" stroke-dasharray="8,8,8,8"/>
   <polyline points="126.602,355.577 128.488,354.955 130.375,354.329 132.262,353.701 134.149,353.07 136.036,352.437 137.922,351.8 139.81,351.162 141.696,350.52 143.583,349.876 145.47,349.229 147.357,348.58 149.244,347.929 151.13,347.274 153.017,346.618 154.904,345.958 156.791,345.297 158.678,344.633 160.564,343.967 162.452,343.298 164.338,342.626 166.225,341.953 168.112,341.277 169.999,340.599 171.886,339.918 173.772,339.236 175.66,338.551 177.546,337.864 179.433,337.174 181.32,336.482 183.207,335.789 185.094,335.093 186.98,334.395 188.867,333.694 190.754,332.992 192.641,332.288 194.528,331.582 196.415,330.873 198.302,330.163 200.188,329.45 202.075,328.735 203.962,328.019 205.849,327.301 207.736,326.58 209.623,325.858 211.51,325.134 213.396,324.408 215.283,323.68 217.17,322.951 219.057,322.219 220.944,321.486 222.831,320.751 224.717,320.014 226.604,319.276 228.491,318.536 230.378,317.794 232.265,317.05 234.152,316.305 236.039,315.559 237.925,314.81 239.812,314.061 241.699,313.309 243.586,312.556 245.473,311.801 247.36,311.045 249.247,310.288 251.133,309.528 253.02,308.768 254.907,308.006 256.794,307.243 258.681,306.478 260.567,305.712 262.455,304.944 264.341,304.175 266.228,303.405 268.115,302.634 270.002,301.861 271.889,301.087 273.775,300.312 275.662,299.536 277.549,298.758 279.436,297.979 281.323,297.199 283.21,296.418 285.097,295.636 286.983,294.853 288.87,294.069 290.757,293.283 292.644,292.497 294.531,291.709 296.417,290.921 298.305,290.131 300.191,289.341 302.078,288.55 303.965,287.757 305.852,286.964 307.739,286.17 309.625,285.375 311.512,284.58 313.399,283.783 315.286,282.985 317.173,282.188 319.06,281.389 320.947,280.589 322.833,279.789 324.72,278.987 326.607,278.186 328.494,277.383 330.381,276.58 332.268,275.776 334.155,274.972 336.042,274.167 337.928,273.361 339.815,272.556 341.702,271.749 343.589,270.942 345.476,270.134 347.362,269.326 349.25,268.518 351.136,267.709 353.023,266.899 354.91,266.09 356.797,265.28 358.684,264.469 360.57,263.658 362.458,262.847 364.344,262.036 366.231,261.224 368.118,260.412 370.005,259.6 371.892,258.788 373.778,257.975 375.665,257.163 377.552,256.35 379.439,255.537 381.326,254.723 383.212,253.91 385.1,253.097 386.986,252.283 388.873,251.47 390.76,250.656 392.647,249.843 394.534,249.03 396.42,248.216 398.308,247.403 400.194,246.589 402.081,245.776 403.968,244.963 405.855,244.15 407.742,243.338 409.628,242.525 411.515,241.713 413.402,240.9 415.289,240.089 417.176,239.277 419.062,238.465 420.95,237.654 422.836,236.844 424.723,236.033 426.61,235.223 428.497,234.414 430.384,233.604 432.271,232.795 434.158,231.986 436.044,231.179 437.931,230.371 439.818,229.564 441.705,228.757 443.592,227.951 445.479,227.146 447.365,226.341 449.252,225.537 451.139,224.732 453.026,223.93 454.913,223.127 456.8,222.325 458.687,221.524 460.573,220.724 462.46,219.924 464.347,219.125 466.234,218.327 468.121,217.529 470.008,216.733 471.895,215.937 473.781,215.142 475.668,214.348 477.555,213.555 479.442,212.763 481.329,211.971 483.215,211.181 485.103,210.391 486.989,209.603 488.876,208.815 490.763,208.029 492.65,207.244 494.537,206.459 496.423,205.676 498.311,204.894 500.197,204.112 502.084,203.333 503.971,202.554 505.858,201.776 507.745,201 509.631,200.225 511.518,199.451 513.405,198.678 515.292,197.906 517.179,197.136 519.065,196.367 520.953,195.6 522.839,194.833 524.726,194.069 526.613,193.306 528.5,192.543 530.387,191.783 532.273,191.024 534.161,190.266 536.047,189.51 537.934,188.755 539.821,188.002 541.708,187.251 543.595,186.501 545.481,185.752 547.368,185.005 549.255,184.26 551.142,183.517 553.029,182.775 554.916,182.035 556.803,181.296 558.689,180.56 560.576,179.825 562.463,179.091 564.35,178.36 566.237,177.63 568.124,176.902 570.011,176.176 571.897,175.452 573.784,174.73 575.671,174.01 577.558,173.291 579.445,172.575 581.332,171.86 583.218,171.147 585.105,170.437 586.992,169.729 588.879,169.022 590.766,168.317 592.653,167.615 594.54,166.915 596.426,166.217 598.313,165.521 600.2,164.827 602.087,164.135 603.974,163.445 605.861,162.758 607.748,162.073 609.634,161.391 611.521,160.71 613.408,160.032 615.295,159.356 617.182,158.682 619.068,158.011 620.956,157.342 622.842,156.675 624.729,156.011 626.616,155.35 628.503,154.69 630.39,154.034 632.276,153.379 634.163,152.728 636.05,152.079 637.937,151.432 639.824,150.788 641.71,150.146 643.598,149.507 645.484,148.871 647.371,148.238 649.258,147.606 651.145,146.979 653.032,146.353 654.918,145.73 656.806,145.11 658.692,144.493 660.579,143.878 662.466,143.266 664.353,142.657 666.24,142.051 668.126,141.448 670.014,140.848 671.9,140.25 673.787,139.655 675.674,139.064 677.561,138.475 679.448,137.89 681.334,137.307 683.221,136.727 685.108,136.15 686.995,135.577 688.882,135.006 690.769,134.439 692.656,133.875 694.542,133.313 696.429,132.756 698.316,132.201 700.203,131.649 702.09,131.101 703.977,130.556 705.863,130.014 707.75,129.475 709.637,128.94 711.524,128.408 713.411,127.879 715.298,127.354 717.185,126.832 719.071,126.313 720.958,125.798 722.845,125.286 724.732,124.778 726.619,124.273 728.506,123.771 730.393,123.273 732.279,122.779 734.166,122.289 736.053,121.801 737.94,121.317 739.827,120.837 741.713,120.361 743.601,119.888 745.487,119.419 747.374,118.954 749.261,118.492 751.148,118.034 753.035,117.58 754.921,117.129 756.809,116.683 758.695,116.24 760.582,115.801 762.469,115.365 764.356,114.934 766.243,114.506 768.129,114.083 770.016,113.663 771.903,113.248 773.79,112.835 775.677,112.428 777.563,112.024 779.451,111.624 781.337,111.229 783.224,110.837 785.111,110.449 786.998,110.065 788.885,109.686 790.771,109.311 792.658,108.939 794.545,108.573 796.432,108.21 798.319,107.851 800.206,107.497 802.093,107.147 803.979,106.801 805.866,106.459 807.753,106.122 809.64,105.79 811.527,105.461 813.414,105.137 815.301,104.817 817.188,104.501 819.074,104.19 820.961,103.884 822.848,103.582 824.735,103.285 826.622,102.992 828.509,102.703 830.396,102.419 832.282,102.14 834.169,101.865 836.056,101.595 837.943,101.329 839.83,101.068 841.717,100.812 843.604,100.56 845.49,100.313 847.377,100.071 849.264,99.8335 851.151,99.6011 853.038,99.373 854.924,99.1499 856.812,98.9316 858.698,98.7183 860.585,98.5098 862.472,98.3062 864.358,98.1074 866.246,97.9136 868.132,97.7246 870.02,97.5405 871.906,97.3613 873.793,97.1875 875.68,97.0186 877.566,96.8545 879.454,96.6953 881.34,96.5415" stroke-linejoin="round" stroke-linecap="butt" stroke-width="1.5" fill="none" stroke="#8bca50" stroke-dasharray="8,8,8,8"/>
   <polygon points="620.182,379.629 619.609,381.392 618.109,382.482 616.254,382.482 614.754,381.392 614.182,379.629 614.754,377.866 616.254,376.776 618.109,376.776 619.609,377.866" fill="#2d88f5" shape-rendering="crispEdges"/>
   <polyline points="620.182,379.629 619.609,381.392 618.109,382.482 616.254,382.482 614.754,381.392 614.182,379.629 614.754,377.866 616.254,376.776 618.109,376.776 619.609,377.866 620.182,379.629" stroke-linejoin="round" stroke-linecap="round" stroke-width="0.5" fill="none" stroke="#2d88f5"/>
   <polygon points="808.866,358.882 808.293,360.646 806.793,361.735 804.939,361.735 803.439,360.646 802.866,358.882 803.439,357.119 804.939,356.029 806.793,356.029 808.293,357.119" fill="#2d88f5" shape-rendering="crispEdges"/>
   <polyline points="808.866,358.882 808.293,360.646 806.793,361.735 804.939,361.735 803.439,360.646 802.866,358.882 803.439,357.119 804.939,356.029 806.793,356.029 808.293,357.119 808.866,358.882" stroke-linejoin="round" stroke-linecap="round" stroke-width="0.5" fill="none" stroke="#2d88f5"/>
   <polygon points="506.971,357.499 506.398,359.262 504.898,360.352 503.044,360.352 501.544,359.262 500.971,357.499 501.544,355.735 503.044,354.646 504.898,354.646 506.398,355.735" fill="#2d88f5" shape-rendering="crispEdges"/>
   <polyline points="506.971,357.499 506.398,359.262 504.898,360.352 503.044,360.352 501.544,359.262 500.971,357.499 501.544,355.735 503.044,354.646 504.898,354.646 506.398,355.735 506.971,357.499" stroke-linejoin="round" stroke-linecap="round" stroke-width="0.5" fill="none" stroke="#2d88f5"/>
   <polygon points="186.207,363.954 185.634,365.717 184.134,366.807 182.28,366.807 180.78,365.717 180.207,363.954 180.78,362.19 182.28,361.1 184.134,361.1 185.634,362.19" fill="#2d88f5" shape-rendering="crispEdges"/>
   <polyline points="186.207,363.954 185.634,365.717 184.134,366.807 182.28,366.807 180.78,365.717 180.207,363.954 180.78,362.19 182.28,361.1 184.134,361.1 185.634,362.19 186.207,363.954" stroke-linejoin="round" stroke-linecap="round" stroke-width="0.5" fill="none" stroke="#2d88f5"/>
   <polygon points="205.075,361.648 204.502,363.412 203.002,364.501 201.148,364.501 199.648,363.412 199.075,361.648 199.648,359.885 201.148,358.795 203.002,358.795 204.502,359.885" fill="#2d88f5" shape-rendering="crispEdges"/>
   <polyline points="205.075,361.648 204.502,363.412 203.002,364.501 201.148,364.501 199.648,363.412 199.075,361.648 199.648,359.885 201.148,358.795 203.002,358.795 204.502,359.885 205.075,361.648" stroke-linejoin="round" stroke-linecap="round" stroke-width="0.5" fill="none" stroke="#2d88f5"/>
   <polygon points="261.681,357.96 261.108,359.723 259.608,360.813 257.753,360.813 256.253,359.723 255.681,357.96 256.253,356.197 257.753,355.107 259.608,355.107 261.108,356.197" fill="#2d88f5" shape-rendering="crispEdges"/>
   <polyline points="261.681,357.96 261.108,359.723 259.608,360.813 257.753,360.813 256.253,359.723 255.681,357.96 256.253,356.197 257.753,355.107 259.608,355.107 261.108,356.197 261.681,357.96" stroke-linejoin="round" stroke-linecap="round" stroke-width="0.5" fill="none" stroke="#2d88f5"/>
   <polygon points="865.472,326.148 864.899,327.911 863.399,329.001 861.545,329.001 860.045,327.911 859.472,326.148 860.045,324.385 861.545,323.295 863.399,323.295 864.899,324.385" fill="#2d88f5" shape-rendering="crispEdges"/>
   <polyline points="865.472,326.148 864.899,327.911 863.399,329.001 861.545,329.001 860.045,327.911 859.472,326.148 860.045,324.385 861.545,323.295 863.399,323.295 864.899,324.385 865.472,326.148" stroke-linejoin="round" stroke-linecap="round" stroke-width="0.5" fill="none" stroke="#2d88f5"/>
   <polygon points="525.839,326.148 525.266,327.911 523.766,329.001 521.912,329.001 520.412,327.911 519.839,326.148 520.412,324.385 521.912,323.295 523.766,323.295 525.266,324.385" fill="#2d88f5" shape-rendering="crispEdges"/>
   <polyline points="525.839,326.148 525.266,327.911 523.766,329.001 521.912,329.001 520.412,327.911 519.839,326.148 520.412,324.385 521.912,323.295 523.766,323.295 525.266,324.385 525.839,326.148" stroke-linejoin="round" stroke-linecap="round" stroke-width="0.5" fill="none" stroke="#2d88f5"/>
   <polygon points="582.445,314.622 581.872,316.385 580.372,317.475 578.518,317.475 577.018,316.385 576.445,314.622 577.018,312.858 578.518,311.769 580.372,311.769 581.872,312.858" fill="#2d88f5" shape-rendering="crispEdges"/>
   <polyline points="582.445,314.622 581.872,316.385 580.372,317.475 578.518,317.475 577.018,316.385 576.445,314.622 577.018,312.858 578.518,311.769 580.372,311.769 581.872,312.858 582.445,314.622" stroke-linejoin="round" stroke-linecap="round" stroke-width="0.5" fill="none" stroke="#2d88f5"/>
   <polygon points="808.866,292.953 808.293,294.716 806.793,295.806 804.939,295.806 803.439,294.716 802.866,292.953 803.439,291.189 804.939,290.1 806.793,290.1 808.293,291.189" fill="#2d88f5" shape-rendering="crispEdges"/>
   <polyline points="808.866,292.953 808.293,294.716 806.793,295.806 804.939,295.806 803.439,294.716 802.866,292.953 803.439,291.189 804.939,290.1 806.793,290.1 808.293,291.189 808.866,292.953" stroke-linejoin="round" stroke-linecap="round" stroke-width="0.5" fill="none" stroke="#2d88f5"/>
   <polygon points="167.338,307.707 166.766,309.47 165.266,310.56 163.411,310.56 161.911,309.47 161.338,307.707 161.911,305.943 163.411,304.853 165.266,304.853 166.766,305.943" fill="#2d88f5" shape-rendering="crispEdges"/>
   <polyline points="167.338,307.707 166.766,309.47 165.266,310.56 163.411,310.56 161.911,309.47 161.338,307.707 161.911,305.943 163.411,304.853 165.266,304.853 166.766,305.943 167.338,307.707" stroke-linejoin="round" stroke-linecap="round" stroke-width="0.5" fill="none" stroke="#2d88f5"/>
   <polygon points="167.338,308.167 166.766,309.931 165.266,311.021 163.411,311.021 161.911,309.931 161.338,308.167 161.911,306.404 163.411,305.314 165.266,305.314 166.766,306.404" fill="#2d88f5" shape-rendering="crispEdges"/>
   <polyline points="167.338,308.167 166.766,309.931 165.266,311.021 163.411,311.021 161.911,309.931 161.338,308.167 161.911,306.404 163.411,305.314 165.266,305.314 166.766,306.404 167.338,308.167" stroke-linejoin="round" stroke-linecap="round" stroke-width="0.5" fill="none" stroke="#2d88f5"/>
   <polygon points="884.34,272.206 883.768,273.97 882.268,275.06 880.413,275.06 878.913,273.97 878.34,272.206 878.913,270.443 880.413,269.353 882.268,269.353 883.768,270.443" fill="#2d88f5" shape-rendering="crispEdges"/>
   <polyline points="884.34,272.206 883.768,273.97 882.268,275.06 880.413,275.06 878.913,273.97 878.34,272.206 878.913,270.443 880.413,269.353 882.268,269.353 883.768,270.443 884.34,272.206" stroke-linejoin="round" stroke-linecap="round" stroke-width="0.5" fill="none" stroke="#2d88f5"/>
   <polygon points="261.681,284.654 261.108,286.417 259.608,287.507 257.753,287.507 256.253,286.417 255.681,284.654 256.253,282.891 257.753,281.801 259.608,281.801 261.108,282.891" fill="#2d88f5" shape-rendering="crispEdges"/>
   <polyline points="261.681,284.654 261.108,286.417 259.608,287.507 257.753,287.507 256.253,286.417 255.681,284.654 256.253,282.891 257.753,281.801 259.608,281.801 261.108,282.891 261.681,284.654" stroke-linejoin="round" stroke-linecap="round" stroke-width="0.5" fill="none" stroke="#2d88f5"/>
   <polygon points="865.472,251.92 864.899,253.684 863.399,254.773 861.545,254.773 860.045,253.684 859.472,251.92 860.045,250.157 861.545,249.067 863.399,249.067 864.899,250.157" fill="#2d88f5" shape-rendering="crispEdges"/>
   <polyline points="865.472,251.92 864.899,253.684 863.399,254.773 861.545,254.773 860.045,253.684 859.472,251.92 860.045,250.157 861.545,249.067 863.399,249.067 864.899,250.157 865.472,251.92" stroke-linejoin="round" stroke-linecap="round" stroke-width="0.5" fill="none" stroke="#2d88f5"/>
   <polygon points="167.338,268.518 166.766,270.281 165.266,271.371 163.411,271.371 161.911,270.281 161.338,268.518 161.911,266.754 163.411,265.665 165.266,265.665 166.766,266.754" fill="#2d88f5" shape-rendering="crispEdges"/>
   <polyline points="167.338,268.518 166.766,270.281 165.266,271.371 163.411,271.371 161.911,270.281 161.338,268.518 161.911,266.754 163.411,265.665 165.266,265.665 166.766,266.754 167.338,268.518" stroke-linejoin="round" stroke-linecap="round" stroke-width="0.5" fill="none" stroke="#2d88f5"/>
   <polygon points="657.918,245.005 657.346,246.768 655.846,247.858 653.992,247.858 652.492,246.768 651.918,245.005 652.492,243.241 653.992,242.151 655.846,242.151 657.346,243.241" fill="#2d88f5" shape-rendering="crispEdges"/>
   <polyline points="657.918,245.005 657.346,246.768 655.846,247.858 653.992,247.858 652.492,246.768 651.918,245.005 652.492,243.241 653.992,242.151 655.846,242.151 657.346,243.241 657.918,245.005" stroke-linejoin="round" stroke-linecap="round" stroke-width="0.5" fill="none" stroke="#2d88f5"/>
   <polygon points="789.998,226.102 789.425,227.865 787.925,228.955 786.071,228.955 784.571,227.865 783.998,226.102 784.571,224.339 786.071,223.249 787.925,223.249 789.425,224.339" fill="#2d88f5" shape-rendering="crispEdges"/>
   <polyline points="789.998,226.102 789.425,227.865 787.925,228.955 786.071,228.955 784.571,227.865 783.998,226.102 784.571,224.339 786.071,223.249 787.925,223.249 789.425,224.339 789.998,226.102" stroke-linejoin="round" stroke-linecap="round" stroke-width="0.5" fill="none" stroke="#2d88f5"/>
   <polygon points="676.787,215.959 676.214,217.723 674.714,218.812 672.86,218.812 671.36,217.723 670.787,215.959 671.36,214.196 672.86,213.106 674.714,213.106 676.214,214.196" fill="#2d88f5" shape-rendering="crispEdges"/>
   <polyline points="676.787,215.959 676.214,217.723 674.714,218.812 672.86,218.812 671.36,217.723 670.787,215.959 671.36,214.196 672.86,213.106 674.714,213.106 676.214,214.196 676.787,215.959" stroke-linejoin="round" stroke-linecap="round" stroke-width="0.5" fill="none" stroke="#2d88f5"/>
   <polygon points="544.708,209.504 544.135,211.268 542.635,212.358 540.781,212.358 539.281,211.268 538.708,209.504 539.281,207.741 540.781,206.651 542.635,206.651 544.135,207.741" fill="#2d88f5" shape-rendering="crispEdges"/>
   <polyline points="544.708,209.504 544.135,211.268 542.635,212.358 540.781,212.358 539.281,211.268 538.708,209.504 539.281,207.741 540.781,206.651 542.635,206.651 544.135,207.741 544.708,209.504" stroke-linejoin="round" stroke-linecap="round" stroke-width="0.5" fill="none" stroke="#2d88f5"/>
   <polygon points="601.313,197.518 600.74,199.281 599.24,200.371 597.386,200.371 595.886,199.281 595.313,197.518 595.886,195.754 597.386,194.664 599.24,194.664 600.74,195.754" fill="#2d88f5" shape-rendering="crispEdges"/>
   <polyline points="601.313,197.518 600.74,199.281 599.24,200.371 597.386,200.371 595.886,199.281 595.313,197.518 595.886,195.754 597.386,194.664 599.24,194.664 600.74,195.754 601.313,197.518" stroke-linejoin="round" stroke-linecap="round" stroke-width="0.5" fill="none" stroke="#2d88f5"/>
   <polygon points="223.944,204.433 223.371,206.196 221.871,207.286 220.017,207.286 218.517,206.196 217.944,204.433 218.517,202.67 220.017,201.58 221.871,201.58 223.371,202.67" fill="#2d88f5" shape-rendering="crispEdges"/>
   <polyline points="223.944,204.433 223.371,206.196 221.871,207.286 220.017,207.286 218.517,206.196 217.944,204.433 218.517,202.67 220.017,201.58 221.871,201.58 223.371,202.67 223.944,204.433" stroke-linejoin="round" stroke-linecap="round" stroke-width="0.5" fill="none" stroke="#2d88f5"/>
   <polygon points="280.549,199.362 279.976,201.125 278.476,202.215 276.622,202.215 275.122,201.125 274.549,199.362 275.122,197.598 276.622,196.508 278.476,196.508 279.976,197.598" fill="#2d88f5" shape-rendering="crispEdges"/>
   <polyline points="280.549,199.362 279.976,201.125 278.476,202.215 276.622,202.215 275.122,201.125 274.549,199.362 275.122,197.598 276.622,196.508 278.476,196.508 279.976,197.598 280.549,199.362" stroke-linejoin="round" stroke-linecap="round" stroke-width="0.5" fill="none" stroke="#2d88f5"/>
   <polygon points="205.075,199.362 204.502,201.125 203.002,202.215 201.148,202.215 199.648,201.125 199.075,199.362 199.648,197.598 201.148,196.508 203.002,196.508 204.502,197.598" fill="#2d88f5" shape-rendering="crispEdges"/>
   <polyline points="205.075,199.362 204.502,201.125 203.002,202.215 201.148,202.215 199.648,201.125 199.075,199.362 199.648,197.598 201.148,196.508 203.002,196.508 204.502,197.598 205.075,199.362" stroke-linejoin="round" stroke-linecap="round" stroke-width="0.5" fill="none" stroke="#2d88f5"/>
   <polygon points="205.075,198.439 204.502,200.203 203.002,201.292 201.148,201.292 199.648,200.203 199.075,198.439 199.648,196.676 201.148,195.586 203.002,195.586 204.502,196.676" fill="#2d88f5" shape-rendering="crispEdges"/>
   <polyline points="205.075,198.439 204.502,200.203 203.002,201.292 201.148,201.292 199.648,200.203 199.075,198.439 199.648,196.676 201.148,195.586 203.002,195.586 204.502,196.676 205.075,198.439" stroke-linejoin="round" stroke-linecap="round" stroke-width="0.5" fill="none" stroke="#2d88f5"/>
   <polygon points="223.944,196.595 223.371,198.359 221.871,199.449 220.017,199.449 218.517,198.359 217.944,196.595 218.517,194.832 220.017,193.742 221.871,193.742 223.371,194.832" fill="#2d88f5" shape-rendering="crispEdges"/>
   <polyline points="223.944,196.595 223.371,198.359 221.871,199.449 220.017,199.449 218.517,198.359 217.944,196.595 218.517,194.832 220.017,193.742 221.871,193.742 223.371,194.832 223.944,196.595" stroke-linejoin="round" stroke-linecap="round" stroke-width="0.5" fill="none" stroke="#2d88f5"/>
   <polygon points="563.576,178.154 563.003,179.917 561.503,181.007 559.649,181.007 558.149,179.917 557.576,178.154 558.149,176.39 559.649,175.3 561.503,175.3 563.003,176.39" fill="#2d88f5" shape-rendering="crispEdges"/>
   <polyline points="563.576,178.154 563.003,179.917 561.503,181.007 559.649,181.007 558.149,179.917 557.576,178.154 558.149,176.39 559.649,175.3 561.503,175.3 563.003,176.39 563.576,178.154" stroke-linejoin="round" stroke-linecap="round" stroke-width="0.5" fill="none" stroke="#2d88f5"/>
   <polygon points="280.549,181.381 279.976,183.145 278.476,184.234 276.622,184.234 275.122,183.145 274.549,181.381 275.122,179.618 276.622,178.528 278.476,178.528 279.976,179.618" fill="#2d88f5" shape-rendering="crispEdges"/>
   <polyline points="280.549,181.381 279.976,183.145 278.476,184.234 276.622,184.234 275.122,183.145 274.549,181.381 275.122,179.618 276.622,178.528 278.476,178.528 279.976,179.618 280.549,181.381" stroke-linejoin="round" stroke-linecap="round" stroke-width="0.5" fill="none" stroke="#2d88f5"/>
   <polygon points="223.944,181.842 223.371,183.605 221.871,184.695 220.017,184.695 218.517,183.605 217.944,181.842 218.517,180.079 220.017,178.989 221.871,178.989 223.371,180.079" fill="#2d88f5" shape-rendering="crispEdges"/>
   <polyline points="223.944,181.842 223.371,183.605 221.871,184.695 220.017,184.695 218.517,183.605 217.944,181.842 218.517,180.079 220.017,178.989 221.871,178.989 223.371,180.079 223.944,181.842" stroke-linejoin="round" stroke-linecap="round" stroke-width="0.5" fill="none" stroke="#2d88f5"/>
   <polygon points="676.787,158.79 676.214,160.553 674.714,161.643 672.86,161.643 671.36,160.553 670.787,158.79 671.36,157.026 672.86,155.937 674.714,155.937 676.214,157.026" fill="#2d88f5" shape-rendering="crispEdges"/>
   <polyline points="676.787,158.79 676.214,160.553 674.714,161.643 672.86,161.643 671.36,160.553 670.787,158.79 671.36,157.026 672.86,155.937 674.714,155.937 676.214,157.026 676.787,158.79" stroke-linejoin="round" stroke-linecap="round" stroke-width="0.5" fill="none" stroke="#2d88f5"/>
   <polygon points="846.604,137.582 846.03,139.345 844.53,140.435 842.676,140.435 841.176,139.345 840.604,137.582 841.176,135.819 842.676,134.729 844.53,134.729 846.03,135.819" fill="#2d88f5" shape-rendering="crispEdges"/>
   <polyline points="846.604,137.582 846.03,139.345 844.53,140.435 842.676,140.435 841.176,139.345 840.604,137.582 841.176,135.819 842.676,134.729 844.53,134.729 846.03,135.819 846.604,137.582" stroke-linejoin="round" stroke-linecap="round" stroke-width="0.5" fill="none" stroke="#2d88f5"/>
   <polygon points="789.998,122.829 789.425,124.592 787.925,125.682 786.071,125.682 784.571,124.592 783.998,122.829 784.571,121.065 786.071,119.976 787.925,119.976 789.425,121.065" fill="#2d88f5" shape-rendering="crispEdges"/>
   <polyline points="789.998,122.829 789.425,124.592 787.925,125.682 786.071,125.682 784.571,124.592 783.998,122.829 784.571,121.065 786.071,119.976 787.925,119.976 789.425,121.065 789.998,122.829" stroke-linejoin="round" stroke-linecap="round" stroke-width="0.5" fill="none" stroke="#2d88f5"/>
   <polygon points="620.182,115.913 619.609,117.676 618.109,118.766 616.254,118.766 614.754,117.676 614.182,115.913 614.754,114.15 616.254,113.06 618.109,113.06 619.609,114.15" fill="#2d88f5" shape-rendering="crispEdges"/>
   <polyline points="620.182,115.913 619.609,117.676 618.109,118.766 616.254,118.766 614.754,117.676 614.182,115.913 614.754,114.15 616.254,113.06 618.109,113.06 619.609,114.15 620.182,115.913" stroke-linejoin="round" stroke-linecap="round" stroke-width="0.5" fill="none" stroke="#2d88f5"/>
   <polygon points="223.944,124.212 223.371,125.975 221.871,127.065 220.017,127.065 218.517,125.975 217.944,124.212 218.517,122.448 220.017,121.358 221.871,121.358 223.371,122.448" fill="#2d88f5" shape-rendering="crispEdges"/>
   <polyline points="223.944,124.212 223.371,125.975 221.871,127.065 220.017,127.065 218.517,125.975 217.944,124.212 218.517,122.448 220.017,121.358 221.871,121.358 223.371,122.448 223.944,124.212" stroke-linejoin="round" stroke-linecap="round" stroke-width="0.5" fill="none" stroke="#2d88f5"/>
   <polygon points="167.338,125.134 166.766,126.897 165.266,127.987 163.411,127.987 161.911,126.897 161.338,125.134 161.911,123.371 163.411,122.281 165.266,122.281 166.766,123.371" fill="#2d88f5" shape-rendering="crispEdges"/>
   <polyline points="167.338,125.134 166.766,126.897 165.266,127.987 163.411,127.987 161.911,126.897 161.338,125.134 161.911,123.371 163.411,122.281 165.266,122.281 166.766,123.371 167.338,125.134" stroke-linejoin="round" stroke-linecap="round" stroke-width="0.5" fill="none" stroke="#2d88f5"/>
   <polygon points="223.944,121.907 223.371,123.67 221.871,124.76 220.017,124.76 218.517,123.67 217.944,121.907 218.517,120.143 220.017,119.053 221.871,119.053 223.371,120.143" fill="#2d88f5" shape-rendering="crispEdges"/>
   <polyline points="223.944,121.907 223.371,123.67 221.871,124.76 220.017,124.76 218.517,123.67 217.944,121.907 218.517,120.143 220.017,119.053 221.871,119.053 223.371,120.143 223.944,121.907" stroke-linejoin="round" stroke-linecap="round" stroke-width="0.5" fill="none" stroke="#2d88f5"/>
   <polygon points="242.812,120.062 242.239,121.826 240.739,122.916 238.885,122.916 237.385,121.826 236.812,120.062 237.385,118.299 238.885,117.209 240.739,117.209 242.239,118.299" fill="#2d88f5" shape-rendering="crispEdges"/>
   <polyline points="242.812,120.062 242.239,121.826 240.739,122.916 238.885,122.916 237.385,121.826 236.812,120.062 237.385,118.299 238.885,117.209 240.739,117.209 242.239,118.299 242.812,120.062" stroke-linejoin="round" stroke-linecap="round" stroke-width="0.5" fill="none" stroke="#2d88f5"/>
   <polygon points="242.812,118.218 242.239,119.981 240.739,121.071 238.885,121.071 237.385,119.981 236.812,118.218 237.385,116.455 238.885,115.365 240.739,115.365 242.239,116.455" fill="#2d88f5" shape-rendering="crispEdges"/>
   <polyline points="242.812,118.218 242.239,119.981 240.739,121.071 238.885,121.071 237.385,119.981 236.812,118.218 237.385,116.455 238.885,115.365 240.739,115.365 242.239,116.455 242.812,118.218" stroke-linejoin="round" stroke-linecap="round" stroke-width="0.5" fill="none" stroke="#2d88f5"/>
   <polygon points="205.075,118.679 204.502,120.443 203.002,121.532 201.148,121.532 199.648,120.443 199.075,118.679 199.648,116.916 201.148,115.826 203.002,115.826 204.502,116.916" fill="#2d88f5" shape-rendering="crispEdges"/>
   <polyline points="205.075,118.679 204.502,120.443 203.002,121.532 201.148,121.532 199.648,120.443 199.075,118.679 199.648,116.916 201.148,115.826 203.002,115.826 204.502,116.916 205.075,118.679" stroke-linejoin="round" stroke-linecap="round" stroke-width="0.5" fill="none" stroke="#2d88f5"/>
   <polygon points="544.708,100.699 544.135,102.462 542.635,103.552 540.781,103.552 539.281,102.462 538.708,100.699 539.281,98.9355 540.781,97.8457 542.635,97.8457 544.135,98.9355" fill="#2d88f5" shape-rendering="crispEdges"/>
   <polyline points="544.708,100.699 544.135,102.462 542.635,103.552 540.781,103.552 539.281,102.462 538.708,100.699 539.281,98.9355 540.781,97.8457 542.635,97.8457 544.135,98.9355 544.708,100.699" stroke-linejoin="round" stroke-linecap="round" stroke-width="0.5" fill="none" stroke="#2d88f5"/>
   <polygon points="620.182,286.499 619.609,288.262 618.109,289.352 616.254,289.352 614.754,288.262 614.182,286.499 614.754,284.735 616.254,283.646 618.109,283.646 619.609,284.735" fill="#fec834" shape-rendering="crispEdges"/>
   <polyline points="620.182,286.499 619.609,288.262 618.109,289.352 616.254,289.352 614.754,288.262 614.182,286.499 614.754,284.735 616.254,283.646 618.109,283.646 619.609,284.735 620.182,286.499" stroke-linejoin="round" stroke-linecap="round" stroke-width="0.5" fill="none" stroke="#fec834"/>
   <polygon points="808.866,142.653 808.293,144.417 806.793,145.507 804.939,145.507 803.439,144.417 802.866,142.653 803.439,140.89 804.939,139.8 806.793,139.8 808.293,140.89" fill="#fec834" shape-rendering="crispEdges"/>
   <polyline points="808.866,142.653 808.293,144.417 806.793,145.507 804.939,145.507 803.439,144.417 802.866,142.653 803.439,140.89 804.939,139.8 806.793,139.8 808.293,140.89 808.866,142.653" stroke-linejoin="round" stroke-linecap="round" stroke-width="0.5" fill="none" stroke="#fec834"/>
   <polygon points="506.971,341.823 506.398,343.587 504.898,344.677 503.044,344.677 501.544,343.587 500.971,341.823 501.544,340.06 503.044,338.97 504.898,338.97 506.398,340.06" fill="#fec834" shape-rendering="crispEdges"/>
   <polyline points="506.971,341.823 506.398,343.587 504.898,344.677 503.044,344.677 501.544,343.587 500.971,341.823 501.544,340.06 503.044,338.97 504.898,338.97 506.398,340.06 506.971,341.823" stroke-linejoin="round" stroke-linecap="round" stroke-width="0.5" fill="none" stroke="#fec834"/>
   <polygon points="186.207,400.837 185.634,402.6 184.134,403.69 182.28,403.69 180.78,402.6 180.207,400.837 180.78,399.073 182.28,397.983 184.134,397.983 185.634,399.073" fill="#fec834" shape-rendering="crispEdges"/>
   <polyline points="186.207,400.837 185.634,402.6 184.134,403.69 182.28,403.69 180.78,402.6 180.207,400.837 180.78,399.073 182.28,397.983 184.134,397.983 185.634,399.073 186.207,400.837" stroke-linejoin="round" stroke-linecap="round" stroke-width="0.5" fill="none" stroke="#fec834"/>
   <polygon points="205.075,398.532 204.502,400.295 203.002,401.385 201.148,401.385 199.648,400.295 199.075,398.532 199.648,396.768 201.148,395.678 203.002,395.678 204.502,396.768" fill="#fec834" shape-rendering="crispEdges"/>
   <polyline points="205.075,398.532 204.502,400.295 203.002,401.385 201.148,401.385 199.648,400.295 199.075,398.532 199.648,396.768 201.148,395.678 203.002,395.678 204.502,396.768 205.075,398.532" stroke-linejoin="round" stroke-linecap="round" stroke-width="0.5" fill="none" stroke="#fec834"/>
   <polygon points="261.681,392.077 261.108,393.84 259.608,394.93 257.753,394.93 256.253,393.84 255.681,392.077 256.253,390.313 257.753,389.224 259.608,389.224 261.108,390.313" fill="#fec834" shape-rendering="crispEdges"/>
   <polyline points="261.681,392.077 261.108,393.84 259.608,394.93 257.753,394.93 256.253,393.84 255.681,392.077 256.253,390.313 257.753,389.224 259.608,389.224 261.108,390.313 261.681,392.077" stroke-linejoin="round" stroke-linecap="round" stroke-width="0.5" fill="none" stroke="#fec834"/>
   <polygon points="865.472,108.075 864.899,109.839 863.399,110.929 861.545,110.929 860.045,109.839 859.472,108.075 860.045,106.312 861.545,105.222 863.399,105.222 864.899,106.312" fill="#fec834" shape-rendering="crispEdges"/>
   <polyline points="865.472,108.075 864.899,109.839 863.399,110.929 861.545,110.929 860.045,109.839 859.472,108.075 860.045,106.312 861.545,105.222 863.399,105.222 864.899,106.312 865.472,108.075" stroke-linejoin="round" stroke-linecap="round" stroke-width="0.5" fill="none" stroke="#fec834"/>
   <polygon points="525.839,334.908 525.266,336.671 523.766,337.761 521.912,337.761 520.412,336.671 519.839,334.908 520.412,333.145 521.912,332.055 523.766,332.055 525.266,333.145" fill="#fec834" shape-rendering="crispEdges"/>
   <polyline points="525.839,334.908 525.266,336.671 523.766,337.761 521.912,337.761 520.412,336.671 519.839,334.908 520.412,333.145 521.912,332.055 523.766,332.055 525.266,333.145 525.839,334.908" stroke-linejoin="round" stroke-linecap="round" stroke-width="0.5" fill="none" stroke="#fec834"/>
   <polygon points="582.445,281.427 581.872,283.19 580.372,284.28 578.518,284.28 577.018,283.19 576.445,281.427 577.018,279.664 578.518,278.574 580.372,278.574 581.872,279.664" fill="#fec834" shape-rendering="crispEdges"/>
   <polyline points="582.445,281.427 581.872,283.19 580.372,284.28 578.518,284.28 577.018,283.19 576.445,281.427 577.018,279.664 578.518,278.574 580.372,278.574 581.872,279.664 582.445,281.427" stroke-linejoin="round" stroke-linecap="round" stroke-width="0.5" fill="none" stroke="#fec834"/>
   <polygon points="808.866,164.322 808.293,166.086 806.793,167.176 804.939,167.176 803.439,166.086 802.866,164.322 803.439,162.559 804.939,161.469 806.793,161.469 808.293,162.559" fill="#fec834" shape-rendering="crispEdges"/>
   <polyline points="808.866,164.322 808.293,166.086 806.793,167.176 804.939,167.176 803.439,166.086 802.866,164.322 803.439,162.559 804.939,161.469 806.793,161.469 808.293,162.559 808.866,164.322" stroke-linejoin="round" stroke-linecap="round" stroke-width="0.5" fill="none" stroke="#fec834"/>
   <polygon points="167.338,401.759 166.766,403.522 165.266,404.612 163.411,404.612 161.911,403.522 161.338,401.759 161.911,399.996 163.411,398.906 165.266,398.906 166.766,399.996" fill="#fec834" shape-rendering="crispEdges"/>
   <polyline points="167.338,401.759 166.766,403.522 165.266,404.612 163.411,404.612 161.911,403.522 161.338,401.759 161.911,399.996 163.411,398.906 165.266,398.906 166.766,399.996 167.338,401.759" stroke-linejoin="round" stroke-linecap="round" stroke-width="0.5" fill="none" stroke="#fec834"/>
   <polygon points="167.338,401.759 166.766,403.522 165.266,404.612 163.411,404.612 161.911,403.522 161.338,401.759 161.911,399.996 163.411,398.906 165.266,398.906 166.766,399.996" fill="#fec834" shape-rendering="crispEdges"/>
   <polyline points="167.338,401.759 166.766,403.522 165.266,404.612 163.411,404.612 161.911,403.522 161.338,401.759 161.911,399.996 163.411,398.906 165.266,398.906 166.766,399.996 167.338,401.759" stroke-linejoin="round" stroke-linecap="round" stroke-width="0.5" fill="none" stroke="#fec834"/>
   <polygon points="884.34,75.3413 883.768,77.105 882.268,78.1943 880.413,78.1943 878.913,77.105 878.34,75.3413 878.913,73.5781 880.413,72.4883 882.268,72.4883 883.768,73.5781" fill="#fec834" shape-rendering="crispEdges"/>
   <polyline points="884.34,75.3413 883.768,77.105 882.268,78.1943 880.413,78.1943 878.913,77.105 878.34,75.3413 878.913,73.5781 880.413,72.4883 882.268,72.4883 883.768,73.5781 884.34,75.3413" stroke-linejoin="round" stroke-linecap="round" stroke-width="0.5" fill="none" stroke="#fec834"/>
   <polygon points="261.681,394.382 261.108,396.146 259.608,397.235 257.753,397.235 256.253,396.146 255.681,394.382 256.253,392.619 257.753,391.529 259.608,391.529 261.108,392.619" fill="#fec834" shape-rendering="crispEdges"/>
   <polyline points="261.681,394.382 261.108,396.146 259.608,397.235 257.753,397.235 256.253,396.146 255.681,394.382 256.253,392.619 257.753,391.529 259.608,391.529 261.108,392.619 261.681,394.382" stroke-linejoin="round" stroke-linecap="round" stroke-width="0.5" fill="none" stroke="#fec834"/>
   <polygon points="865.472,94.7051 864.899,96.4688 863.399,97.5581 861.545,97.5581 860.045,96.4688 859.472,94.7051 860.045,92.9419 861.545,91.8521 863.399,91.8521 864.899,92.9419" fill="#fec834" shape-rendering="crispEdges"/>
   <polyline points="865.472,94.7051 864.899,96.4688 863.399,97.5581 861.545,97.5581 860.045,96.4688 859.472,94.7051 860.045,92.9419 861.545,91.8521 863.399,91.8521 864.899,92.9419 865.472,94.7051" stroke-linejoin="round" stroke-linecap="round" stroke-width="0.5" fill="none" stroke="#fec834"/>
   <polygon points="167.338,401.759 166.766,403.522 165.266,404.612 163.411,404.612 161.911,403.522 161.338,401.759 161.911,399.996 163.411,398.906 165.266,398.906 166.766,399.996" fill="#fec834" shape-rendering="crispEdges"/>
   <polyline points="167.338,401.759 166.766,403.522 165.266,404.612 163.411,404.612 161.911,403.522 161.338,401.759 161.911,399.996 163.411,398.906 165.266,398.906 166.766,399.996 167.338,401.759" stroke-linejoin="round" stroke-linecap="round" stroke-width="0.5" fill="none" stroke="#fec834"/>
   <polygon points="657.918,247.31 657.346,249.073 655.846,250.163 653.992,250.163 652.492,249.073 651.918,247.31 652.492,245.546 653.992,244.457 655.846,244.457 657.346,245.546" fill="#fec834" shape-rendering="crispEdges"/>
   <polyline points="657.918,247.31 657.346,249.073 655.846,250.163 653.992,250.163 652.492,249.073 651.918,247.31 652.492,245.546 653.992,244.457 655.846,244.457 657.346,245.546 657.918,247.31" stroke-linejoin="round" stroke-linecap="round" stroke-width="0.5" fill="none" stroke="#fec834"/>
   <polygon points="789.998,201.667 789.425,203.43 787.925,204.52 786.071,204.52 784.571,203.43 783.998,201.667 784.571,199.903 786.071,198.813 787.925,198.813 789.425,199.903" fill="#fec834" shape-rendering="crispEdges"/>
   <polyline points="789.998,201.667 789.425,203.43 787.925,204.52 786.071,204.52 784.571,203.43 783.998,201.667 784.571,199.903 786.071,198.813 787.925,198.813 789.425,199.903 789.998,201.667" stroke-linejoin="round" stroke-linecap="round" stroke-width="0.5" fill="none" stroke="#fec834"/>
   <polygon points="676.787,234.401 676.214,236.164 674.714,237.254 672.86,237.254 671.36,236.164 670.787,234.401 671.36,232.637 672.86,231.547 674.714,231.547 676.214,232.637" fill="#fec834" shape-rendering="crispEdges"/>
   <polyline points="676.787,234.401 676.214,236.164 674.714,237.254 672.86,237.254 671.36,236.164 670.787,234.401 671.36,232.637 672.86,231.547 674.714,231.547 676.214,232.637 676.787,234.401" stroke-linejoin="round" stroke-linecap="round" stroke-width="0.5" fill="none" stroke="#fec834"/>
   <polygon points="544.708,330.758 544.135,332.522 542.635,333.612 540.781,333.612 539.281,332.522 538.708,330.758 539.281,328.995 540.781,327.905 542.635,327.905 544.135,328.995" fill="#fec834" shape-rendering="crispEdges"/>
   <polyline points="544.708,330.758 544.135,332.522 542.635,333.612 540.781,333.612 539.281,332.522 538.708,330.758 539.281,328.995 540.781,327.905 542.635,327.905 544.135,328.995 544.708,330.758" stroke-linejoin="round" stroke-linecap="round" stroke-width="0.5" fill="none" stroke="#fec834"/>
   <polygon points="601.313,275.895 600.74,277.658 599.24,278.748 597.386,278.748 595.886,277.658 595.313,275.895 595.886,274.131 597.386,273.042 599.24,273.042 600.74,274.131" fill="#fec834" shape-rendering="crispEdges"/>
   <polyline points="601.313,275.895 600.74,277.658 599.24,278.748 597.386,278.748 595.886,277.658 595.313,275.895 595.886,274.131 597.386,273.042 599.24,273.042 600.74,274.131 601.313,275.895" stroke-linejoin="round" stroke-linecap="round" stroke-width="0.5" fill="none" stroke="#fec834"/>
   <polygon points="223.944,393.46 223.371,395.224 221.871,396.313 220.017,396.313 218.517,395.224 217.944,393.46 218.517,391.697 220.017,390.607 221.871,390.607 223.371,391.697" fill="#fec834" shape-rendering="crispEdges"/>
   <polyline points="223.944,393.46 223.371,395.224 221.871,396.313 220.017,396.313 218.517,395.224 217.944,393.46 218.517,391.697 220.017,390.607 221.871,390.607 223.371,391.697 223.944,393.46" stroke-linejoin="round" stroke-linecap="round" stroke-width="0.5" fill="none" stroke="#fec834"/>
   <polygon points="280.549,370.869 279.976,372.632 278.476,373.722 276.622,373.722 275.122,372.632 274.549,370.869 275.122,369.105 276.622,368.016 278.476,368.016 279.976,369.105" fill="#fec834" shape-rendering="crispEdges"/>
   <polyline points="280.549,370.869 279.976,372.632 278.476,373.722 276.622,373.722 275.122,372.632 274.549,370.869 275.122,369.105 276.622,368.016 278.476,368.016 279.976,369.105 280.549,370.869" stroke-linejoin="round" stroke-linecap="round" stroke-width="0.5" fill="none" stroke="#fec834"/>
   <polygon points="205.075,398.07 204.502,399.834 203.002,400.924 201.148,400.924 199.648,399.834 199.075,398.07 199.648,396.307 201.148,395.217 203.002,395.217 204.502,396.307" fill="#fec834" shape-rendering="crispEdges"/>
   <polyline points="205.075,398.07 204.502,399.834 203.002,400.924 201.148,400.924 199.648,399.834 199.075,398.07 199.648,396.307 201.148,395.217 203.002,395.217 204.502,396.307 205.075,398.07" stroke-linejoin="round" stroke-linecap="round" stroke-width="0.5" fill="none" stroke="#fec834"/>
   <polygon points="205.075,397.148 204.502,398.912 203.002,400.001 201.148,400.001 199.648,398.912 199.075,397.148 199.648,395.385 201.148,394.295 203.002,394.295 204.502,395.385" fill="#fec834" shape-rendering="crispEdges"/>
   <polyline points="205.075,397.148 204.502,398.912 203.002,400.001 201.148,400.001 199.648,398.912 199.075,397.148 199.648,395.385 201.148,394.295 203.002,394.295 204.502,395.385 205.075,397.148" stroke-linejoin="round" stroke-linecap="round" stroke-width="0.5" fill="none" stroke="#fec834"/>
   <polygon points="223.944,389.772 223.371,391.535 221.871,392.625 220.017,392.625 218.517,391.535 217.944,389.772 218.517,388.008 220.017,386.918 221.871,386.918 223.371,388.008" fill="#fec834" shape-rendering="crispEdges"/>
   <polyline points="223.944,389.772 223.371,391.535 221.871,392.625 220.017,392.625 218.517,391.535 217.944,389.772 218.517,388.008 220.017,386.918 221.871,386.918 223.371,388.008 223.944,389.772" stroke-linejoin="round" stroke-linecap="round" stroke-width="0.5" fill="none" stroke="#fec834"/>
   <polygon points="563.576,312.778 563.003,314.541 561.503,315.631 559.649,315.631 558.149,314.541 557.576,312.778 558.149,311.015 559.649,309.925 561.503,309.925 563.003,311.015" fill="#fec834" shape-rendering="crispEdges"/>
   <polyline points="563.576,312.778 563.003,314.541 561.503,315.631 559.649,315.631 558.149,314.541 557.576,312.778 558.149,311.015 559.649,309.925 561.503,309.925 563.003,311.015 563.576,312.778" stroke-linejoin="round" stroke-linecap="round" stroke-width="0.5" fill="none" stroke="#fec834"/>
   <polygon points="280.549,369.486 279.976,371.25 278.476,372.339 276.622,372.339 275.122,371.25 274.549,369.486 275.122,367.723 276.622,366.633 278.476,366.633 279.976,367.723" fill="#fec834" shape-rendering="crispEdges"/>
   <polyline points="280.549,369.486 279.976,371.25 278.476,372.339 276.622,372.339 275.122,371.25 274.549,369.486 275.122,367.723 276.622,366.633 278.476,366.633 279.976,367.723 280.549,369.486" stroke-linejoin="round" stroke-linecap="round" stroke-width="0.5" fill="none" stroke="#fec834"/>
   <polygon points="223.944,393.921 223.371,395.685 221.871,396.774 220.017,396.774 218.517,395.685 217.944,393.921 218.517,392.158 220.017,391.068 221.871,391.068 223.371,392.158" fill="#fec834" shape-rendering="crispEdges"/>
   <polyline points="223.944,393.921 223.371,395.685 221.871,396.774 220.017,396.774 218.517,395.685 217.944,393.921 218.517,392.158 220.017,391.068 221.871,391.068 223.371,392.158 223.944,393.921" stroke-linejoin="round" stroke-linecap="round" stroke-width="0.5" fill="none" stroke="#fec834"/>
   <polygon points="676.787,227.485 676.214,229.249 674.714,230.338 672.86,230.338 671.36,229.249 670.787,227.485 671.36,225.722 672.86,224.632 674.714,224.632 676.214,225.722" fill="#fec834" shape-rendering="crispEdges"/>
   <polyline points="676.787,227.485 676.214,229.249 674.714,230.338 672.86,230.338 671.36,229.249 670.787,227.485 671.36,225.722 672.86,224.632 674.714,224.632 676.214,225.722 676.787,227.485" stroke-linejoin="round" stroke-linecap="round" stroke-width="0.5" fill="none" stroke="#fec834"/>
   <polygon points="846.604,140.809 846.03,142.573 844.53,143.663 842.676,143.663 841.176,142.573 840.604,140.809 841.176,139.046 842.676,137.956 844.53,137.956 846.03,139.046" fill="#fec834" shape-rendering="crispEdges"/>
   <polyline points="846.604,140.809 846.03,142.573 844.53,143.663 842.676,143.663 841.176,142.573 840.604,140.809 841.176,139.046 842.676,137.956 844.53,137.956 846.03,139.046 846.604,140.809" stroke-linejoin="round" stroke-linecap="round" stroke-width="0.5" fill="none" stroke="#fec834"/>
   <polygon points="789.998,192.907 789.425,194.67 787.925,195.76 786.071,195.76 784.571,194.67 783.998,192.907 784.571,191.144 786.071,190.054 787.925,190.054 789.425,191.144" fill="#fec834" shape-rendering="crispEdges"/>
   <polyline points="789.998,192.907 789.425,194.67 787.925,195.76 786.071,195.76 784.571,194.67 783.998,192.907 784.571,191.144 786.071,190.054 787.925,190.054 789.425,191.144 789.998,192.907" stroke-linejoin="round" stroke-linecap="round" stroke-width="0.5" fill="none" stroke="#fec834"/>
   <polygon points="620.182,269.901 619.609,271.665 618.109,272.754 616.254,272.754 614.754,271.665 614.182,269.901 614.754,268.138 616.254,267.048 618.109,267.048 619.609,268.138" fill="#fec834" shape-rendering="crispEdges"/>
   <polyline points="620.182,269.901 619.609,271.665 618.109,272.754 616.254,272.754 614.754,271.665 614.182,269.901 614.754,268.138 616.254,267.048 618.109,267.048 619.609,268.138 620.182,269.901" stroke-linejoin="round" stroke-linecap="round" stroke-width="0.5" fill="none" stroke="#fec834"/>
   <polygon points="223.944,391.155 223.371,392.918 221.871,394.008 220.017,394.008 218.517,392.918 217.944,391.155 218.517,389.392 220.017,388.302 221.871,388.302 223.371,389.392" fill="#fec834" shape-rendering="crispEdges"/>
   <polyline points="223.944,391.155 223.371,392.918 221.871,394.008 220.017,394.008 218.517,392.918 217.944,391.155 218.517,389.392 220.017,388.302 221.871,388.302 223.371,389.392 223.944,391.155" stroke-linejoin="round" stroke-linecap="round" stroke-width="0.5" fill="none" stroke="#fec834"/>
   <polygon points="167.338,401.759 166.766,403.522 165.266,404.612 163.411,404.612 161.911,403.522 161.338,401.759 161.911,399.996 163.411,398.906 165.266,398.906 166.766,399.996" fill="#fec834" shape-rendering="crispEdges"/>
   <polyline points="167.338,401.759 166.766,403.522 165.266,404.612 163.411,404.612 161.911,403.522 161.338,401.759 161.911,399.996 163.411,398.906 165.266,398.906 166.766,399.996 167.338,401.759" stroke-linejoin="round" stroke-linecap="round" stroke-width="0.5" fill="none" stroke="#fec834"/>
   <polygon points="223.944,389.772 223.371,391.535 221.871,392.625 220.017,392.625 218.517,391.535 217.944,389.772 218.517,388.008 220.017,386.918 221.871,386.918 223.371,388.008" fill="#fec834" shape-rendering="crispEdges"/>
   <polyline points="223.944,389.772 223.371,391.535 221.871,392.625 220.017,392.625 218.517,391.535 217.944,389.772 218.517,388.008 220.017,386.918 221.871,386.918 223.371,388.008 223.944,389.772" stroke-linejoin="round" stroke-linecap="round" stroke-width="0.5" fill="none" stroke="#fec834"/>
   <polygon points="242.812,385.161 242.239,386.925 240.739,388.015 238.885,388.015 237.385,386.925 236.812,385.161 237.385,383.398 238.885,382.308 240.739,382.308 242.239,383.398" fill="#fec834" shape-rendering="crispEdges"/>
   <polyline points="242.812,385.161 242.239,386.925 240.739,388.015 238.885,388.015 237.385,386.925 236.812,385.161 237.385,383.398 238.885,382.308 240.739,382.308 242.239,383.398 242.812,385.161" stroke-linejoin="round" stroke-linecap="round" stroke-width="0.5" fill="none" stroke="#fec834"/>
   <polygon points="242.812,388.85 242.239,390.613 240.739,391.703 238.885,391.703 237.385,390.613 236.812,388.85 237.385,387.086 238.885,385.997 240.739,385.997 242.239,387.086" fill="#fec834" shape-rendering="crispEdges"/>
   <polyline points="242.812,388.85 242.239,390.613 240.739,391.703 238.885,391.703 237.385,390.613 236.812,388.85 237.385,387.086 238.885,385.997 240.739,385.997 242.239,387.086 242.812,388.85" stroke-linejoin="round" stroke-linecap="round" stroke-width="0.5" fill="none" stroke="#fec834"/>
   <polygon points="205.075,398.532 204.502,400.295 203.002,401.385 201.148,401.385 199.648,400.295 199.075,398.532 199.648,396.768 201.148,395.678 203.002,395.678 204.502,396.768" fill="#fec834" shape-rendering="crispEdges"/>
   <polyline points="205.075,398.532 204.502,400.295 203.002,401.385 201.148,401.385 199.648,400.295 199.075,398.532 199.648,396.768 201.148,395.678 203.002,395.678 204.502,396.768 205.075,398.532" stroke-linejoin="round" stroke-linecap="round" stroke-width="0.5" fill="none" stroke="#fec834"/>
   <polygon points="544.708,333.986 544.135,335.749 542.635,336.839 540.781,336.839 539.281,335.749 538.708,333.986 539.281,332.222 540.781,331.133 542.635,331.133 544.135,332.222" fill="#fec834" shape-rendering="crispEdges"/>
   <polyline points="544.708,333.986 544.135,335.749 542.635,336.839 540.781,336.839 539.281,335.749 538.708,333.986 539.281,332.222 540.781,331.133 542.635,331.133 544.135,332.222 544.708,333.986" stroke-linejoin="round" stroke-linecap="round" stroke-width="0.5" fill="none" stroke="#fec834"/>
   <polygon points="620.182,379.629 619.609,381.392 618.109,382.482 616.254,382.482 614.754,381.392 614.182,379.629 614.754,377.866 616.254,376.776 618.109,376.776 619.609,377.866" fill="#8bca50" shape-rendering="crispEdges"/>
   <polyline points="620.182,379.629 619.609,381.392 618.109,382.482 616.254,382.482 614.754,381.392 614.182,379.629 614.754,377.866 616.254,376.776 618.109,376.776 619.609,377.866 620.182,379.629" stroke-linejoin="round" stroke-linecap="round" stroke-width="0.5" fill="none" stroke="#8bca50"/>
   <polygon points="808.866,249.154 808.293,250.917 806.793,252.007 804.939,252.007 803.439,250.917 802.866,249.154 803.439,247.391 804.939,246.301 806.793,246.301 808.293,247.391" fill="#8bca50" shape-rendering="crispEdges"/>
   <polyline points="808.866,249.154 808.293,250.917 806.793,252.007 804.939,252.007 803.439,250.917 802.866,249.154 803.439,247.391 804.939,246.301 806.793,246.301 808.293,247.391 808.866,249.154" stroke-linejoin="round" stroke-linecap="round" stroke-width="0.5" fill="none" stroke="#8bca50"/>
   <polygon points="506.971,188.758 506.398,190.521 504.898,191.611 503.044,191.611 501.544,190.521 500.971,188.758 501.544,186.994 503.044,185.904 504.898,185.904 506.398,186.994" fill="#8bca50" shape-rendering="crispEdges"/>
   <polyline points="506.971,188.758 506.398,190.521 504.898,191.611 503.044,191.611 501.544,190.521 500.971,188.758 501.544,186.994 503.044,185.904 504.898,185.904 506.398,186.994 506.971,188.758" stroke-linejoin="round" stroke-linecap="round" stroke-width="0.5" fill="none" stroke="#8bca50"/>
   <polygon points="186.207,370.408 185.634,372.171 184.134,373.261 182.28,373.261 180.78,372.171 180.207,370.408 180.78,368.645 182.28,367.555 184.134,367.555 185.634,368.645" fill="#8bca50" shape-rendering="crispEdges"/>
   <polyline points="186.207,370.408 185.634,372.171 184.134,373.261 182.28,373.261 180.78,372.171 180.207,370.408 180.78,368.645 182.28,367.555 184.134,367.555 185.634,368.645 186.207,370.408" stroke-linejoin="round" stroke-linecap="round" stroke-width="0.5" fill="none" stroke="#8bca50"/>
   <polygon points="205.075,368.103 204.502,369.866 203.002,370.956 201.148,370.956 199.648,369.866 199.075,368.103 199.648,366.339 201.148,365.25 203.002,365.25 204.502,366.339" fill="#8bca50" shape-rendering="crispEdges"/>
   <polyline points="205.075,368.103 204.502,369.866 203.002,370.956 201.148,370.956 199.648,369.866 199.075,368.103 199.648,366.339 201.148,365.25 203.002,365.25 204.502,366.339 205.075,368.103" stroke-linejoin="round" stroke-linecap="round" stroke-width="0.5" fill="none" stroke="#8bca50"/>
   <polygon points="261.681,364.415 261.108,366.178 259.608,367.268 257.753,367.268 256.253,366.178 255.681,364.415 256.253,362.651 257.753,361.562 259.608,361.562 261.108,362.651" fill="#8bca50" shape-rendering="crispEdges"/>
   <polyline points="261.681,364.415 261.108,366.178 259.608,367.268 257.753,367.268 256.253,366.178 255.681,364.415 256.253,362.651 257.753,361.562 259.608,361.562 261.108,362.651 261.681,364.415" stroke-linejoin="round" stroke-linecap="round" stroke-width="0.5" fill="none" stroke="#8bca50"/>
   <polygon points="865.472,85.9453 864.899,87.7085 863.399,88.7983 861.545,88.7983 860.045,87.7085 859.472,85.9453 860.045,84.1821 861.545,83.0923 863.399,83.0923 864.899,84.1821" fill="#8bca50" shape-rendering="crispEdges"/>
   <polyline points="865.472,85.9453 864.899,87.7085 863.399,88.7983 861.545,88.7983 860.045,87.7085 859.472,85.9453 860.045,84.1821 861.545,83.0923 863.399,83.0923 864.899,84.1821 865.472,85.9453" stroke-linejoin="round" stroke-linecap="round" stroke-width="0.5" fill="none" stroke="#8bca50"/>
   <polygon points="525.839,185.53 525.266,187.293 523.766,188.383 521.912,188.383 520.412,187.293 519.839,185.53 520.412,183.767 521.912,182.677 523.766,182.677 525.266,183.767" fill="#8bca50" shape-rendering="crispEdges"/>
   <polyline points="525.839,185.53 525.266,187.293 523.766,188.383 521.912,188.383 520.412,187.293 519.839,185.53 520.412,183.767 521.912,182.677 523.766,182.677 525.266,183.767 525.839,185.53" stroke-linejoin="round" stroke-linecap="round" stroke-width="0.5" fill="none" stroke="#8bca50"/>
   <polygon points="582.445,181.381 581.872,183.145 580.372,184.234 578.518,184.234 577.018,183.145 576.445,181.381 577.018,179.618 578.518,178.528 580.372,178.528 581.872,179.618" fill="#8bca50" shape-rendering="crispEdges"/>
   <polyline points="582.445,181.381 581.872,183.145 580.372,184.234 578.518,184.234 577.018,183.145 576.445,181.381 577.018,179.618 578.518,178.528 580.372,178.528 581.872,179.618 582.445,181.381" stroke-linejoin="round" stroke-linecap="round" stroke-width="0.5" fill="none" stroke="#8bca50"/>
   <polygon points="808.866,88.2505 808.293,90.0137 806.793,91.1035 804.939,91.1035 803.439,90.0137 802.866,88.2505 803.439,86.4873 804.939,85.3975 806.793,85.3975 808.293,86.4873" fill="#8bca50" shape-rendering="crispEdges"/>
   <polyline points="808.866,88.2505 808.293,90.0137 806.793,91.1035 804.939,91.1035 803.439,90.0137 802.866,88.2505 803.439,86.4873 804.939,85.3975 806.793,85.3975 808.293,86.4873 808.866,88.2505" stroke-linejoin="round" stroke-linecap="round" stroke-width="0.5" fill="none" stroke="#8bca50"/>
   <polygon points="167.338,354.732 166.766,356.496 165.266,357.586 163.411,357.586 161.911,356.496 161.338,354.732 161.911,352.969 163.411,351.879 165.266,351.879 166.766,352.969" fill="#8bca50" shape-rendering="crispEdges"/>
   <polyline points="167.338,354.732 166.766,356.496 165.266,357.586 163.411,357.586 161.911,356.496 161.338,354.732 161.911,352.969 163.411,351.879 165.266,351.879 166.766,352.969 167.338,354.732" stroke-linejoin="round" stroke-linecap="round" stroke-width="0.5" fill="none" stroke="#8bca50"/>
   <polygon points="167.338,355.194 166.766,356.957 165.266,358.047 163.411,358.047 161.911,356.957 161.338,355.194 161.911,353.43 163.411,352.34 165.266,352.34 166.766,353.43" fill="#8bca50" shape-rendering="crispEdges"/>
   <polyline points="167.338,355.194 166.766,356.957 165.266,358.047 163.411,358.047 161.911,356.957 161.338,355.194 161.911,353.43 163.411,352.34 165.266,352.34 166.766,353.43 167.338,355.194" stroke-linejoin="round" stroke-linecap="round" stroke-width="0.5" fill="none" stroke="#8bca50"/>
   <polygon points="884.34,84.1011 883.768,85.8647 882.268,86.9541 880.413,86.9541 878.913,85.8647 878.34,84.1011 878.913,82.3379 880.413,81.248 882.268,81.248 883.768,82.3379" fill="#8bca50" shape-rendering="crispEdges"/>
   <polyline points="884.34,84.1011 883.768,85.8647 882.268,86.9541 880.413,86.9541 878.913,85.8647 878.34,84.1011 878.913,82.3379 880.413,81.248 882.268,81.248 883.768,82.3379 884.34,84.1011" stroke-linejoin="round" stroke-linecap="round" stroke-width="0.5" fill="none" stroke="#8bca50"/>
   <polygon points="261.681,346.434 261.108,348.197 259.608,349.287 257.753,349.287 256.253,348.197 255.681,346.434 256.253,344.67 257.753,343.581 259.608,343.581 261.108,344.67" fill="#8bca50" shape-rendering="crispEdges"/>
   <polyline points="261.681,346.434 261.108,348.197 259.608,349.287 257.753,349.287 256.253,348.197 255.681,346.434 256.253,344.67 257.753,343.581 259.608,343.581 261.108,344.67 261.681,346.434" stroke-linejoin="round" stroke-linecap="round" stroke-width="0.5" fill="none" stroke="#8bca50"/>
   <polygon points="865.472,81.7959 864.899,83.5596 863.399,84.6489 861.545,84.6489 860.045,83.5596 859.472,81.7959 860.045,80.0327 861.545,78.9429 863.399,78.9429 864.899,80.0327" fill="#8bca50" shape-rendering="crispEdges"/>
   <polyline points="865.472,81.7959 864.899,83.5596 863.399,84.6489 861.545,84.6489 860.045,83.5596 859.472,81.7959 860.045,80.0327 861.545,78.9429 863.399,78.9429 864.899,80.0327 865.472,81.7959" stroke-linejoin="round" stroke-linecap="round" stroke-width="0.5" fill="none" stroke="#8bca50"/>
   <polygon points="167.338,344.59 166.766,346.353 165.266,347.443 163.411,347.443 161.911,346.353 161.338,344.59 161.911,342.826 163.411,341.736 165.266,341.736 166.766,342.826" fill="#8bca50" shape-rendering="crispEdges"/>
   <polyline points="167.338,344.59 166.766,346.353 165.266,347.443 163.411,347.443 161.911,346.353 161.338,344.59 161.911,342.826 163.411,341.736 165.266,341.736 166.766,342.826 167.338,344.59" stroke-linejoin="round" stroke-linecap="round" stroke-width="0.5" fill="none" stroke="#8bca50"/>
   <polygon points="657.918,117.757 657.346,119.521 655.846,120.61 653.992,120.61 652.492,119.521 651.918,117.757 652.492,115.994 653.992,114.904 655.846,114.904 657.346,115.994" fill="#8bca50" shape-rendering="crispEdges"/>
   <polyline points="657.918,117.757 657.346,119.521 655.846,120.61 653.992,120.61 652.492,119.521 651.918,117.757 652.492,115.994 653.992,114.904 655.846,114.904 657.346,115.994 657.918,117.757" stroke-linejoin="round" stroke-linecap="round" stroke-width="0.5" fill="none" stroke="#8bca50"/>
   <polygon points="789.998,84.562 789.425,86.3257 787.925,87.4155 786.071,87.4155 784.571,86.3257 783.998,84.562 784.571,82.7988 786.071,81.709 787.925,81.709 789.425,82.7988" fill="#8bca50" shape-rendering="crispEdges"/>
   <polyline points="789.998,84.562 789.425,86.3257 787.925,87.4155 786.071,87.4155 784.571,86.3257 783.998,84.562 784.571,82.7988 786.071,81.709 787.925,81.709 789.425,82.7988 789.998,84.562" stroke-linejoin="round" stroke-linecap="round" stroke-width="0.5" fill="none" stroke="#8bca50"/>
   <polygon points="676.787,112.225 676.214,113.988 674.714,115.078 672.86,115.078 671.36,113.988 670.787,112.225 671.36,110.461 672.86,109.372 674.714,109.372 676.214,110.461" fill="#8bca50" shape-rendering="crispEdges"/>
   <polyline points="676.787,112.225 676.214,113.988 674.714,115.078 672.86,115.078 671.36,113.988 670.787,112.225 671.36,110.461 672.86,109.372 674.714,109.372 676.214,110.461 676.787,112.225" stroke-linejoin="round" stroke-linecap="round" stroke-width="0.5" fill="none" stroke="#8bca50"/>
   <polygon points="544.708,162.939 544.135,164.703 542.635,165.792 540.781,165.792 539.281,164.703 538.708,162.939 539.281,161.176 540.781,160.086 542.635,160.086 544.135,161.176" fill="#8bca50" shape-rendering="crispEdges"/>
   <polyline points="544.708,162.939 544.135,164.703 542.635,165.792 540.781,165.792 539.281,164.703 538.708,162.939 539.281,161.176 540.781,160.086 542.635,160.086 544.135,161.176 544.708,162.939" stroke-linejoin="round" stroke-linecap="round" stroke-width="0.5" fill="none" stroke="#8bca50"/>
   <polygon points="601.313,114.991 600.74,116.754 599.24,117.844 597.386,117.844 595.886,116.754 595.313,114.991 595.886,113.228 597.386,112.138 599.24,112.138 600.74,113.228" fill="#8bca50" shape-rendering="crispEdges"/>
   <polyline points="601.313,114.991 600.74,116.754 599.24,117.844 597.386,117.844 595.886,116.754 595.313,114.991 595.886,113.228 597.386,112.138 599.24,112.138 600.74,113.228 601.313,114.991" stroke-linejoin="round" stroke-linecap="round" stroke-width="0.5" fill="none" stroke="#8bca50"/>
   <polygon points="223.944,326.148 223.371,327.911 221.871,329.001 220.017,329.001 218.517,327.911 217.944,326.148 218.517,324.385 220.017,323.295 221.871,323.295 223.371,324.385" fill="#8bca50" shape-rendering="crispEdges"/>
   <polyline points="223.944,326.148 223.371,327.911 221.871,329.001 220.017,329.001 218.517,327.911 217.944,326.148 218.517,324.385 220.017,323.295 221.871,323.295 223.371,324.385 223.944,326.148" stroke-linejoin="round" stroke-linecap="round" stroke-width="0.5" fill="none" stroke="#8bca50"/>
   <polygon points="280.549,321.077 279.976,322.84 278.476,323.93 276.622,323.93 275.122,322.84 274.549,321.077 275.122,319.313 276.622,318.224 278.476,318.224 279.976,319.313" fill="#8bca50" shape-rendering="crispEdges"/>
   <polyline points="280.549,321.077 279.976,322.84 278.476,323.93 276.622,323.93 275.122,322.84 274.549,321.077 275.122,319.313 276.622,318.224 278.476,318.224 279.976,319.313 280.549,321.077" stroke-linejoin="round" stroke-linecap="round" stroke-width="0.5" fill="none" stroke="#8bca50"/>
   <polygon points="205.075,321.077 204.502,322.84 203.002,323.93 201.148,323.93 199.648,322.84 199.075,321.077 199.648,319.313 201.148,318.224 203.002,318.224 204.502,319.313" fill="#8bca50" shape-rendering="crispEdges"/>
   <polyline points="205.075,321.077 204.502,322.84 203.002,323.93 201.148,323.93 199.648,322.84 199.075,321.077 199.648,319.313 201.148,318.224 203.002,318.224 204.502,319.313 205.075,321.077" stroke-linejoin="round" stroke-linecap="round" stroke-width="0.5" fill="none" stroke="#8bca50"/>
   <polygon points="205.075,320.154 204.502,321.918 203.002,323.008 201.148,323.008 199.648,321.918 199.075,320.154 199.648,318.391 201.148,317.301 203.002,317.301 204.502,318.391" fill="#8bca50" shape-rendering="crispEdges"/>
   <polyline points="205.075,320.154 204.502,321.918 203.002,323.008 201.148,323.008 199.648,321.918 199.075,320.154 199.648,318.391 201.148,317.301 203.002,317.301 204.502,318.391 205.075,320.154" stroke-linejoin="round" stroke-linecap="round" stroke-width="0.5" fill="none" stroke="#8bca50"/>
   <polygon points="223.944,318.311 223.371,320.074 221.871,321.164 220.017,321.164 218.517,320.074 217.944,318.311 218.517,316.547 220.017,315.457 221.871,315.457 223.371,316.547" fill="#8bca50" shape-rendering="crispEdges"/>
   <polyline points="223.944,318.311 223.371,320.074 221.871,321.164 220.017,321.164 218.517,320.074 217.944,318.311 218.517,316.547 220.017,315.457 221.871,315.457 223.371,316.547 223.944,318.311" stroke-linejoin="round" stroke-linecap="round" stroke-width="0.5" fill="none" stroke="#8bca50"/>
   <polygon points="563.576,158.79 563.003,160.553 561.503,161.643 559.649,161.643 558.149,160.553 557.576,158.79 558.149,157.026 559.649,155.937 561.503,155.937 563.003,157.026" fill="#8bca50" shape-rendering="crispEdges"/>
   <polyline points="563.576,158.79 563.003,160.553 561.503,161.643 559.649,161.643 558.149,160.553 557.576,158.79 558.149,157.026 559.649,155.937 561.503,155.937 563.003,157.026 563.576,158.79" stroke-linejoin="round" stroke-linecap="round" stroke-width="0.5" fill="none" stroke="#8bca50"/>
   <polygon points="280.549,310.012 279.976,311.775 278.476,312.865 276.622,312.865 275.122,311.775 274.549,310.012 275.122,308.248 276.622,307.158 278.476,307.158 279.976,308.248" fill="#8bca50" shape-rendering="crispEdges"/>
   <polyline points="280.549,310.012 279.976,311.775 278.476,312.865 276.622,312.865 275.122,311.775 274.549,310.012 275.122,308.248 276.622,307.158 278.476,307.158 279.976,308.248 280.549,310.012" stroke-linejoin="round" stroke-linecap="round" stroke-width="0.5" fill="none" stroke="#8bca50"/>
   <polygon points="223.944,310.473 223.371,312.236 221.871,313.326 220.017,313.326 218.517,312.236 217.944,310.473 218.517,308.709 220.017,307.62 221.871,307.62 223.371,308.709" fill="#8bca50" shape-rendering="crispEdges"/>
   <polyline points="223.944,310.473 223.371,312.236 221.871,313.326 220.017,313.326 218.517,312.236 217.944,310.473 218.517,308.709 220.017,307.62 221.871,307.62 223.371,308.709 223.944,310.473" stroke-linejoin="round" stroke-linecap="round" stroke-width="0.5" fill="none" stroke="#8bca50"/>
   <polygon points="676.787,115.913 676.214,117.676 674.714,118.766 672.86,118.766 671.36,117.676 670.787,115.913 671.36,114.15 672.86,113.06 674.714,113.06 676.214,114.15" fill="#8bca50" shape-rendering="crispEdges"/>
   <polyline points="676.787,115.913 676.214,117.676 674.714,118.766 672.86,118.766 671.36,117.676 670.787,115.913 671.36,114.15 672.86,113.06 674.714,113.06 676.214,114.15 676.787,115.913" stroke-linejoin="round" stroke-linecap="round" stroke-width="0.5" fill="none" stroke="#8bca50"/>
   <polygon points="846.604,87.7896 846.03,89.5527 844.53,90.6426 842.676,90.6426 841.176,89.5527 840.604,87.7896 841.176,86.0264 842.676,84.9365 844.53,84.9365 846.03,86.0264" fill="#8bca50" shape-rendering="crispEdges"/>
   <polyline points="846.604,87.7896 846.03,89.5527 844.53,90.6426 842.676,90.6426 841.176,89.5527 840.604,87.7896 841.176,86.0264 842.676,84.9365 844.53,84.9365 846.03,86.0264 846.604,87.7896" stroke-linejoin="round" stroke-linecap="round" stroke-width="0.5" fill="none" stroke="#8bca50"/>
   <polygon points="789.998,87.7896 789.425,89.5527 787.925,90.6426 786.071,90.6426 784.571,89.5527 783.998,87.7896 784.571,86.0264 786.071,84.9365 787.925,84.9365 789.425,86.0264" fill="#8bca50" shape-rendering="crispEdges"/>
   <polyline points="789.998,87.7896 789.425,89.5527 787.925,90.6426 786.071,90.6426 784.571,89.5527 783.998,87.7896 784.571,86.0264 786.071,84.9365 787.925,84.9365 789.425,86.0264 789.998,87.7896" stroke-linejoin="round" stroke-linecap="round" stroke-width="0.5" fill="none" stroke="#8bca50"/>
   <polygon points="620.182,110.38 619.609,112.144 618.109,113.234 616.254,113.234 614.754,112.144 614.182,110.38 614.754,108.617 616.254,107.527 618.109,107.527 619.609,108.617" fill="#8bca50" shape-rendering="crispEdges"/>
   <polyline points="620.182,110.38 619.609,112.144 618.109,113.234 616.254,113.234 614.754,112.144 614.182,110.38 614.754,108.617 616.254,107.527 618.109,107.527 619.609,108.617 620.182,110.38" stroke-linejoin="round" stroke-linecap="round" stroke-width="0.5" fill="none" stroke="#8bca50"/>
   <polygon points="223.944,297.103 223.371,298.866 221.871,299.956 220.017,299.956 218.517,298.866 217.944,297.103 218.517,295.339 220.017,294.249 221.871,294.249 223.371,295.339" fill="#8bca50" shape-rendering="crispEdges"/>
   <polyline points="223.944,297.103 223.371,298.866 221.871,299.956 220.017,299.956 218.517,298.866 217.944,297.103 218.517,295.339 220.017,294.249 221.871,294.249 223.371,295.339 223.944,297.103" stroke-linejoin="round" stroke-linecap="round" stroke-width="0.5" fill="none" stroke="#8bca50"/>
   <polygon points="167.338,298.024 166.766,299.788 165.266,300.877 163.411,300.877 161.911,299.788 161.338,298.024 161.911,296.261 163.411,295.171 165.266,295.171 166.766,296.261" fill="#8bca50" shape-rendering="crispEdges"/>
   <polyline points="167.338,298.024 166.766,299.788 165.266,300.877 163.411,300.877 161.911,299.788 161.338,298.024 161.911,296.261 163.411,295.171 165.266,295.171 166.766,296.261 167.338,298.024" stroke-linejoin="round" stroke-linecap="round" stroke-width="0.5" fill="none" stroke="#8bca50"/>
   <polygon points="223.944,294.797 223.371,296.561 221.871,297.65 220.017,297.65 218.517,296.561 217.944,294.797 218.517,293.034 220.017,291.944 221.871,291.944 223.371,293.034" fill="#8bca50" shape-rendering="crispEdges"/>
   <polyline points="223.944,294.797 223.371,296.561 221.871,297.65 220.017,297.65 218.517,296.561 217.944,294.797 218.517,293.034 220.017,291.944 221.871,291.944 223.371,293.034 223.944,294.797" stroke-linejoin="round" stroke-linecap="round" stroke-width="0.5" fill="none" stroke="#8bca50"/>
   <polygon points="242.812,292.953 242.239,294.716 240.739,295.806 238.885,295.806 237.385,294.716 236.812,292.953 237.385,291.189 238.885,290.1 240.739,290.1 242.239,291.189" fill="#8bca50" shape-rendering="crispEdges"/>
   <polyline points="242.812,292.953 242.239,294.716 240.739,295.806 238.885,295.806 237.385,294.716 236.812,292.953 237.385,291.189 238.885,290.1 240.739,290.1 242.239,291.189 242.812,292.953" stroke-linejoin="round" stroke-linecap="round" stroke-width="0.5" fill="none" stroke="#8bca50"/>
   <polygon points="242.812,291.109 242.239,292.872 240.739,293.962 238.885,293.962 237.385,292.872 236.812,291.109 237.385,289.346 238.885,288.256 240.739,288.256 242.239,289.346" fill="#8bca50" shape-rendering="crispEdges"/>
   <polyline points="242.812,291.109 242.239,292.872 240.739,293.962 238.885,293.962 237.385,292.872 236.812,291.109 237.385,289.346 238.885,288.256 240.739,288.256 242.239,289.346 242.812,291.109" stroke-linejoin="round" stroke-linecap="round" stroke-width="0.5" fill="none" stroke="#8bca50"/>
   <polygon points="205.075,291.57 204.502,293.333 203.002,294.423 201.148,294.423 199.648,293.333 199.075,291.57 199.648,289.807 201.148,288.717 203.002,288.717 204.502,289.807" fill="#8bca50" shape-rendering="crispEdges"/>
   <polyline points="205.075,291.57 204.502,293.333 203.002,294.423 201.148,294.423 199.648,293.333 199.075,291.57 199.648,289.807 201.148,288.717 203.002,288.717 204.502,289.807 205.075,291.57" stroke-linejoin="round" stroke-linecap="round" stroke-width="0.5" fill="none" stroke="#8bca50"/>
   <polygon points="544.708,151.875 544.135,153.638 542.635,154.728 540.781,154.728 539.281,153.638 538.708,151.875 539.281,150.111 540.781,149.021 542.635,149.021 544.135,150.111" fill="#8bca50" shape-rendering="crispEdges"/>
   <polyline points="544.708,151.875 544.135,153.638 542.635,154.728 540.781,154.728 539.281,153.638 538.708,151.875 539.281,150.111 540.781,149.021 542.635,149.021 544.135,150.111 544.708,151.875" stroke-linejoin="round" stroke-linecap="round" stroke-width="0.5" fill="none" stroke="#8bca50"/>
  </g>
  <clipPath id="cp00973463">
   <polygon points="0,463 973,463 973,0 0,0"/>
  </clipPath>
  <g clip-path="url(#cp00973463)">
   <polygon points="138.431,144.782 377.748,144.782 377.748,46.5991 138.431,46.5991" fill="#ffffff" shape-rendering="crispEdges"/>
   <polyline points="138.431,144.782 377.748,144.782" stroke-linejoin="miter" stroke-linecap="square" stroke-width="0.5" fill="none" stroke="#262626" stroke-dasharray="16,0"/>
   <polyline points="138.431,46.5991 377.748,46.5991" stroke-linejoin="miter" stroke-linecap="square" stroke-width="0.5" fill="none" stroke="#262626" stroke-dasharray="16,0"/>
   <polyline points="138.431,144.782 138.431,46.5991" stroke-linejoin="miter" stroke-linecap="square" stroke-width="0.5" fill="none" stroke="#262626" stroke-dasharray="16,0"/>
   <polyline points="377.748,144.782 377.748,46.5991" stroke-linejoin="miter" stroke-linecap="square" stroke-width="0.5" fill="none" stroke="#262626" stroke-dasharray="16,0"/>
   <polygon points="162.132,64.9346 161.559,66.6978 160.059,67.7876 158.205,67.7876 156.705,66.6978 156.132,64.9346 156.705,63.1709 158.205,62.0811 160.059,62.0811 161.559,63.1709" fill="#2d88f5" shape-rendering="crispEdges"/>
   <polyline points="162.132,64.9346 161.559,66.6978 160.059,67.7876 158.205,67.7876 156.705,66.6978 156.132,64.9346 156.705,63.1709 158.205,62.0811 160.059,62.0811 161.559,63.1709 162.132,64.9346" stroke-linejoin="round" stroke-linecap="round" stroke-width="0.5" fill="none" stroke="#2d88f5"/>
   <g font-family="'CMU Serif'" font-size="18" xml:space="preserve" font-weight="normal" font-style="normal" transform="translate(179.833,71.4343) rotate(-0,-0,-6.5)">
    <text x="0 12 25 37 " y="-0" fill="rgb(0,0,0)">FCFS</text>
   </g>
   <polygon points="162.132,95.6904 161.559,97.4536 160.059,98.5435 158.205,98.5435 156.705,97.4536 156.132,95.6904 156.705,93.9272 158.205,92.8374 160.059,92.8374 161.559,93.9272" fill="#fec834" shape-rendering="crispEdges"/>
   <polyline points="162.132,95.6904 161.559,97.4536 160.059,98.5435 158.205,98.5435 156.705,97.4536 156.132,95.6904 156.705,93.9272 158.205,92.8374 160.059,92.8374 161.559,93.9272 162.132,95.6904" stroke-linejoin="round" stroke-linecap="round" stroke-width="0.5" fill="none" stroke="#fec834"/>
   <g font-family="'CMU Serif'" font-size="18" xml:space="preserve" font-weight="normal" font-style="normal" transform="translate(179.833,102.19) rotate(-0,-0,-6.5)">
    <text x="0 10 19 " y="-0" fill="rgb(0,0,0)">SJF</text>
   </g>
   <polygon points="162.132,126.446 161.559,128.21 160.059,129.3 158.205,129.3 156.705,128.21 156.132,126.446 156.705,124.683 158.205,123.593 160.059,123.593 161.559,124.683" fill="#8bca50" shape-rendering="crispEdges"/>
   <polyline points="162.132,126.446 161.559,128.21 160.059,129.3 158.205,129.3 156.705,128.21 156.132,126.446 156.705,124.683 158.205,123.593 160.059,123.593 161.559,124.683 162.132,126.446" stroke-linejoin="round" stroke-linecap="round" stroke-width="0.5" fill="none" stroke="#8bca50"/>
   <g font-family="'CMU Serif'" font-size="18" xml:space="preserve" font-weight="normal" font-style="normal" transform="translate(179.833,136.446) rotate(-0,-0,-10)">
    <text x="0 13 26 32 39 46 51 66 74 80 89 99 108 118 125 135 150 156 170 176 185 " y="-5" fill="rgb(0,0,0)">RR (time quantum = 8)</text>
   </g>
  </g>
 </g>
</svg>
