<?xml version='1.0' encoding='UTF-8' standalone='no'?>
<svg width="973pt" xmlns="http://www.w3.org/2000/svg" xmlns:xlink="http://www.w3.org/1999/xlink" height="463pt" viewBox="0 0 973 463">
 <title>Figure 1</title>
 <desc>
Creator: GL2PS 1.4.2, (C) 1999-2020 C. Geuzaine
For: Octave
CreationDate: Tue Dec 26 16:35:59 2023
</desc>
 <defs/>
 <polygon fill="#ffffff" points="0,0 973,0 973,463 0,463"/>
 <g>
  <polygon fill="#ffffff" points="0,463 973,463 973,0 0,0" shape-rendering="crispEdges"/>
  <clipPath id="cp00973463">
   <polygon points="0,463 973,463 973,0 0,0"/>
  </clipPath>
  <g clip-path="url(#cp00973463)">
   <polygon fill="#ffffff" shape-rendering="crispEdges" points="126.602,403.603 881.34,403.603 881.34,34.7695 126.602,34.7695"/>
   <polyline stroke-width="0.5" stroke-opacity="0.15" stroke-linejoin="miter" fill="none" stroke-dasharray="16,0" points="126.602,403.603 126.602,34.7695" stroke="#262626" stroke-linecap="butt"/>
   <polyline stroke-width="0.5" stroke-opacity="0.15" stroke-linejoin="miter" fill="none" stroke-dasharray="16,0" points="315.286,403.603 315.286,34.7695" stroke="#262626" stroke-linecap="butt"/>
   <polyline stroke-width="0.5" stroke-opacity="0.15" stroke-linejoin="miter" fill="none" stroke-dasharray="16,0" points="503.971,403.603 503.971,34.7695" stroke="#262626" stroke-linecap="butt"/>
   <polyline stroke-width="0.5" stroke-opacity="0.15" stroke-linejoin="miter" fill="none" stroke-dasharray="16,0" points="692.656,403.603 692.656,34.7695" stroke="#262626" stroke-linecap="butt"/>
   <polyline stroke-width="0.5" stroke-opacity="0.15" stroke-linejoin="miter" fill="none" stroke-dasharray="16,0" points="881.34,403.603 881.34,34.7695" stroke="#262626" stroke-linecap="butt"/>
   <polyline stroke-width="0.5" stroke-linejoin="miter" fill="none" points="126.602,403.603 126.602,396.059" stroke="#262626" stroke-linecap="butt"/>
   <polyline stroke-width="0.5" stroke-linejoin="miter" fill="none" points="126.602,34.7695 126.602,42.3135" stroke="#262626" stroke-linecap="butt"/>
   <polyline stroke-width="0.5" stroke-linejoin="miter" fill="none" points="315.286,403.603 315.286,396.059" stroke="#262626" stroke-linecap="butt"/>
   <polyline stroke-width="0.5" stroke-linejoin="miter" fill="none" points="315.286,34.7695 315.286,42.3135" stroke="#262626" stroke-linecap="butt"/>
   <polyline stroke-width="0.5" stroke-linejoin="miter" fill="none" points="503.971,403.603 503.971,396.059" stroke="#262626" stroke-linecap="butt"/>
   <polyline stroke-width="0.5" stroke-linejoin="miter" fill="none" points="503.971,34.7695 503.971,42.3135" stroke="#262626" stroke-linecap="butt"/>
   <polyline stroke-width="0.5" stroke-linejoin="miter" fill="none" points="692.656,403.603 692.656,396.059" stroke="#262626" stroke-linecap="butt"/>
   <polyline stroke-width="0.5" stroke-linejoin="miter" fill="none" points="692.656,34.7695 692.656,42.3135" stroke="#262626" stroke-linecap="butt"/>
   <polyline stroke-width="0.5" stroke-linejoin="miter" fill="none" points="881.34,403.603 881.34,396.059" stroke="#262626" stroke-linecap="butt"/>
   <polyline stroke-width="0.5" stroke-linejoin="miter" fill="none" points="881.34,34.7695 881.34,42.3135" stroke="#262626" stroke-linecap="butt"/>
   <g font-style="normal" font-family="'CMU Serif'" font-weight="normal" transform="translate(121.601,433.596) rotate(-0,5,-15)" xml:space="preserve" font-size="20">
    <text y="-0" x="0 " fill="rgb(38,38,38)">0</text>
   </g>
   <g font-style="normal" font-family="'CMU Serif'" font-weight="normal" transform="translate(305.286,433.596) rotate(-0,10,-15)" xml:space="preserve" font-size="20">
    <text y="-0" x="0 10 " fill="rgb(38,38,38)">10</text>
   </g>
   <g font-style="normal" font-family="'CMU Serif'" font-weight="normal" transform="translate(493.971,433.596) rotate(-0,10,-15)" xml:space="preserve" font-size="20">
    <text y="-0" x="0 10 " fill="rgb(38,38,38)">20</text>
   </g>
   <g font-style="normal" font-family="'CMU Serif'" font-weight="normal" transform="translate(682.656,433.596) rotate(-0,10,-15)" xml:space="preserve" font-size="20">
    <text y="-0" x="0 10 " fill="rgb(38,38,38)">30</text>
   </g>
   <g font-style="normal" font-family="'CMU Serif'" font-weight="normal" transform="translate(871.34,433.596) rotate(-0,10,-15)" xml:space="preserve" font-size="20">
    <text y="-0" x="0 10 " fill="rgb(38,38,38)">40</text>
   </g>
   <polyline stroke-width="0.5" stroke-opacity="0.15" stroke-linejoin="miter" fill="none" stroke-dasharray="16,0" points="126.602,403.603 881.34,403.603" stroke="#262626" stroke-linecap="butt"/>
   <polyline stroke-width="0.5" stroke-opacity="0.15" stroke-linejoin="miter" fill="none" stroke-dasharray="16,0" points="126.602,311.395 881.34,311.395" stroke="#262626" stroke-linecap="butt"/>
   <polyline stroke-width="0.5" stroke-opacity="0.15" stroke-linejoin="miter" fill="none" stroke-dasharray="16,0" points="126.602,219.187 881.34,219.187" stroke="#262626" stroke-linecap="butt"/>
   <polyline stroke-width="0.5" stroke-opacity="0.15" stroke-linejoin="miter" fill="none" stroke-dasharray="16,0" points="126.602,126.978 881.34,126.978" stroke="#262626" stroke-linecap="butt"/>
   <polyline stroke-width="0.5" stroke-opacity="0.15" stroke-linejoin="miter" fill="none" stroke-dasharray="16,0" points="126.602,34.7695 881.34,34.7695" stroke="#262626" stroke-linecap="butt"/>
   <polyline stroke-width="0.5" stroke-linejoin="miter" fill="none" points="126.602,403.603 134.146,403.603" stroke="#262626" stroke-linecap="butt"/>
   <polyline stroke-width="0.5" stroke-linejoin="miter" fill="none" points="881.34,403.603 873.795,403.603" stroke="#262626" stroke-linecap="butt"/>
   <polyline stroke-width="0.5" stroke-linejoin="miter" fill="none" points="126.602,311.395 134.146,311.395" stroke="#262626" stroke-linecap="butt"/>
   <polyline stroke-width="0.5" stroke-linejoin="miter" fill="none" points="881.34,311.395 873.795,311.395" stroke="#262626" stroke-linecap="butt"/>
   <polyline stroke-width="0.5" stroke-linejoin="miter" fill="none" points="126.602,219.187 134.146,219.187" stroke="#262626" stroke-linecap="butt"/>
   <polyline stroke-width="0.5" stroke-linejoin="miter" fill="none" points="881.34,219.187 873.795,219.187" stroke="#262626" stroke-linecap="butt"/>
   <polyline stroke-width="0.5" stroke-linejoin="miter" fill="none" points="126.602,126.978 134.146,126.978" stroke="#262626" stroke-linecap="butt"/>
   <polyline stroke-width="0.5" stroke-linejoin="miter" fill="none" points="881.34,126.978 873.795,126.978" stroke="#262626" stroke-linecap="butt"/>
   <polyline stroke-width="0.5" stroke-linejoin="miter" fill="none" points="126.602,34.7695 134.146,34.7695" stroke="#262626" stroke-linecap="butt"/>
   <polyline stroke-width="0.5" stroke-linejoin="miter" fill="none" points="881.34,34.7695 873.795,34.7695" stroke="#262626" stroke-linecap="butt"/>
   <g font-style="normal" font-family="'CMU Serif'" font-weight="normal" transform="translate(106.605,411.103) rotate(-0,10,-7.5)" xml:space="preserve" font-size="20">
    <text y="-0" x="0 " fill="rgb(38,38,38)">0</text>
   </g>
   <g font-style="normal" font-family="'CMU Serif'" font-weight="normal" transform="translate(86.6048,318.895) rotate(-0,30,-7.5)" xml:space="preserve" font-size="20">
    <text y="-0" x="0 10 20 " fill="rgb(38,38,38)">200</text>
   </g>
   <g font-style="normal" font-family="'CMU Serif'" font-weight="normal" transform="translate(86.6048,226.686) rotate(-0,30,-7.5)" xml:space="preserve" font-size="20">
    <text y="-0" x="0 10 20 " fill="rgb(38,38,38)">400</text>
   </g>
   <g font-style="normal" font-family="'CMU Serif'" font-weight="normal" transform="translate(86.6048,134.478) rotate(-0,30,-7.5)" xml:space="preserve" font-size="20">
    <text y="-0" x="0 10 20 " fill="rgb(38,38,38)">600</text>
   </g>
   <g font-style="normal" font-family="'CMU Serif'" font-weight="normal" transform="translate(86.6048,42.2697) rotate(-0,30,-7.5)" xml:space="preserve" font-size="20">
    <text y="-0" x="0 10 20 " fill="rgb(38,38,38)">800</text>
   </g>
   <polyline stroke-width="0.5" stroke-linejoin="miter" fill="none" stroke-dasharray="16,0" points="126.602,403.603 881.34,403.603" stroke="#262626" stroke-linecap="square"/>
   <polyline stroke-width="0.5" stroke-linejoin="miter" fill="none" stroke-dasharray="16,0" points="126.602,34.7695 881.34,34.7695" stroke="#262626" stroke-linecap="square"/>
   <polyline stroke-width="0.5" stroke-linejoin="miter" fill="none" stroke-dasharray="16,0" points="126.602,403.603 126.602,34.7695" stroke="#262626" stroke-linecap="square"/>
   <polyline stroke-width="0.5" stroke-linejoin="miter" fill="none" stroke-dasharray="16,0" points="881.34,403.603 881.34,34.7695" stroke="#262626" stroke-linecap="square"/>
   <g font-style="normal" font-family="'CMU Serif'" font-weight="normal" transform="translate(422.471,463.596) rotate(-0,81.5,-25)" xml:space="preserve" font-size="24">
    <text y="-6" x="0 13 26 35 44 53 61 70 77 97 108 116 125 145 154 " fill="rgb(38,38,38)">burst time (ms)</text>
   </g>
   <g font-style="normal" font-family="'CMU Serif'" font-weight="normal" transform="translate(-31.3952,219.186) rotate(-90,113,0)" xml:space="preserve" font-size="24">
    <text y="-6" x="0 9 22 31 44 56 65 77 90 103 116 124 133 140 160 171 179 188 208 217 " fill="rgb(38,38,38)">turnaround time (ms)</text>
   </g>
   <polyline stroke-width="1.5" stroke-linejoin="round" fill="none" stroke-dasharray="8,8,8,8" points="126.602,292.755 128.488,292.133 130.375,291.515 132.262,290.9 134.149,290.29 136.036,289.683 137.922,289.08 139.81,288.48 141.696,287.885 143.583,287.294 145.47,286.706 147.357,286.123 149.244,285.542 151.13,284.966 153.017,284.394 154.904,283.825 156.791,283.26 158.678,282.699 160.564,282.141 162.452,281.587 164.338,281.037 166.225,280.491 168.112,279.948 169.999,279.409 171.886,278.874 173.772,278.342 175.66,277.814 177.546,277.29 179.433,276.77 181.32,276.252 183.207,275.739 185.094,275.229 186.98,274.723 188.867,274.22 190.754,273.721 192.641,273.226 194.528,272.734 196.415,272.246 198.302,271.761 200.188,271.279 202.075,270.802 203.962,270.327 205.849,269.856 207.736,269.389 209.623,268.925 211.51,268.465 213.396,268.008 215.283,267.555 217.17,267.105 219.057,266.659 220.944,266.215 222.831,265.776 224.717,265.339 226.604,264.907 228.491,264.477 230.378,264.051 232.265,263.628 234.152,263.209 236.039,262.793 237.925,262.38 239.812,261.971 241.699,261.565 243.586,261.162 245.473,260.763 247.36,260.367 249.247,259.974 251.133,259.584 253.02,259.198 254.907,258.815 256.794,258.435 258.681,258.059 260.567,257.685 262.455,257.315 264.341,256.948 266.228,256.584 268.115,256.224 270.002,255.866 271.889,255.512 273.775,255.161 275.662,254.813 277.549,254.468 279.436,254.127 281.323,253.788 283.21,253.453 285.097,253.121 286.983,252.791 288.87,252.465 290.757,252.142 292.644,251.822 294.531,251.505 296.417,251.191 298.305,250.88 300.191,250.572 302.078,250.267 303.965,249.965 305.852,249.667 307.739,249.371 309.625,249.078 311.512,248.788 313.399,248.5 315.286,248.217 317.173,247.936 319.06,247.657 320.947,247.382 322.833,247.109 324.72,246.84 326.607,246.573 328.494,246.31 330.381,246.049 332.268,245.791 334.155,245.536 336.042,245.283 337.928,245.034 339.815,244.787 341.702,244.543 343.589,244.302 345.476,244.064 347.362,243.828 349.25,243.596 351.136,243.366 353.023,243.138 354.91,242.914 356.797,242.692 358.684,242.473 360.57,242.257 362.458,242.043 364.344,241.832 366.231,241.624 368.118,241.418 370.005,241.215 371.892,241.015 373.778,240.817 375.665,240.623 377.552,240.43 379.439,240.241 381.326,240.053 383.212,239.869 385.1,239.687 386.986,239.507 388.873,239.331 390.76,239.157 392.647,238.985 394.534,238.815 396.42,238.649 398.308,238.485 400.194,238.323 402.081,238.164 403.968,238.008 405.855,237.854 407.742,237.702 409.628,237.553 411.515,237.406 413.402,237.262 415.289,237.12 417.176,236.98 419.062,236.843 420.95,236.708 422.836,236.576 424.723,236.446 426.61,236.319 428.497,236.194 430.384,236.071 432.271,235.951 434.158,235.833 436.044,235.717 437.931,235.604 439.818,235.492 441.705,235.383 443.592,235.277 445.479,235.173 447.365,235.071 449.252,234.971 451.139,234.874 453.026,234.778 454.913,234.685 456.8,234.594 458.687,234.506 460.573,234.419 462.46,234.335 464.347,234.253 466.234,234.173 468.121,234.096 470.008,234.02 471.895,233.947 473.781,233.875 475.668,233.806 477.555,233.739 479.442,233.674 481.329,233.611 483.215,233.551 485.103,233.492 486.989,233.436 488.876,233.381 490.763,233.329 492.65,233.278 494.537,233.229 496.423,233.183 498.311,233.139 500.197,233.096 502.084,233.056 503.971,233.018 505.858,232.981 507.745,232.947 509.631,232.914 511.518,232.883 513.405,232.854 515.292,232.828 517.179,232.803 519.065,232.78 520.953,232.759 522.839,232.74 524.726,232.723 526.613,232.707 528.5,232.693 530.387,232.682 532.273,232.672 534.161,232.664 536.047,232.657 537.934,232.653 539.821,232.65 541.708,232.649 543.595,232.65 545.481,232.653 547.368,232.657 549.255,232.664 551.142,232.671 553.029,232.681 554.916,232.692 556.803,232.706 558.689,232.72 560.576,232.737 562.463,232.755 564.35,232.774 566.237,232.796 568.124,232.819 570.011,232.844 571.897,232.87 573.784,232.898 575.671,232.928 577.558,232.959 579.445,232.992 581.332,233.026 583.218,233.062 585.105,233.1 586.992,233.139 588.879,233.179 590.766,233.222 592.653,233.265 594.54,233.311 596.426,233.357 598.313,233.405 600.2,233.455 602.087,233.506 603.974,233.559 605.861,233.613 607.748,233.668 609.634,233.726 611.521,233.784 613.408,233.844 615.295,233.905 617.182,233.967 619.068,234.031 620.956,234.097 622.842,234.164 624.729,234.232 626.616,234.301 628.503,234.372 630.39,234.444 632.276,234.518 634.163,234.593 636.05,234.668 637.937,234.746 639.824,234.825 641.71,234.905 643.598,234.986 645.484,235.068 647.371,235.152 649.258,235.237 651.145,235.323 653.032,235.411 654.918,235.499 656.806,235.589 658.692,235.68 660.579,235.772 662.466,235.866 664.353,235.96 666.24,236.056 668.126,236.152 670.014,236.25 671.9,236.35 673.787,236.45 675.674,236.551 677.561,236.653 679.448,236.756 681.334,236.861 683.221,236.967 685.108,237.073 686.995,237.181 688.882,237.29 690.769,237.399 692.656,237.51 694.542,237.622 696.429,237.734 698.316,237.848 700.203,237.963 702.09,238.078 703.977,238.195 705.863,238.312 707.75,238.431 709.637,238.55 711.524,238.671 713.411,238.792 715.298,238.914 717.185,239.037 719.071,239.161 720.958,239.286 722.845,239.412 724.732,239.538 726.619,239.665 728.506,239.793 730.393,239.922 732.279,240.052 734.166,240.183 736.053,240.314 737.94,240.446 739.827,240.579 741.713,240.713 743.601,240.847 745.487,240.982 747.374,241.118 749.261,241.255 751.148,241.393 753.035,241.53 754.921,241.669 756.809,241.809 758.695,241.949 760.582,242.09 762.469,242.231 764.356,242.373 766.243,242.516 768.129,242.659 770.016,242.803 771.903,242.948 773.79,243.093 775.677,243.239 777.563,243.385 779.451,243.532 781.337,243.68 783.224,243.828 785.111,243.976 786.998,244.125 788.885,244.275 790.771,244.425 792.658,244.576 794.545,244.727 796.432,244.878 798.319,245.031 800.206,245.183 802.093,245.336 803.979,245.49 805.866,245.644 807.753,245.798 809.64,245.953 811.527,246.108 813.414,246.263 815.301,246.419 817.188,246.576 819.074,246.732 820.961,246.889 822.848,247.046 824.735,247.205 826.622,247.362 828.509,247.521 830.396,247.68 832.282,247.838 834.169,247.998 836.056,248.157 837.943,248.317 839.83,248.477 841.717,248.638 843.604,248.798 845.49,248.959 847.377,249.12 849.264,249.281 851.151,249.442 853.038,249.604 854.924,249.766 856.812,249.928 858.698,250.09 860.585,250.252 862.472,250.415 864.358,250.578 866.246,250.74 868.132,250.903 870.02,251.066 871.906,251.229 873.793,251.392 875.68,251.556 877.566,251.719 879.454,251.882 881.34,252.045" stroke="#2d88f5" stroke-linecap="butt"/>
   <polyline stroke-width="1.5" stroke-linejoin="round" fill="none" stroke-dasharray="8,8,8,8" points="171.593,403.972 171.886,403.916 173.772,403.558 175.66,403.204 177.546,402.853 179.433,402.505 181.32,402.161 183.207,401.819 185.094,401.48 186.98,401.146 188.867,400.813 190.754,400.483 192.641,400.157 194.528,399.833 196.415,399.513 198.302,399.195 200.188,398.88 202.075,398.567 203.962,398.258 205.849,397.951 207.736,397.646 209.623,397.344 211.51,397.045 213.396,396.748 215.283,396.454 217.17,396.162 219.057,395.872 220.944,395.584 222.831,395.299 224.717,395.017 226.604,394.736 228.491,394.458 230.378,394.181 232.265,393.907 234.152,393.635 236.039,393.364 237.925,393.096 239.812,392.83 241.699,392.565 243.586,392.303 245.473,392.042 247.36,391.783 249.247,391.526 251.133,391.27 253.02,391.016 254.907,390.764 256.794,390.513 258.681,390.263 260.567,390.016 262.455,389.769 264.341,389.524 266.228,389.28 268.115,389.038 270.002,388.797 271.889,388.557 273.775,388.318 275.662,388.081 277.549,387.845 279.436,387.609 281.323,387.375 283.21,387.142 285.097,386.91 286.983,386.678 288.87,386.448 290.757,386.218 292.644,385.989 294.531,385.761 296.417,385.534 298.305,385.307 300.191,385.081 302.078,384.855 303.965,384.63 305.852,384.406 307.739,384.182 309.625,383.958 311.512,383.735 313.399,383.512 315.286,383.29 317.173,383.067 319.06,382.845 320.947,382.623 322.833,382.401 324.72,382.18 326.607,381.958 328.494,381.737 330.381,381.516 332.268,381.294 334.155,381.072 336.042,380.851 337.928,380.628 339.815,380.406 341.702,380.184 343.589,379.961 345.476,379.738 347.362,379.515 349.25,379.291 351.136,379.066 353.023,378.841 354.91,378.616 356.797,378.39 358.684,378.164 360.57,377.937 362.458,377.708 364.344,377.48 366.231,377.25 368.118,377.02 370.005,376.789 371.892,376.557 373.778,376.324 375.665,376.09 377.552,375.855 379.439,375.619 381.326,375.382 383.212,375.144 385.1,374.904 386.986,374.664 388.873,374.422 390.76,374.179 392.647,373.934 394.534,373.688 396.42,373.44 398.308,373.192 400.194,372.941 402.081,372.689 403.968,372.436 405.855,372.181 407.742,371.924 409.628,371.666 411.515,371.405 413.402,371.144 415.289,370.879 417.176,370.614 419.062,370.346 420.95,370.077 422.836,369.805 424.723,369.532 426.61,369.256 428.497,368.978 430.384,368.698 432.271,368.416 434.158,368.132 436.044,367.845 437.931,367.556 439.818,367.265 441.705,366.971 443.592,366.675 445.479,366.376 447.365,366.076 449.252,365.772 451.139,365.466 453.026,365.157 454.913,364.845 456.8,364.531 458.687,364.214 460.573,363.895 462.46,363.572 464.347,363.246 466.234,362.918 468.121,362.586 470.008,362.252 471.895,361.915 473.781,361.574 475.668,361.23 477.555,360.884 479.442,360.534 481.329,360.181 483.215,359.824 485.103,359.464 486.989,359.101 488.876,358.735 490.763,358.365 492.65,357.991 494.537,357.614 496.423,357.234 498.311,356.85 500.197,356.462 502.084,356.07 503.971,355.675 505.858,355.276 507.745,354.874 509.631,354.467 511.518,354.056 513.405,353.642 515.292,353.224 517.179,352.801 519.065,352.375 520.953,351.944 522.839,351.51 524.726,351.071 526.613,350.628 528.5,350.181 530.387,349.729 532.273,349.273 534.161,348.813 536.047,348.348 537.934,347.879 539.821,347.406 541.708,346.928 543.595,346.445 545.481,345.958 547.368,345.466 549.255,344.969 551.142,344.468 553.029,343.961 554.916,343.451 556.803,342.935 558.689,342.414 560.576,341.889 562.463,341.358 564.35,340.822 566.237,340.282 568.124,339.736 570.011,339.185 571.897,338.629 573.784,338.068 575.671,337.501 577.558,336.93 579.445,336.353 581.332,335.77 583.218,335.182 585.105,334.589 586.992,333.99 588.879,333.386 590.766,332.775 592.653,332.16 594.54,331.539 596.426,330.912 598.313,330.279 600.2,329.641 602.087,328.997 603.974,328.346 605.861,327.69 607.748,327.028 609.634,326.36 611.521,325.687 613.408,325.006 615.295,324.32 617.182,323.628 619.068,322.93 620.956,322.225 622.842,321.514 624.729,320.797 626.616,320.073 628.503,319.343 630.39,318.607 632.276,317.864 634.163,317.115 636.05,316.359 637.937,315.596 639.824,314.827 641.71,314.051 643.598,313.269 645.484,312.48 647.371,311.684 649.258,310.881 651.145,310.071 653.032,309.255 654.918,308.431 656.806,307.601 658.692,306.763 660.579,305.918 662.466,305.067 664.353,304.208 666.24,303.342 668.126,302.468 670.014,301.588 671.9,300.7 673.787,299.805 675.674,298.902 677.561,297.992 679.448,297.075 681.334,296.15 683.221,295.217 685.108,294.277 686.995,293.329 688.882,292.374 690.769,291.411 692.656,290.439 694.542,289.461 696.429,288.474 698.316,287.48 700.203,286.478 702.09,285.467 703.977,284.449 705.863,283.423 707.75,282.388 709.637,281.346 711.524,280.295 713.411,279.236 715.298,278.169 717.185,277.094 719.071,276.01 720.958,274.918 722.845,273.817 724.732,272.708 726.619,271.591 728.506,270.465 730.393,269.331 732.279,268.188 734.166,267.036 736.053,265.876 737.94,264.707 739.827,263.529 741.713,262.342 743.601,261.147 745.487,259.942 747.374,258.729 749.261,257.507 751.148,256.276 753.035,255.036 754.921,253.786 756.809,252.527 758.695,251.26 760.582,249.983 762.469,248.697 764.356,247.401 766.243,246.097 768.129,244.783 770.016,243.459 771.903,242.126 773.79,240.784 775.677,239.432 777.563,238.07 779.451,236.699 781.337,235.318 783.224,233.928 785.111,232.528 786.998,231.118 788.885,229.698 790.771,228.269 792.658,226.829 794.545,225.38 796.432,223.92 798.319,222.451 800.206,220.972 802.093,219.482 803.979,217.982 805.866,216.473 807.753,214.953 809.64,213.422 811.527,211.881 813.414,210.331 815.301,208.77 817.188,207.198 819.074,205.615 820.961,204.023 822.848,202.419 824.735,200.806 826.622,199.182 828.509,197.546 830.396,195.901 832.282,194.244 834.169,192.577 836.056,190.899 837.943,189.21 839.83,187.51 841.717,185.799 843.604,184.078 845.49,182.345 847.377,180.601 849.264,178.846 851.151,177.08 853.038,175.303 854.924,173.515 856.812,171.715 858.698,169.904 860.585,168.082 862.472,166.248 864.358,164.403 866.246,162.546 868.132,160.678 870.02,158.798 871.906,156.907 873.793,155.004 875.68,153.09 877.566,151.164 879.454,149.226 881.34,147.276" stroke="#fec834" stroke-linecap="butt"/>
   <polyline stroke-width="1.5" stroke-linejoin="round" fill="none" stroke-dasharray="8,8,8,8" points="126.602,363.596 128.488,363.332 130.375,363.062 132.262,362.79 134.149,362.514 136.036,362.234 137.922,361.95 139.81,361.662 141.696,361.371 143.583,361.075 145.47,360.776 147.357,360.473 149.244,360.167 151.13,359.856 153.017,359.542 154.904,359.225 156.791,358.904 158.678,358.579 160.564,358.25 162.452,357.918 164.338,357.583 166.225,357.244 168.112,356.9 169.999,356.554 171.886,356.204 173.772,355.851 175.66,355.494 177.546,355.133 179.433,354.77 181.32,354.402 183.207,354.031 185.094,353.657 186.98,353.279 188.867,352.898 190.754,352.514 192.641,352.126 194.528,351.735 196.415,351.34 198.302,350.942 200.188,350.541 202.075,350.137 203.962,349.729 205.849,349.318 207.736,348.904 209.623,348.486 211.51,348.065 213.396,347.642 215.283,347.214 217.17,346.784 219.057,346.351 220.944,345.914 222.831,345.475 224.717,345.032 226.604,344.586 228.491,344.137 230.378,343.685 232.265,343.229 234.152,342.771 236.039,342.311 237.925,341.846 239.812,341.379 241.699,340.909 243.586,340.436 245.473,339.96 247.36,339.481 249.247,338.999 251.133,338.514 253.02,338.027 254.907,337.536 256.794,337.043 258.681,336.546 260.567,336.047 262.455,335.545 264.341,335.041 266.228,334.534 268.115,334.023 270.002,333.51 271.889,332.995 273.775,332.477 275.662,331.955 277.549,331.432 279.436,330.905 281.323,330.376 283.21,329.844 285.097,329.31 286.983,328.773 288.87,328.233 290.757,327.691 292.644,327.146 294.531,326.599 296.417,326.049 298.305,325.497 300.191,324.942 302.078,324.385 303.965,323.825 305.852,323.263 307.739,322.698 309.625,322.131 311.512,321.562 313.399,320.989 315.286,320.415 317.173,319.838 319.06,319.259 320.947,318.678 322.833,318.094 324.72,317.508 326.607,316.92 328.494,316.329 330.381,315.736 332.268,315.141 334.155,314.544 336.042,313.944 337.928,313.342 339.815,312.739 341.702,312.132 343.589,311.524 345.476,310.914 347.362,310.301 349.25,309.687 351.136,309.07 353.023,308.451 354.91,307.83 356.797,307.207 358.684,306.582 360.57,305.955 362.458,305.326 364.344,304.695 366.231,304.062 368.118,303.427 370.005,302.79 371.892,302.151 373.778,301.511 375.665,300.868 377.552,300.224 379.439,299.577 381.326,298.929 383.212,298.279 385.1,297.627 386.986,296.973 388.873,296.318 390.76,295.661 392.647,295.001 394.534,294.341 396.42,293.678 398.308,293.014 400.194,292.348 402.081,291.68 403.968,291.011 405.855,290.34 407.742,289.667 409.628,288.993 411.515,288.317 413.402,287.64 415.289,286.961 417.176,286.28 419.062,285.598 420.95,284.915 422.836,284.229 424.723,283.543 426.61,282.854 428.497,282.165 430.384,281.474 432.271,280.781 434.158,280.087 436.044,279.392 437.931,278.695 439.818,277.997 441.705,277.297 443.592,276.597 445.479,275.895 447.365,275.191 449.252,274.486 451.139,273.78 453.026,273.072 454.913,272.364 456.8,271.654 458.687,270.942 460.573,270.23 462.46,269.517 464.347,268.802 466.234,268.086 468.121,267.369 470.008,266.65 471.895,265.931 473.781,265.21 475.668,264.489 477.555,263.766 479.442,263.042 481.329,262.318 483.215,261.592 485.103,260.865 486.989,260.137 488.876,259.409 490.763,258.679 492.65,257.948 494.537,257.216 496.423,256.483 498.311,255.75 500.197,255.016 502.084,254.28 503.971,253.544 505.858,252.807 507.745,252.069 509.631,251.331 511.518,250.591 513.405,249.851 515.292,249.109 517.179,248.368 519.065,247.625 520.953,246.882 522.839,246.138 524.726,245.393 526.613,244.647 528.5,243.901 530.387,243.154 532.273,242.407 534.161,241.659 536.047,240.911 537.934,240.161 539.821,239.412 541.708,238.661 543.595,237.91 545.481,237.159 547.368,236.407 549.255,235.654 551.142,234.901 553.029,234.147 554.916,233.394 556.803,232.64 558.689,231.885 560.576,231.129 562.463,230.374 564.35,229.618 566.237,228.861 568.124,228.105 570.011,227.348 571.897,226.59 573.784,225.833 575.671,225.075 577.558,224.316 579.445,223.558 581.332,222.799 583.218,222.041 585.105,221.281 586.992,220.521 588.879,219.762 590.766,219.002 592.653,218.243 594.54,217.482 596.426,216.722 598.313,215.962 600.2,215.202 602.087,214.441 603.974,213.681 605.861,212.92 607.748,212.159 609.634,211.399 611.521,210.638 613.408,209.877 615.295,209.117 617.182,208.356 619.068,207.596 620.956,206.835 622.842,206.075 624.729,205.315 626.616,204.555 628.503,203.795 630.39,203.035 632.276,202.275 634.163,201.516 636.05,200.756 637.937,199.997 639.824,199.238 641.71,198.479 643.598,197.721 645.484,196.963 647.371,196.206 649.258,195.448 651.145,194.69 653.032,193.934 654.918,193.177 656.806,192.421 658.692,191.665 660.579,190.91 662.466,190.155 664.353,189.4 666.24,188.646 668.126,187.892 670.014,187.139 671.9,186.386 673.787,185.634 675.674,184.882 677.561,184.131 679.448,183.38 681.334,182.63 683.221,181.881 685.108,181.132 686.995,180.383 688.882,179.636 690.769,178.888 692.656,178.142 694.542,177.396 696.429,176.651 698.316,175.907 700.203,175.163 702.09,174.42 703.977,173.678 705.863,172.936 707.75,172.195 709.637,171.455 711.524,170.716 713.411,169.978 715.298,169.24 717.185,168.503 719.071,167.768 720.958,167.033 722.845,166.299 724.732,165.565 726.619,164.833 728.506,164.102 730.393,163.372 732.279,162.643 734.166,161.914 736.053,161.187 737.94,160.46 739.827,159.735 741.713,159.01 743.601,158.287 745.487,157.565 747.374,156.844 749.261,156.124 751.148,155.405 753.035,154.688 754.921,153.971 756.809,153.255 758.695,152.541 760.582,151.828 762.469,151.116 764.356,150.405 766.243,149.696 768.129,148.988 770.016,148.281 771.903,147.576 773.79,146.871 775.677,146.168 777.563,145.467 779.451,144.766 781.337,144.067 783.224,143.37 785.111,142.673 786.998,141.979 788.885,141.286 790.771,140.594 792.658,139.903 794.545,139.214 796.432,138.526 798.319,137.84 800.206,137.156 802.093,136.473 803.979,135.792 805.866,135.112 807.753,134.434 809.64,133.757 811.527,133.082 813.414,132.408 815.301,131.736 817.188,131.066 819.074,130.397 820.961,129.73 822.848,129.065 824.735,128.402 826.622,127.74 828.509,127.08 830.396,126.422 832.282,125.766 834.169,125.111 836.056,124.458 837.943,123.807 839.83,123.157 841.717,122.51 843.604,121.864 845.49,121.221 847.377,120.579 849.264,119.939 851.151,119.301 853.038,118.665 854.924,118.031 856.812,117.399 858.698,116.769 860.585,116.141 862.472,115.515 864.358,114.891 866.246,114.269 868.132,113.648 870.02,113.031 871.906,112.415 873.793,111.801 875.68,111.189 877.566,110.58 879.454,109.973 881.34,109.367" stroke="#8bca50" stroke-linecap="butt"/>
   <polygon fill="#2d88f5" shape-rendering="crispEdges" points="639.05,378.707 638.477,380.47 636.977,381.56 635.123,381.56 633.623,380.47 633.05,378.707 633.623,376.943 635.123,375.854 636.977,375.854 638.477,376.943"/>
   <polyline stroke-width="0.5" stroke-linejoin="round" fill="none" points="639.05,378.707 638.477,380.47 636.977,381.56 635.123,381.56 633.623,380.47 633.05,378.707 633.623,376.943 635.123,375.854 636.977,375.854 638.477,376.943 639.05,378.707" stroke="#2d88f5" stroke-linecap="round"/>
   <polygon fill="#2d88f5" shape-rendering="crispEdges" points="657.918,365.798 657.346,367.561 655.846,368.651 653.992,368.651 652.492,367.561 651.918,365.798 652.492,364.034 653.992,362.944 655.846,362.944 657.346,364.034"/>
   <polyline stroke-width="0.5" stroke-linejoin="round" fill="none" points="657.918,365.798 657.346,367.561 655.846,368.651 653.992,368.651 652.492,367.561 651.918,365.798 652.492,364.034 653.992,362.944 655.846,362.944 657.346,364.034 657.918,365.798" stroke="#2d88f5" stroke-linecap="round"/>
   <polygon fill="#2d88f5" shape-rendering="crispEdges" points="884.34,342.285 883.768,344.048 882.268,345.138 880.413,345.138 878.913,344.048 878.34,342.285 878.913,340.521 880.413,339.431 882.268,339.431 883.768,340.521"/>
   <polyline stroke-width="0.5" stroke-linejoin="round" fill="none" points="884.34,342.285 883.768,344.048 882.268,345.138 880.413,345.138 878.913,344.048 878.34,342.285 878.913,340.521 880.413,339.431 882.268,339.431 883.768,340.521 884.34,342.285" stroke="#2d88f5" stroke-linecap="round"/>
   <polygon fill="#2d88f5" shape-rendering="crispEdges" points="186.207,358.421 185.634,360.184 184.134,361.274 182.28,361.274 180.78,360.184 180.207,358.421 180.78,356.658 182.28,355.568 184.134,355.568 185.634,356.658"/>
   <polyline stroke-width="0.5" stroke-linejoin="round" fill="none" points="186.207,358.421 185.634,360.184 184.134,361.274 182.28,361.274 180.78,360.184 180.207,358.421 180.78,356.658 182.28,355.568 184.134,355.568 185.634,356.658 186.207,358.421" stroke="#2d88f5" stroke-linecap="round"/>
   <polygon fill="#2d88f5" shape-rendering="crispEdges" points="261.681,353.35 261.108,355.113 259.608,356.203 257.753,356.203 256.253,355.113 255.681,353.35 256.253,351.586 257.753,350.496 259.608,350.496 261.108,351.586"/>
   <polyline stroke-width="0.5" stroke-linejoin="round" fill="none" points="261.681,353.35 261.108,355.113 259.608,356.203 257.753,356.203 256.253,355.113 255.681,353.35 256.253,351.586 257.753,350.496 259.608,350.496 261.108,351.586 261.681,353.35" stroke="#2d88f5" stroke-linecap="round"/>
   <polygon fill="#2d88f5" shape-rendering="crispEdges" points="242.812,352.427 242.239,354.191 240.739,355.281 238.885,355.281 237.385,354.191 236.812,352.427 237.385,350.664 238.885,349.574 240.739,349.574 242.239,350.664"/>
   <polyline stroke-width="0.5" stroke-linejoin="round" fill="none" points="242.812,352.427 242.239,354.191 240.739,355.281 238.885,355.281 237.385,354.191 236.812,352.427 237.385,350.664 238.885,349.574 240.739,349.574 242.239,350.664 242.812,352.427" stroke="#2d88f5" stroke-linecap="round"/>
   <polygon fill="#2d88f5" shape-rendering="crispEdges" points="223.944,351.966 223.371,353.729 221.871,354.819 220.017,354.819 218.517,353.729 217.944,351.966 218.517,350.203 220.017,349.113 221.871,349.113 223.371,350.203"/>
   <polyline stroke-width="0.5" stroke-linejoin="round" fill="none" points="223.944,351.966 223.371,353.729 221.871,354.819 220.017,354.819 218.517,353.729 217.944,351.966 218.517,350.203 220.017,349.113 221.871,349.113 223.371,350.203 223.944,351.966" stroke="#2d88f5" stroke-linecap="round"/>
   <polygon fill="#2d88f5" shape-rendering="crispEdges" points="827.735,320.616 827.162,322.379 825.662,323.469 823.808,323.469 822.308,322.379 821.735,320.616 822.308,318.852 823.808,317.762 825.662,317.762 827.162,318.852"/>
   <polyline stroke-width="0.5" stroke-linejoin="round" fill="none" points="827.735,320.616 827.162,322.379 825.662,323.469 823.808,323.469 822.308,322.379 821.735,320.616 822.308,318.852 823.808,317.762 825.662,317.762 827.162,318.852 827.735,320.616" stroke="#2d88f5" stroke-linecap="round"/>
   <polygon fill="#2d88f5" shape-rendering="crispEdges" points="884.34,302.174 883.768,303.937 882.268,305.027 880.413,305.027 878.913,303.937 878.34,302.174 878.913,300.411 880.413,299.321 882.268,299.321 883.768,300.411"/>
   <polyline stroke-width="0.5" stroke-linejoin="round" fill="none" points="884.34,302.174 883.768,303.937 882.268,305.027 880.413,305.027 878.913,303.937 878.34,302.174 878.913,300.411 880.413,299.321 882.268,299.321 883.768,300.411 884.34,302.174" stroke="#2d88f5" stroke-linecap="round"/>
   <polygon fill="#2d88f5" shape-rendering="crispEdges" points="205.075,317.388 204.502,319.151 203.002,320.241 201.148,320.241 199.648,319.151 199.075,317.388 199.648,315.625 201.148,314.535 203.002,314.535 204.502,315.625"/>
   <polyline stroke-width="0.5" stroke-linejoin="round" fill="none" points="205.075,317.388 204.502,319.151 203.002,320.241 201.148,320.241 199.648,319.151 199.075,317.388 199.648,315.625 201.148,314.535 203.002,314.535 204.502,315.625 205.075,317.388" stroke="#2d88f5" stroke-linecap="round"/>
   <polygon fill="#2d88f5" shape-rendering="crispEdges" points="846.604,285.576 846.03,287.34 844.53,288.43 842.676,288.43 841.176,287.34 840.604,285.576 841.176,283.813 842.676,282.723 844.53,282.723 846.03,283.813"/>
   <polyline stroke-width="0.5" stroke-linejoin="round" fill="none" points="846.604,285.576 846.03,287.34 844.53,288.43 842.676,288.43 841.176,287.34 840.604,285.576 841.176,283.813 842.676,282.723 844.53,282.723 846.03,283.813 846.604,285.576" stroke="#2d88f5" stroke-linecap="round"/>
   <polygon fill="#2d88f5" shape-rendering="crispEdges" points="846.604,268.518 846.03,270.281 844.53,271.371 842.676,271.371 841.176,270.281 840.604,268.518 841.176,266.754 842.676,265.665 844.53,265.665 846.03,266.754"/>
   <polyline stroke-width="0.5" stroke-linejoin="round" fill="none" points="846.604,268.518 846.03,270.281 844.53,271.371 842.676,271.371 841.176,270.281 840.604,268.518 841.176,266.754 842.676,265.665 844.53,265.665 846.03,266.754 846.604,268.518" stroke="#2d88f5" stroke-linecap="round"/>
   <polygon fill="#2d88f5" shape-rendering="crispEdges" points="280.549,279.583 279.976,281.346 278.476,282.436 276.622,282.436 275.122,281.346 274.549,279.583 275.122,277.819 276.622,276.729 278.476,276.729 279.976,277.819"/>
   <polyline stroke-width="0.5" stroke-linejoin="round" fill="none" points="280.549,279.583 279.976,281.346 278.476,282.436 276.622,282.436 275.122,281.346 274.549,279.583 275.122,277.819 276.622,276.729 278.476,276.729 279.976,277.819 280.549,279.583" stroke="#2d88f5" stroke-linecap="round"/>
   <polygon fill="#2d88f5" shape-rendering="crispEdges" points="167.338,281.888 166.766,283.651 165.266,284.741 163.411,284.741 161.911,283.651 161.338,281.888 161.911,280.125 163.411,279.035 165.266,279.035 166.766,280.125"/>
   <polyline stroke-width="0.5" stroke-linejoin="round" fill="none" points="167.338,281.888 166.766,283.651 165.266,284.741 163.411,284.741 161.911,283.651 161.338,281.888 161.911,280.125 163.411,279.035 165.266,279.035 166.766,280.125 167.338,281.888" stroke="#2d88f5" stroke-linecap="round"/>
   <polygon fill="#2d88f5" shape-rendering="crispEdges" points="639.05,259.297 638.477,261.061 636.977,262.15 635.123,262.15 633.623,261.061 633.05,259.297 633.623,257.534 635.123,256.444 636.977,256.444 638.477,257.534"/>
   <polyline stroke-width="0.5" stroke-linejoin="round" fill="none" points="639.05,259.297 638.477,261.061 636.977,262.15 635.123,262.15 633.623,261.061 633.05,259.297 633.623,257.534 635.123,256.444 636.977,256.444 638.477,257.534 639.05,259.297" stroke="#2d88f5" stroke-linecap="round"/>
   <polygon fill="#2d88f5" shape-rendering="crispEdges" points="846.604,237.167 846.03,238.93 844.53,240.02 842.676,240.02 841.176,238.93 840.604,237.167 841.176,235.404 842.676,234.314 844.53,234.314 846.03,235.404"/>
   <polyline stroke-width="0.5" stroke-linejoin="round" fill="none" points="846.604,237.167 846.03,238.93 844.53,240.02 842.676,240.02 841.176,238.93 840.604,237.167 841.176,235.404 842.676,234.314 844.53,234.314 846.03,235.404 846.604,237.167" stroke="#2d88f5" stroke-linecap="round"/>
   <polygon fill="#2d88f5" shape-rendering="crispEdges" points="657.918,228.868 657.346,230.632 655.846,231.721 653.992,231.721 652.492,230.632 651.918,228.868 652.492,227.105 653.992,226.015 655.846,226.015 657.346,227.105"/>
   <polyline stroke-width="0.5" stroke-linejoin="round" fill="none" points="657.918,228.868 657.346,230.632 655.846,231.721 653.992,231.721 652.492,230.632 651.918,228.868 652.492,227.105 653.992,226.015 655.846,226.015 657.346,227.105 657.918,228.868" stroke="#2d88f5" stroke-linecap="round"/>
   <polygon fill="#2d88f5" shape-rendering="crispEdges" points="205.075,239.472 204.502,241.235 203.002,242.325 201.148,242.325 199.648,241.235 199.075,239.472 199.648,237.709 201.148,236.619 203.002,236.619 204.502,237.709"/>
   <polyline stroke-width="0.5" stroke-linejoin="round" fill="none" points="205.075,239.472 204.502,241.235 203.002,242.325 201.148,242.325 199.648,241.235 199.075,239.472 199.648,237.709 201.148,236.619 203.002,236.619 204.502,237.709 205.075,239.472" stroke="#2d88f5" stroke-linecap="round"/>
   <polygon fill="#2d88f5" shape-rendering="crispEdges" points="582.445,220.569 581.872,222.333 580.372,223.423 578.518,223.423 577.018,222.333 576.445,220.569 577.018,218.806 578.518,217.716 580.372,217.716 581.872,218.806"/>
   <polyline stroke-width="0.5" stroke-linejoin="round" fill="none" points="582.445,220.569 581.872,222.333 580.372,223.423 578.518,223.423 577.018,222.333 576.445,220.569 577.018,218.806 578.518,217.716 580.372,217.716 581.872,218.806 582.445,220.569" stroke="#2d88f5" stroke-linecap="round"/>
   <polygon fill="#2d88f5" shape-rendering="crispEdges" points="884.34,194.751 883.768,196.515 882.268,197.604 880.413,197.604 878.913,196.515 878.34,194.751 878.913,192.988 880.413,191.898 882.268,191.898 883.768,192.988"/>
   <polyline stroke-width="0.5" stroke-linejoin="round" fill="none" points="884.34,194.751 883.768,196.515 882.268,197.604 880.413,197.604 878.913,196.515 878.34,194.751 878.913,192.988 880.413,191.898 882.268,191.898 883.768,192.988 884.34,194.751" stroke="#2d88f5" stroke-linecap="round"/>
   <polygon fill="#2d88f5" shape-rendering="crispEdges" points="601.313,191.524 600.74,193.287 599.24,194.377 597.386,194.377 595.886,193.287 595.313,191.524 595.886,189.761 597.386,188.671 599.24,188.671 600.74,189.761"/>
   <polyline stroke-width="0.5" stroke-linejoin="round" fill="none" points="601.313,191.524 600.74,193.287 599.24,194.377 597.386,194.377 595.886,193.287 595.313,191.524 595.886,189.761 597.386,188.671 599.24,188.671 600.74,189.761 601.313,191.524" stroke="#2d88f5" stroke-linecap="round"/>
   <polygon fill="#2d88f5" shape-rendering="crispEdges" points="620.182,179.537 619.609,181.3 618.109,182.39 616.254,182.39 614.754,181.3 614.182,179.537 614.754,177.773 616.254,176.684 618.109,176.684 619.609,177.773"/>
   <polyline stroke-width="0.5" stroke-linejoin="round" fill="none" points="620.182,179.537 619.609,181.3 618.109,182.39 616.254,182.39 614.754,181.3 614.182,179.537 614.754,177.773 616.254,176.684 618.109,176.684 619.609,177.773 620.182,179.537" stroke="#2d88f5" stroke-linecap="round"/>
   <polygon fill="#2d88f5" shape-rendering="crispEdges" points="280.549,185.069 279.976,186.833 278.476,187.922 276.622,187.922 275.122,186.833 274.549,185.069 275.122,183.306 276.622,182.216 278.476,182.216 279.976,183.306"/>
   <polyline stroke-width="0.5" stroke-linejoin="round" fill="none" points="280.549,185.069 279.976,186.833 278.476,187.922 276.622,187.922 275.122,186.833 274.549,185.069 275.122,183.306 276.622,182.216 278.476,182.216 279.976,183.306 280.549,185.069" stroke="#2d88f5" stroke-linecap="round"/>
   <polygon fill="#2d88f5" shape-rendering="crispEdges" points="223.944,185.53 223.371,187.293 221.871,188.383 220.017,188.383 218.517,187.293 217.944,185.53 218.517,183.767 220.017,182.677 221.871,182.677 223.371,183.767"/>
   <polyline stroke-width="0.5" stroke-linejoin="round" fill="none" points="223.944,185.53 223.371,187.293 221.871,188.383 220.017,188.383 218.517,187.293 217.944,185.53 218.517,183.767 220.017,182.677 221.871,182.677 223.371,183.767 223.944,185.53" stroke="#2d88f5" stroke-linecap="round"/>
   <polygon fill="#2d88f5" shape-rendering="crispEdges" points="186.207,185.991 185.634,187.755 184.134,188.845 182.28,188.845 180.78,187.755 180.207,185.991 180.78,184.228 182.28,183.138 184.134,183.138 185.634,184.228"/>
   <polyline stroke-width="0.5" stroke-linejoin="round" fill="none" points="186.207,185.991 185.634,187.755 184.134,188.845 182.28,188.845 180.78,187.755 180.207,185.991 180.78,184.228 182.28,183.138 184.134,183.138 185.634,184.228 186.207,185.991" stroke="#2d88f5" stroke-linecap="round"/>
   <polygon fill="#2d88f5" shape-rendering="crispEdges" points="884.34,150.952 883.768,152.715 882.268,153.805 880.413,153.805 878.913,152.715 878.34,150.952 878.913,149.189 880.413,148.099 882.268,148.099 883.768,149.189"/>
   <polyline stroke-width="0.5" stroke-linejoin="round" fill="none" points="884.34,150.952 883.768,152.715 882.268,153.805 880.413,153.805 878.913,152.715 878.34,150.952 878.913,149.189 880.413,148.099 882.268,148.099 883.768,149.189 884.34,150.952" stroke="#2d88f5" stroke-linecap="round"/>
   <polygon fill="#2d88f5" shape-rendering="crispEdges" points="186.207,167.089 185.634,168.852 184.134,169.942 182.28,169.942 180.78,168.852 180.207,167.089 180.78,165.325 182.28,164.235 184.134,164.235 185.634,165.325"/>
   <polyline stroke-width="0.5" stroke-linejoin="round" fill="none" points="186.207,167.089 185.634,168.852 184.134,169.942 182.28,169.942 180.78,168.852 180.207,167.089 180.78,165.325 182.28,164.235 184.134,164.235 185.634,165.325 186.207,167.089" stroke="#2d88f5" stroke-linecap="round"/>
   <polygon fill="#2d88f5" shape-rendering="crispEdges" points="846.604,134.354 846.03,136.118 844.53,137.208 842.676,137.208 841.176,136.118 840.604,134.354 841.176,132.591 842.676,131.501 844.53,131.501 846.03,132.591"/>
   <polyline stroke-width="0.5" stroke-linejoin="round" fill="none" points="846.604,134.354 846.03,136.118 844.53,137.208 842.676,137.208 841.176,136.118 840.604,134.354 841.176,132.591 842.676,131.501 844.53,131.501 846.03,132.591 846.604,134.354" stroke="#2d88f5" stroke-linecap="round"/>
   <polygon fill="#2d88f5" shape-rendering="crispEdges" points="563.576,130.667 563.003,132.43 561.503,133.52 559.649,133.52 558.149,132.43 557.576,130.667 558.149,128.903 559.649,127.813 561.503,127.813 563.003,128.903"/>
   <polyline stroke-width="0.5" stroke-linejoin="round" fill="none" points="563.576,130.667 563.003,132.43 561.503,133.52 559.649,133.52 558.149,132.43 557.576,130.667 558.149,128.903 559.649,127.813 561.503,127.813 563.003,128.903 563.576,130.667" stroke="#2d88f5" stroke-linecap="round"/>
   <polygon fill="#2d88f5" shape-rendering="crispEdges" points="601.313,119.14 600.74,120.904 599.24,121.994 597.386,121.994 595.886,120.904 595.313,119.14 595.886,117.377 597.386,116.287 599.24,116.287 600.74,117.377"/>
   <polyline stroke-width="0.5" stroke-linejoin="round" fill="none" points="601.313,119.14 600.74,120.904 599.24,121.994 597.386,121.994 595.886,120.904 595.313,119.14 595.886,117.377 597.386,116.287 599.24,116.287 600.74,117.377 601.313,119.14" stroke="#2d88f5" stroke-linecap="round"/>
   <polygon fill="#fec834" shape-rendering="crispEdges" points="639.05,341.362 638.477,343.126 636.977,344.216 635.123,344.216 633.623,343.126 633.05,341.362 633.623,339.599 635.123,338.509 636.977,338.509 638.477,339.599"/>
   <polyline stroke-width="0.5" stroke-linejoin="round" fill="none" points="639.05,341.362 638.477,343.126 636.977,344.216 635.123,344.216 633.623,343.126 633.05,341.362 633.623,339.599 635.123,338.509 636.977,338.509 638.477,339.599 639.05,341.362" stroke="#fec834" stroke-linecap="round"/>
   <polygon fill="#fec834" shape-rendering="crispEdges" points="657.918,269.901 657.346,271.665 655.846,272.754 653.992,272.754 652.492,271.665 651.918,269.901 652.492,268.138 653.992,267.048 655.846,267.048 657.346,268.138"/>
   <polyline stroke-width="0.5" stroke-linejoin="round" fill="none" points="657.918,269.901 657.346,271.665 655.846,272.754 653.992,272.754 652.492,271.665 651.918,269.901 652.492,268.138 653.992,267.048 655.846,267.048 657.346,268.138 657.918,269.901" stroke="#fec834" stroke-linecap="round"/>
   <polygon fill="#fec834" shape-rendering="crispEdges" points="884.34,127.9 883.768,129.664 882.268,130.753 880.413,130.753 878.913,129.664 878.34,127.9 878.913,126.137 880.413,125.047 882.268,125.047 883.768,126.137"/>
   <polyline stroke-width="0.5" stroke-linejoin="round" fill="none" points="884.34,127.9 883.768,129.664 882.268,130.753 880.413,130.753 878.913,129.664 878.34,127.9 878.913,126.137 880.413,125.047 882.268,125.047 883.768,126.137 884.34,127.9" stroke="#fec834" stroke-linecap="round"/>
   <polygon fill="#fec834" shape-rendering="crispEdges" points="186.207,400.837 185.634,402.6 184.134,403.69 182.28,403.69 180.78,402.6 180.207,400.837 180.78,399.073 182.28,397.983 184.134,397.983 185.634,399.073"/>
   <polyline stroke-width="0.5" stroke-linejoin="round" fill="none" points="186.207,400.837 185.634,402.6 184.134,403.69 182.28,403.69 180.78,402.6 180.207,400.837 180.78,399.073 182.28,397.983 184.134,397.983 185.634,399.073 186.207,400.837" stroke="#fec834" stroke-linecap="round"/>
   <polygon fill="#fec834" shape-rendering="crispEdges" points="261.681,387.928 261.108,389.691 259.608,390.781 257.753,390.781 256.253,389.691 255.681,387.928 256.253,386.164 257.753,385.074 259.608,385.074 261.108,386.164"/>
   <polyline stroke-width="0.5" stroke-linejoin="round" fill="none" points="261.681,387.928 261.108,389.691 259.608,390.781 257.753,390.781 256.253,389.691 255.681,387.928 256.253,386.164 257.753,385.074 259.608,385.074 261.108,386.164 261.681,387.928" stroke="#fec834" stroke-linecap="round"/>
   <polygon fill="#fec834" shape-rendering="crispEdges" points="242.812,398.07 242.239,399.834 240.739,400.924 238.885,400.924 237.385,399.834 236.812,398.07 237.385,396.307 238.885,395.217 240.739,395.217 242.239,396.307"/>
   <polyline stroke-width="0.5" stroke-linejoin="round" fill="none" points="242.812,398.07 242.239,399.834 240.739,400.924 238.885,400.924 237.385,399.834 236.812,398.07 237.385,396.307 238.885,395.217 240.739,395.217 242.239,396.307 242.812,398.07" stroke="#fec834" stroke-linecap="round"/>
   <polygon fill="#fec834" shape-rendering="crispEdges" points="223.944,397.609 223.371,399.373 221.871,400.463 220.017,400.463 218.517,399.373 217.944,397.609 218.517,395.846 220.017,394.756 221.871,394.756 223.371,395.846"/>
   <polyline stroke-width="0.5" stroke-linejoin="round" fill="none" points="223.944,397.609 223.371,399.373 221.871,400.463 220.017,400.463 218.517,399.373 217.944,397.609 218.517,395.846 220.017,394.756 221.871,394.756 223.371,395.846 223.944,397.609" stroke="#fec834" stroke-linecap="round"/>
   <polygon fill="#fec834" shape-rendering="crispEdges" points="827.735,239.933 827.162,241.697 825.662,242.787 823.808,242.787 822.308,241.697 821.735,239.933 822.308,238.17 823.808,237.08 825.662,237.08 827.162,238.17"/>
   <polyline stroke-width="0.5" stroke-linejoin="round" fill="none" points="827.735,239.933 827.162,241.697 825.662,242.787 823.808,242.787 822.308,241.697 821.735,239.933 822.308,238.17 823.808,237.08 825.662,237.08 827.162,238.17 827.735,239.933" stroke="#fec834" stroke-linecap="round"/>
   <polygon fill="#fec834" shape-rendering="crispEdges" points="884.34,151.413 883.768,153.177 882.268,154.267 880.413,154.267 878.913,153.177 878.34,151.413 878.913,149.65 880.413,148.56 882.268,148.56 883.768,149.65"/>
   <polyline stroke-width="0.5" stroke-linejoin="round" fill="none" points="884.34,151.413 883.768,153.177 882.268,154.267 880.413,154.267 878.913,153.177 878.34,151.413 878.913,149.65 880.413,148.56 882.268,148.56 883.768,149.65 884.34,151.413" stroke="#fec834" stroke-linecap="round"/>
   <polygon fill="#fec834" shape-rendering="crispEdges" points="205.075,398.532 204.502,400.295 203.002,401.385 201.148,401.385 199.648,400.295 199.075,398.532 199.648,396.768 201.148,395.678 203.002,395.678 204.502,396.768"/>
   <polyline stroke-width="0.5" stroke-linejoin="round" fill="none" points="205.075,398.532 204.502,400.295 203.002,401.385 201.148,401.385 199.648,400.295 199.075,398.532 199.648,396.768 201.148,395.678 203.002,395.678 204.502,396.768 205.075,398.532" stroke="#fec834" stroke-linecap="round"/>
   <polygon fill="#fec834" shape-rendering="crispEdges" points="846.604,190.141 846.03,191.904 844.53,192.994 842.676,192.994 841.176,191.904 840.604,190.141 841.176,188.377 842.676,187.288 844.53,187.288 846.03,188.377"/>
   <polyline stroke-width="0.5" stroke-linejoin="round" fill="none" points="846.604,190.141 846.03,191.904 844.53,192.994 842.676,192.994 841.176,191.904 840.604,190.141 841.176,188.377 842.676,187.288 844.53,187.288 846.03,188.377 846.604,190.141" stroke="#fec834" stroke-linecap="round"/>
   <polygon fill="#fec834" shape-rendering="crispEdges" points="846.604,208.122 846.03,209.885 844.53,210.975 842.676,210.975 841.176,209.885 840.604,208.122 841.176,206.358 842.676,205.268 844.53,205.268 846.03,206.358"/>
   <polyline stroke-width="0.5" stroke-linejoin="round" fill="none" points="846.604,208.122 846.03,209.885 844.53,210.975 842.676,210.975 841.176,209.885 840.604,208.122 841.176,206.358 842.676,205.268 844.53,205.268 846.03,206.358 846.604,208.122" stroke="#fec834" stroke-linecap="round"/>
   <polygon fill="#fec834" shape-rendering="crispEdges" points="280.549,389.772 279.976,391.535 278.476,392.625 276.622,392.625 275.122,391.535 274.549,389.772 275.122,388.008 276.622,386.918 278.476,386.918 279.976,388.008"/>
   <polyline stroke-width="0.5" stroke-linejoin="round" fill="none" points="280.549,389.772 279.976,391.535 278.476,392.625 276.622,392.625 275.122,391.535 274.549,389.772 275.122,388.008 276.622,386.918 278.476,386.918 279.976,388.008 280.549,389.772" stroke="#fec834" stroke-linecap="round"/>
   <polygon fill="#fec834" shape-rendering="crispEdges" points="167.338,401.759 166.766,403.522 165.266,404.612 163.411,404.612 161.911,403.522 161.338,401.759 161.911,399.996 163.411,398.906 165.266,398.906 166.766,399.996"/>
   <polyline stroke-width="0.5" stroke-linejoin="round" fill="none" points="167.338,401.759 166.766,403.522 165.266,404.612 163.411,404.612 161.911,403.522 161.338,401.759 161.911,399.996 163.411,398.906 165.266,398.906 166.766,399.996 167.338,401.759" stroke="#fec834" stroke-linecap="round"/>
   <polygon fill="#fec834" shape-rendering="crispEdges" points="639.05,293.875 638.477,295.639 636.977,296.729 635.123,296.729 633.623,295.639 633.05,293.875 633.623,292.112 635.123,291.022 636.977,291.022 638.477,292.112"/>
   <polyline stroke-width="0.5" stroke-linejoin="round" fill="none" points="639.05,293.875 638.477,295.639 636.977,296.729 635.123,296.729 633.623,295.639 633.05,293.875 633.623,292.112 635.123,291.022 636.977,291.022 638.477,292.112 639.05,293.875" stroke="#fec834" stroke-linecap="round"/>
   <polygon fill="#fec834" shape-rendering="crispEdges" points="846.604,176.31 846.03,178.073 844.53,179.163 842.676,179.163 841.176,178.073 840.604,176.31 841.176,174.546 842.676,173.457 844.53,173.457 846.03,174.546"/>
   <polyline stroke-width="0.5" stroke-linejoin="round" fill="none" points="846.604,176.31 846.03,178.073 844.53,179.163 842.676,179.163 841.176,178.073 840.604,176.31 841.176,174.546 842.676,173.457 844.53,173.457 846.03,174.546 846.604,176.31" stroke="#fec834" stroke-linecap="round"/>
   <polygon fill="#fec834" shape-rendering="crispEdges" points="657.918,268.057 657.346,269.82 655.846,270.91 653.992,270.91 652.492,269.82 651.918,268.057 652.492,266.293 653.992,265.204 655.846,265.204 657.346,266.293"/>
   <polyline stroke-width="0.5" stroke-linejoin="round" fill="none" points="657.918,268.057 657.346,269.82 655.846,270.91 653.992,270.91 652.492,269.82 651.918,268.057 652.492,266.293 653.992,265.204 655.846,265.204 657.346,266.293 657.918,268.057" stroke="#fec834" stroke-linecap="round"/>
   <polygon fill="#fec834" shape-rendering="crispEdges" points="205.075,398.993 204.502,400.756 203.002,401.846 201.148,401.846 199.648,400.756 199.075,398.993 199.648,397.229 201.148,396.14 203.002,396.14 204.502,397.229"/>
   <polyline stroke-width="0.5" stroke-linejoin="round" fill="none" points="205.075,398.993 204.502,400.756 203.002,401.846 201.148,401.846 199.648,400.756 199.075,398.993 199.648,397.229 201.148,396.14 203.002,396.14 204.502,397.229 205.075,398.993" stroke="#fec834" stroke-linecap="round"/>
   <polygon fill="#fec834" shape-rendering="crispEdges" points="582.445,345.973 581.872,347.736 580.372,348.826 578.518,348.826 577.018,347.736 576.445,345.973 577.018,344.209 578.518,343.12 580.372,343.12 581.872,344.209"/>
   <polyline stroke-width="0.5" stroke-linejoin="round" fill="none" points="582.445,345.973 581.872,347.736 580.372,348.826 578.518,348.826 577.018,347.736 576.445,345.973 577.018,344.209 578.518,343.12 580.372,343.12 581.872,344.209 582.445,345.973" stroke="#fec834" stroke-linecap="round"/>
   <polygon fill="#fec834" shape-rendering="crispEdges" points="884.34,104.387 883.768,106.15 882.268,107.24 880.413,107.24 878.913,106.15 878.34,104.387 878.913,102.624 880.413,101.534 882.268,101.534 883.768,102.624"/>
   <polyline stroke-width="0.5" stroke-linejoin="round" fill="none" points="884.34,104.387 883.768,106.15 882.268,107.24 880.413,107.24 878.913,106.15 878.34,104.387 878.913,102.624 880.413,101.534 882.268,101.534 883.768,102.624 884.34,104.387" stroke="#fec834" stroke-linecap="round"/>
   <polygon fill="#fec834" shape-rendering="crispEdges" points="601.313,323.843 600.74,325.606 599.24,326.696 597.386,326.696 595.886,325.606 595.313,323.843 595.886,322.08 597.386,320.99 599.24,320.99 600.74,322.08"/>
   <polyline stroke-width="0.5" stroke-linejoin="round" fill="none" points="601.313,323.843 600.74,325.606 599.24,326.696 597.386,326.696 595.886,325.606 595.313,323.843 595.886,322.08 597.386,320.99 599.24,320.99 600.74,322.08 601.313,323.843" stroke="#fec834" stroke-linecap="round"/>
   <polygon fill="#fec834" shape-rendering="crispEdges" points="620.182,311.856 619.609,313.619 618.109,314.709 616.254,314.709 614.754,313.619 614.182,311.856 614.754,310.092 616.254,309.002 618.109,309.002 619.609,310.092"/>
   <polyline stroke-width="0.5" stroke-linejoin="round" fill="none" points="620.182,311.856 619.609,313.619 618.109,314.709 616.254,314.709 614.754,313.619 614.182,311.856 614.754,310.092 616.254,309.002 618.109,309.002 619.609,310.092 620.182,311.856" stroke="#fec834" stroke-linecap="round"/>
   <polygon fill="#fec834" shape-rendering="crispEdges" points="280.549,388.85 279.976,390.613 278.476,391.703 276.622,391.703 275.122,390.613 274.549,388.85 275.122,387.086 276.622,385.997 278.476,385.997 279.976,387.086"/>
   <polyline stroke-width="0.5" stroke-linejoin="round" fill="none" points="280.549,388.85 279.976,390.613 278.476,391.703 276.622,391.703 275.122,390.613 274.549,388.85 275.122,387.086 276.622,385.997 278.476,385.997 279.976,387.086 280.549,388.85" stroke="#fec834" stroke-linecap="round"/>
   <polygon fill="#fec834" shape-rendering="crispEdges" points="223.944,395.304 223.371,397.067 221.871,398.157 220.017,398.157 218.517,397.067 217.944,395.304 218.517,393.541 220.017,392.451 221.871,392.451 223.371,393.541"/>
   <polyline stroke-width="0.5" stroke-linejoin="round" fill="none" points="223.944,395.304 223.371,397.067 221.871,398.157 220.017,398.157 218.517,397.067 217.944,395.304 218.517,393.541 220.017,392.451 221.871,392.451 223.371,393.541 223.944,395.304" stroke="#fec834" stroke-linecap="round"/>
   <polygon fill="#fec834" shape-rendering="crispEdges" points="186.207,400.837 185.634,402.6 184.134,403.69 182.28,403.69 180.78,402.6 180.207,400.837 180.78,399.073 182.28,397.983 184.134,397.983 185.634,399.073"/>
   <polyline stroke-width="0.5" stroke-linejoin="round" fill="none" points="186.207,400.837 185.634,402.6 184.134,403.69 182.28,403.69 180.78,402.6 180.207,400.837 180.78,399.073 182.28,397.983 184.134,397.983 185.634,399.073 186.207,400.837" stroke="#fec834" stroke-linecap="round"/>
   <polygon fill="#fec834" shape-rendering="crispEdges" points="884.34,128.361 883.768,130.125 882.268,131.214 880.413,131.214 878.913,130.125 878.34,128.361 878.913,126.598 880.413,125.508 882.268,125.508 883.768,126.598"/>
   <polyline stroke-width="0.5" stroke-linejoin="round" fill="none" points="884.34,128.361 883.768,130.125 882.268,131.214 880.413,131.214 878.913,130.125 878.34,128.361 878.913,126.598 880.413,125.508 882.268,125.508 883.768,126.598 884.34,128.361" stroke="#fec834" stroke-linecap="round"/>
   <polygon fill="#fec834" shape-rendering="crispEdges" points="186.207,400.376 185.634,402.139 184.134,403.229 182.28,403.229 180.78,402.139 180.207,400.376 180.78,398.612 182.28,397.522 184.134,397.522 185.634,398.612"/>
   <polyline stroke-width="0.5" stroke-linejoin="round" fill="none" points="186.207,400.376 185.634,402.139 184.134,403.229 182.28,403.229 180.78,402.139 180.207,400.376 180.78,398.612 182.28,397.522 184.134,397.522 185.634,398.612 186.207,400.376" stroke="#fec834" stroke-linecap="round"/>
   <polygon fill="#fec834" shape-rendering="crispEdges" points="846.604,238.55 846.03,240.313 844.53,241.403 842.676,241.403 841.176,240.313 840.604,238.55 841.176,236.787 842.676,235.697 844.53,235.697 846.03,236.787"/>
   <polyline stroke-width="0.5" stroke-linejoin="round" fill="none" points="846.604,238.55 846.03,240.313 844.53,241.403 842.676,241.403 841.176,240.313 840.604,238.55 841.176,236.787 842.676,235.697 844.53,235.697 846.03,236.787 846.604,238.55" stroke="#fec834" stroke-linecap="round"/>
   <polygon fill="#fec834" shape-rendering="crispEdges" points="563.576,375.479 563.003,377.243 561.503,378.333 559.649,378.333 558.149,377.243 557.576,375.479 558.149,373.716 559.649,372.626 561.503,372.626 563.003,373.716"/>
   <polyline stroke-width="0.5" stroke-linejoin="round" fill="none" points="563.576,375.479 563.003,377.243 561.503,378.333 559.649,378.333 558.149,377.243 557.576,375.479 558.149,373.716 559.649,372.626 561.503,372.626 563.003,373.716 563.576,375.479" stroke="#fec834" stroke-linecap="round"/>
   <polygon fill="#fec834" shape-rendering="crispEdges" points="601.313,341.823 600.74,343.587 599.24,344.677 597.386,344.677 595.886,343.587 595.313,341.823 595.886,340.06 597.386,338.97 599.24,338.97 600.74,340.06"/>
   <polyline stroke-width="0.5" stroke-linejoin="round" fill="none" points="601.313,341.823 600.74,343.587 599.24,344.677 597.386,344.677 595.886,343.587 595.313,341.823 595.886,340.06 597.386,338.97 599.24,338.97 600.74,340.06 601.313,341.823" stroke="#fec834" stroke-linecap="round"/>
   <polygon fill="#8bca50" shape-rendering="crispEdges" points="639.05,378.707 638.477,380.47 636.977,381.56 635.123,381.56 633.623,380.47 633.05,378.707 633.623,376.943 635.123,375.854 636.977,375.854 638.477,376.943"/>
   <polyline stroke-width="0.5" stroke-linejoin="round" fill="none" points="639.05,378.707 638.477,380.47 636.977,381.56 635.123,381.56 633.623,380.47 633.05,378.707 633.623,376.943 635.123,375.854 636.977,375.854 638.477,376.943 639.05,378.707" stroke="#8bca50" stroke-linecap="round"/>
   <polygon fill="#8bca50" shape-rendering="crispEdges" points="657.918,365.798 657.346,367.561 655.846,368.651 653.992,368.651 652.492,367.561 651.918,365.798 652.492,364.034 653.992,362.944 655.846,362.944 657.346,364.034"/>
   <polyline stroke-width="0.5" stroke-linejoin="round" fill="none" points="657.918,365.798 657.346,367.561 655.846,368.651 653.992,368.651 652.492,367.561 651.918,365.798 652.492,364.034 653.992,362.944 655.846,362.944 657.346,364.034 657.918,365.798" stroke="#8bca50" stroke-linecap="round"/>
   <polygon fill="#8bca50" shape-rendering="crispEdges" points="884.34,115.452 883.768,117.215 882.268,118.305 880.413,118.305 878.913,117.215 878.34,115.452 878.913,113.688 880.413,112.599 882.268,112.599 883.768,113.688"/>
   <polyline stroke-width="0.5" stroke-linejoin="round" fill="none" points="884.34,115.452 883.768,117.215 882.268,118.305 880.413,118.305 878.913,117.215 878.34,115.452 878.913,113.688 880.413,112.599 882.268,112.599 883.768,113.688 884.34,115.452" stroke="#8bca50" stroke-linecap="round"/>
   <polygon fill="#8bca50" shape-rendering="crispEdges" points="186.207,373.174 185.634,374.938 184.134,376.027 182.28,376.027 180.78,374.938 180.207,373.174 180.78,371.411 182.28,370.321 184.134,370.321 185.634,371.411"/>
   <polyline stroke-width="0.5" stroke-linejoin="round" fill="none" points="186.207,373.174 185.634,374.938 184.134,376.027 182.28,376.027 180.78,374.938 180.207,373.174 180.78,371.411 182.28,370.321 184.134,370.321 185.634,371.411 186.207,373.174" stroke="#8bca50" stroke-linecap="round"/>
   <polygon fill="#8bca50" shape-rendering="crispEdges" points="261.681,368.103 261.108,369.866 259.608,370.956 257.753,370.956 256.253,369.866 255.681,368.103 256.253,366.339 257.753,365.25 259.608,365.25 261.108,366.339"/>
   <polyline stroke-width="0.5" stroke-linejoin="round" fill="none" points="261.681,368.103 261.108,369.866 259.608,370.956 257.753,370.956 256.253,369.866 255.681,368.103 256.253,366.339 257.753,365.25 259.608,365.25 261.108,366.339 261.681,368.103" stroke="#8bca50" stroke-linecap="round"/>
   <polygon fill="#8bca50" shape-rendering="crispEdges" points="242.812,367.181 242.239,368.944 240.739,370.034 238.885,370.034 237.385,368.944 236.812,367.181 237.385,365.417 238.885,364.328 240.739,364.328 242.239,365.417"/>
   <polyline stroke-width="0.5" stroke-linejoin="round" fill="none" points="242.812,367.181 242.239,368.944 240.739,370.034 238.885,370.034 237.385,368.944 236.812,367.181 237.385,365.417 238.885,364.328 240.739,364.328 242.239,365.417 242.812,367.181" stroke="#8bca50" stroke-linecap="round"/>
   <polygon fill="#8bca50" shape-rendering="crispEdges" points="223.944,366.72 223.371,368.483 221.871,369.573 220.017,369.573 218.517,368.483 217.944,366.72 218.517,364.957 220.017,363.867 221.871,363.867 223.371,364.957"/>
   <polyline stroke-width="0.5" stroke-linejoin="round" fill="none" points="223.944,366.72 223.371,368.483 221.871,369.573 220.017,369.573 218.517,368.483 217.944,366.72 218.517,364.957 220.017,363.867 221.871,363.867 223.371,364.957 223.944,366.72" stroke="#8bca50" stroke-linecap="round"/>
   <polygon fill="#8bca50" shape-rendering="crispEdges" points="827.735,118.218 827.162,119.981 825.662,121.071 823.808,121.071 822.308,119.981 821.735,118.218 822.308,116.455 823.808,115.365 825.662,115.365 827.162,116.455"/>
   <polyline stroke-width="0.5" stroke-linejoin="round" fill="none" points="827.735,118.218 827.162,119.981 825.662,121.071 823.808,121.071 822.308,119.981 821.735,118.218 822.308,116.455 823.808,115.365 825.662,115.365 827.162,116.455 827.735,118.218" stroke="#8bca50" stroke-linecap="round"/>
   <polygon fill="#8bca50" shape-rendering="crispEdges" points="884.34,114.53 883.768,116.293 882.268,117.383 880.413,117.383 878.913,116.293 878.34,114.53 878.913,112.767 880.413,111.677 882.268,111.677 883.768,112.767"/>
   <polyline stroke-width="0.5" stroke-linejoin="round" fill="none" points="884.34,114.53 883.768,116.293 882.268,117.383 880.413,117.383 878.913,116.293 878.34,114.53 878.913,112.767 880.413,111.677 882.268,111.677 883.768,112.767 884.34,114.53" stroke="#8bca50" stroke-linecap="round"/>
   <polygon fill="#8bca50" shape-rendering="crispEdges" points="205.075,360.265 204.502,362.028 203.002,363.118 201.148,363.118 199.648,362.028 199.075,360.265 199.648,358.502 201.148,357.412 203.002,357.412 204.502,358.502"/>
   <polyline stroke-width="0.5" stroke-linejoin="round" fill="none" points="205.075,360.265 204.502,362.028 203.002,363.118 201.148,363.118 199.648,362.028 199.075,360.265 199.648,358.502 201.148,357.412 203.002,357.412 204.502,358.502 205.075,360.265" stroke="#8bca50" stroke-linecap="round"/>
   <polygon fill="#8bca50" shape-rendering="crispEdges" points="846.604,114.53 846.03,116.293 844.53,117.383 842.676,117.383 841.176,116.293 840.604,114.53 841.176,112.767 842.676,111.677 844.53,111.677 846.03,112.767"/>
   <polyline stroke-width="0.5" stroke-linejoin="round" fill="none" points="846.604,114.53 846.03,116.293 844.53,117.383 842.676,117.383 841.176,116.293 840.604,114.53 841.176,112.767 842.676,111.677 844.53,111.677 846.03,112.767 846.604,114.53" stroke="#8bca50" stroke-linecap="round"/>
   <polygon fill="#8bca50" shape-rendering="crispEdges" points="846.604,112.225 846.03,113.988 844.53,115.078 842.676,115.078 841.176,113.988 840.604,112.225 841.176,110.461 842.676,109.372 844.53,109.372 846.03,110.461"/>
   <polyline stroke-width="0.5" stroke-linejoin="round" fill="none" points="846.604,112.225 846.03,113.988 844.53,115.078 842.676,115.078 841.176,113.988 840.604,112.225 841.176,110.461 842.676,109.372 844.53,109.372 846.03,110.461 846.604,112.225" stroke="#8bca50" stroke-linecap="round"/>
   <polygon fill="#8bca50" shape-rendering="crispEdges" points="280.549,350.122 279.976,351.886 278.476,352.976 276.622,352.976 275.122,351.886 274.549,350.122 275.122,348.359 276.622,347.269 278.476,347.269 279.976,348.359"/>
   <polyline stroke-width="0.5" stroke-linejoin="round" fill="none" points="280.549,350.122 279.976,351.886 278.476,352.976 276.622,352.976 275.122,351.886 274.549,350.122 275.122,348.359 276.622,347.269 278.476,347.269 279.976,348.359 280.549,350.122" stroke="#8bca50" stroke-linecap="round"/>
   <polygon fill="#8bca50" shape-rendering="crispEdges" points="167.338,352.427 166.766,354.191 165.266,355.281 163.411,355.281 161.911,354.191 161.338,352.427 161.911,350.664 163.411,349.574 165.266,349.574 166.766,350.664"/>
   <polyline stroke-width="0.5" stroke-linejoin="round" fill="none" points="167.338,352.427 166.766,354.191 165.266,355.281 163.411,355.281 161.911,354.191 161.338,352.427 161.911,350.664 163.411,349.574 165.266,349.574 166.766,350.664 167.338,352.427" stroke="#8bca50" stroke-linecap="round"/>
   <polygon fill="#8bca50" shape-rendering="crispEdges" points="639.05,153.718 638.477,155.482 636.977,156.572 635.123,156.572 633.623,155.482 633.05,153.718 633.623,151.955 635.123,150.865 636.977,150.865 638.477,151.955"/>
   <polyline stroke-width="0.5" stroke-linejoin="round" fill="none" points="639.05,153.718 638.477,155.482 636.977,156.572 635.123,156.572 633.623,155.482 633.05,153.718 633.623,151.955 635.123,150.865 636.977,150.865 638.477,151.955 639.05,153.718" stroke="#8bca50" stroke-linecap="round"/>
   <polygon fill="#8bca50" shape-rendering="crispEdges" points="846.604,112.686 846.03,114.449 844.53,115.539 842.676,115.539 841.176,114.449 840.604,112.686 841.176,110.922 842.676,109.833 844.53,109.833 846.03,110.922"/>
   <polyline stroke-width="0.5" stroke-linejoin="round" fill="none" points="846.604,112.686 846.03,114.449 844.53,115.539 842.676,115.539 841.176,114.449 840.604,112.686 841.176,110.922 842.676,109.833 844.53,109.833 846.03,110.922 846.604,112.686" stroke="#8bca50" stroke-linecap="round"/>
   <polygon fill="#8bca50" shape-rendering="crispEdges" points="657.918,148.186 657.346,149.949 655.846,151.039 653.992,151.039 652.492,149.949 651.918,148.186 652.492,146.423 653.992,145.333 655.846,145.333 657.346,146.423"/>
   <polyline stroke-width="0.5" stroke-linejoin="round" fill="none" points="657.918,148.186 657.346,149.949 655.846,151.039 653.992,151.039 652.492,149.949 651.918,148.186 652.492,146.423 653.992,145.333 655.846,145.333 657.346,146.423 657.918,148.186" stroke="#8bca50" stroke-linecap="round"/>
   <polygon fill="#8bca50" shape-rendering="crispEdges" points="205.075,341.823 204.502,343.587 203.002,344.677 201.148,344.677 199.648,343.587 199.075,341.823 199.648,340.06 201.148,338.97 203.002,338.97 204.502,340.06"/>
   <polyline stroke-width="0.5" stroke-linejoin="round" fill="none" points="205.075,341.823 204.502,343.587 203.002,344.677 201.148,344.677 199.648,343.587 199.075,341.823 199.648,340.06 201.148,338.97 203.002,338.97 204.502,340.06 205.075,341.823" stroke="#8bca50" stroke-linecap="round"/>
   <polygon fill="#8bca50" shape-rendering="crispEdges" points="582.445,203.511 581.872,205.274 580.372,206.364 578.518,206.364 577.018,205.274 576.445,203.511 577.018,201.748 578.518,200.658 580.372,200.658 581.872,201.748"/>
   <polyline stroke-width="0.5" stroke-linejoin="round" fill="none" points="582.445,203.511 581.872,205.274 580.372,206.364 578.518,206.364 577.018,205.274 576.445,203.511 577.018,201.748 578.518,200.658 580.372,200.658 581.872,201.748 582.445,203.511" stroke="#8bca50" stroke-linecap="round"/>
   <polygon fill="#8bca50" shape-rendering="crispEdges" points="884.34,110.842 883.768,112.605 882.268,113.695 880.413,113.695 878.913,112.605 878.34,110.842 878.913,109.078 880.413,107.988 882.268,107.988 883.768,109.078"/>
   <polyline stroke-width="0.5" stroke-linejoin="round" fill="none" points="884.34,110.842 883.768,112.605 882.268,113.695 880.413,113.695 878.913,112.605 878.34,110.842 878.913,109.078 880.413,107.988 882.268,107.988 883.768,109.078 884.34,110.842" stroke="#8bca50" stroke-linecap="round"/>
   <polygon fill="#8bca50" shape-rendering="crispEdges" points="601.313,149.569 600.74,151.333 599.24,152.422 597.386,152.422 595.886,151.333 595.313,149.569 595.886,147.806 597.386,146.716 599.24,146.716 600.74,147.806"/>
   <polyline stroke-width="0.5" stroke-linejoin="round" fill="none" points="601.313,149.569 600.74,151.333 599.24,152.422 597.386,152.422 595.886,151.333 595.313,149.569 595.886,147.806 597.386,146.716 599.24,146.716 600.74,147.806 601.313,149.569" stroke="#8bca50" stroke-linecap="round"/>
   <polygon fill="#8bca50" shape-rendering="crispEdges" points="620.182,148.647 619.609,150.41 618.109,151.5 616.254,151.5 614.754,150.41 614.182,148.647 614.754,146.884 616.254,145.794 618.109,145.794 619.609,146.884"/>
   <polyline stroke-width="0.5" stroke-linejoin="round" fill="none" points="620.182,148.647 619.609,150.41 618.109,151.5 616.254,151.5 614.754,150.41 614.182,148.647 614.754,146.884 616.254,145.794 618.109,145.794 619.609,146.884 620.182,148.647" stroke="#8bca50" stroke-linecap="round"/>
   <polygon fill="#8bca50" shape-rendering="crispEdges" points="280.549,325.687 279.976,327.45 278.476,328.54 276.622,328.54 275.122,327.45 274.549,325.687 275.122,323.924 276.622,322.834 278.476,322.834 279.976,323.924"/>
   <polyline stroke-width="0.5" stroke-linejoin="round" fill="none" points="280.549,325.687 279.976,327.45 278.476,328.54 276.622,328.54 275.122,327.45 274.549,325.687 275.122,323.924 276.622,322.834 278.476,322.834 279.976,323.924 280.549,325.687" stroke="#8bca50" stroke-linecap="round"/>
   <polygon fill="#8bca50" shape-rendering="crispEdges" points="223.944,326.148 223.371,327.911 221.871,329.001 220.017,329.001 218.517,327.911 217.944,326.148 218.517,324.385 220.017,323.295 221.871,323.295 223.371,324.385"/>
   <polyline stroke-width="0.5" stroke-linejoin="round" fill="none" points="223.944,326.148 223.371,327.911 221.871,329.001 220.017,329.001 218.517,327.911 217.944,326.148 218.517,324.385 220.017,323.295 221.871,323.295 223.371,324.385 223.944,326.148" stroke="#8bca50" stroke-linecap="round"/>
   <polygon fill="#8bca50" shape-rendering="crispEdges" points="186.207,326.609 185.634,328.373 184.134,329.462 182.28,329.462 180.78,328.373 180.207,326.609 180.78,324.846 182.28,323.756 184.134,323.756 185.634,324.846"/>
   <polyline stroke-width="0.5" stroke-linejoin="round" fill="none" points="186.207,326.609 185.634,328.373 184.134,329.462 182.28,329.462 180.78,328.373 180.207,326.609 180.78,324.846 182.28,323.756 184.134,323.756 185.634,324.846 186.207,326.609" stroke="#8bca50" stroke-linecap="round"/>
   <polygon fill="#8bca50" shape-rendering="crispEdges" points="884.34,112.686 883.768,114.449 882.268,115.539 880.413,115.539 878.913,114.449 878.34,112.686 878.913,110.922 880.413,109.833 882.268,109.833 883.768,110.922"/>
   <polyline stroke-width="0.5" stroke-linejoin="round" fill="none" points="884.34,112.686 883.768,114.449 882.268,115.539 880.413,115.539 878.913,114.449 878.34,112.686 878.913,110.922 880.413,109.833 882.268,109.833 883.768,110.922 884.34,112.686" stroke="#8bca50" stroke-linecap="round"/>
   <polygon fill="#8bca50" shape-rendering="crispEdges" points="186.207,322.46 185.634,324.223 184.134,325.313 182.28,325.313 180.78,324.223 180.207,322.46 180.78,320.696 182.28,319.606 184.134,319.606 185.634,320.696"/>
   <polyline stroke-width="0.5" stroke-linejoin="round" fill="none" points="186.207,322.46 185.634,324.223 184.134,325.313 182.28,325.313 180.78,324.223 180.207,322.46 180.78,320.696 182.28,319.606 184.134,319.606 185.634,320.696 186.207,322.46" stroke="#8bca50" stroke-linecap="round"/>
   <polygon fill="#8bca50" shape-rendering="crispEdges" points="846.604,112.225 846.03,113.988 844.53,115.078 842.676,115.078 841.176,113.988 840.604,112.225 841.176,110.461 842.676,109.372 844.53,109.372 846.03,110.461"/>
   <polyline stroke-width="0.5" stroke-linejoin="round" fill="none" points="846.604,112.225 846.03,113.988 844.53,115.078 842.676,115.078 841.176,113.988 840.604,112.225 841.176,110.461 842.676,109.372 844.53,109.372 846.03,110.461 846.604,112.225" stroke="#8bca50" stroke-linecap="round"/>
   <polygon fill="#8bca50" shape-rendering="crispEdges" points="563.576,189.219 563.003,190.982 561.503,192.072 559.649,192.072 558.149,190.982 557.576,189.219 558.149,187.455 559.649,186.366 561.503,186.366 563.003,187.455"/>
   <polyline stroke-width="0.5" stroke-linejoin="round" fill="none" points="563.576,189.219 563.003,190.982 561.503,192.072 559.649,192.072 558.149,190.982 557.576,189.219 558.149,187.455 559.649,186.366 561.503,186.366 563.003,187.455 563.576,189.219" stroke="#8bca50" stroke-linecap="round"/>
   <polygon fill="#8bca50" shape-rendering="crispEdges" points="601.313,147.264 600.74,149.027 599.24,150.117 597.386,150.117 595.886,149.027 595.313,147.264 595.886,145.5 597.386,144.411 599.24,144.411 600.74,145.5"/>
   <polyline stroke-width="0.5" stroke-linejoin="round" fill="none" points="601.313,147.264 600.74,149.027 599.24,150.117 597.386,150.117 595.886,149.027 595.313,147.264 595.886,145.5 597.386,144.411 599.24,144.411 600.74,145.5 601.313,147.264" stroke="#8bca50" stroke-linecap="round"/>
  </g>
  <clipPath id="cp00973463">
   <polygon points="0,463 973,463 973,0 0,0"/>
  </clipPath>
  <g clip-path="url(#cp00973463)">
   <polygon fill="#ffffff" shape-rendering="crispEdges" points="138.431,144.782 377.748,144.782 377.748,46.5991 138.431,46.5991"/>
   <polyline stroke-width="0.5" stroke-linejoin="miter" fill="none" stroke-dasharray="16,0" points="138.431,144.782 377.748,144.782" stroke="#262626" stroke-linecap="square"/>
   <polyline stroke-width="0.5" stroke-linejoin="miter" fill="none" stroke-dasharray="16,0" points="138.431,46.5991 377.748,46.5991" stroke="#262626" stroke-linecap="square"/>
   <polyline stroke-width="0.5" stroke-linejoin="miter" fill="none" stroke-dasharray="16,0" points="138.431,144.782 138.431,46.5991" stroke="#262626" stroke-linecap="square"/>
   <polyline stroke-width="0.5" stroke-linejoin="miter" fill="none" stroke-dasharray="16,0" points="377.748,144.782 377.748,46.5991" stroke="#262626" stroke-linecap="square"/>
   <polygon fill="#2d88f5" shape-rendering="crispEdges" points="162.132,64.9346 161.559,66.6978 160.059,67.7876 158.205,67.7876 156.705,66.6978 156.132,64.9346 156.705,63.1709 158.205,62.0811 160.059,62.0811 161.559,63.1709"/>
   <polyline stroke-width="0.5" stroke-linejoin="round" fill="none" points="162.132,64.9346 161.559,66.6978 160.059,67.7876 158.205,67.7876 156.705,66.6978 156.132,64.9346 156.705,63.1709 158.205,62.0811 160.059,62.0811 161.559,63.1709 162.132,64.9346" stroke="#2d88f5" stroke-linecap="round"/>
   <g font-style="normal" font-family="'CMU Serif'" font-weight="normal" transform="translate(179.833,71.4343) rotate(-0,-0,-6.5)" xml:space="preserve" font-size="18">
    <text y="-0" x="0 12 25 37 " fill="rgb(0,0,0)">FCFS</text>
   </g>
   <polygon fill="#fec834" shape-rendering="crispEdges" points="162.132,95.6904 161.559,97.4536 160.059,98.5435 158.205,98.5435 156.705,97.4536 156.132,95.6904 156.705,93.9272 158.205,92.8374 160.059,92.8374 161.559,93.9272"/>
   <polyline stroke-width="0.5" stroke-linejoin="round" fill="none" points="162.132,95.6904 161.559,97.4536 160.059,98.5435 158.205,98.5435 156.705,97.4536 156.132,95.6904 156.705,93.9272 158.205,92.8374 160.059,92.8374 161.559,93.9272 162.132,95.6904" stroke="#fec834" stroke-linecap="round"/>
   <g font-style="normal" font-family="'CMU Serif'" font-weight="normal" transform="translate(179.833,102.19) rotate(-0,-0,-6.5)" xml:space="preserve" font-size="18">
    <text y="-0" x="0 10 19 " fill="rgb(0,0,0)">SJF</text>
   </g>
   <polygon fill="#8bca50" shape-rendering="crispEdges" points="162.132,126.446 161.559,128.21 160.059,129.3 158.205,129.3 156.705,128.21 156.132,126.446 156.705,124.683 158.205,123.593 160.059,123.593 161.559,124.683"/>
   <polyline stroke-width="0.5" stroke-linejoin="round" fill="none" points="162.132,126.446 161.559,128.21 160.059,129.3 158.205,129.3 156.705,128.21 156.132,126.446 156.705,124.683 158.205,123.593 160.059,123.593 161.559,124.683 162.132,126.446" stroke="#8bca50" stroke-linecap="round"/>
   <g font-style="normal" font-family="'CMU Serif'" font-weight="normal" transform="translate(179.833,136.446) rotate(-0,-0,-10)" xml:space="preserve" font-size="18">
    <text y="-5" x="0 13 26 32 39 46 51 66 74 80 89 99 108 118 125 135 150 156 170 176 185 " fill="rgb(0,0,0)">RR (time quantum = 8)</text>
   </g>
  </g>
 </g>
</svg>
